%TF.GenerationSoftware,KiCad,Pcbnew,7.0.9-29-ge2d8d53a10*%
%TF.CreationDate,2023-11-20T00:12:08+01:00*%
%TF.ProjectId,scan-controller-kicad,7363616e-2d63-46f6-9e74-726f6c6c6572,rev?*%
%TF.SameCoordinates,Original*%
%TF.FileFunction,Legend,Bot*%
%TF.FilePolarity,Positive*%
%FSLAX46Y46*%
G04 Gerber Fmt 4.6, Leading zero omitted, Abs format (unit mm)*
G04 Created by KiCad (PCBNEW 7.0.9-29-ge2d8d53a10) date 2023-11-20 00:12:08*
%MOMM*%
%LPD*%
G01*
G04 APERTURE LIST*
%ADD10C,0.150000*%
%ADD11C,0.200000*%
%ADD12C,0.120000*%
%ADD13C,1.800000*%
%ADD14C,2.000000*%
%ADD15R,1.500000X1.500000*%
%ADD16C,2.100000*%
%ADD17R,2.100000X2.100000*%
%ADD18C,1.520000*%
%ADD19R,2.000000X2.000000*%
%ADD20C,0.900000*%
%ADD21C,2.600000*%
%ADD22C,3.500000*%
%ADD23R,1.700000X1.700000*%
%ADD24O,1.700000X1.700000*%
%ADD25C,0.800000*%
%ADD26C,6.400000*%
%ADD27C,2.200000*%
%ADD28R,2.200000X2.200000*%
%ADD29C,1.700000*%
%ADD30O,3.000000X3.300000*%
%ADD31R,1.000000X1.000000*%
%ADD32C,0.770000*%
G04 APERTURE END LIST*
D10*
X211750000Y-73250000D02*
X132751320Y-73251320D01*
X147750000Y-114250000D02*
X147750000Y-127250000D01*
X211750000Y-129250000D02*
X132771320Y-129228680D01*
X132751320Y-73251320D02*
G75*
G03*
X129751320Y-76251320I-20J-2999980D01*
G01*
X156750000Y-122500000D02*
X207750000Y-122500000D01*
X207750000Y-128750000D01*
X156750000Y-128750000D01*
X156750000Y-122500000D01*
X167750000Y-73250000D02*
X169750000Y-73250000D01*
X169750000Y-95750000D01*
X167750000Y-95750000D01*
X167750000Y-73250000D01*
X143000000Y-111250000D02*
X132000000Y-111250000D01*
X211750000Y-129250000D02*
G75*
G03*
X214750000Y-126250000I0J3000000D01*
G01*
X129771320Y-126228680D02*
G75*
G03*
X132771320Y-129228680I2999980J-20D01*
G01*
X129751320Y-76251320D02*
X129771320Y-126228680D01*
X144018000Y-107696000D02*
X151892000Y-107696000D01*
X151892000Y-113284000D01*
X144018000Y-113284000D01*
X144018000Y-107696000D01*
X214750000Y-126250000D02*
X214750000Y-76250000D01*
X214750000Y-76250000D02*
G75*
G03*
X211750000Y-73250000I-3000000J0D01*
G01*
X151809220Y-105533819D02*
X151809220Y-104533819D01*
X150761602Y-105438580D02*
X150809221Y-105486200D01*
X150809221Y-105486200D02*
X150952078Y-105533819D01*
X150952078Y-105533819D02*
X151047316Y-105533819D01*
X151047316Y-105533819D02*
X151190173Y-105486200D01*
X151190173Y-105486200D02*
X151285411Y-105390961D01*
X151285411Y-105390961D02*
X151333030Y-105295723D01*
X151333030Y-105295723D02*
X151380649Y-105105247D01*
X151380649Y-105105247D02*
X151380649Y-104962390D01*
X151380649Y-104962390D02*
X151333030Y-104771914D01*
X151333030Y-104771914D02*
X151285411Y-104676676D01*
X151285411Y-104676676D02*
X151190173Y-104581438D01*
X151190173Y-104581438D02*
X151047316Y-104533819D01*
X151047316Y-104533819D02*
X150952078Y-104533819D01*
X150952078Y-104533819D02*
X150809221Y-104581438D01*
X150809221Y-104581438D02*
X150761602Y-104629057D01*
X150380649Y-105486200D02*
X150237792Y-105533819D01*
X150237792Y-105533819D02*
X149999697Y-105533819D01*
X149999697Y-105533819D02*
X149904459Y-105486200D01*
X149904459Y-105486200D02*
X149856840Y-105438580D01*
X149856840Y-105438580D02*
X149809221Y-105343342D01*
X149809221Y-105343342D02*
X149809221Y-105248104D01*
X149809221Y-105248104D02*
X149856840Y-105152866D01*
X149856840Y-105152866D02*
X149904459Y-105105247D01*
X149904459Y-105105247D02*
X149999697Y-105057628D01*
X149999697Y-105057628D02*
X150190173Y-105010009D01*
X150190173Y-105010009D02*
X150285411Y-104962390D01*
X150285411Y-104962390D02*
X150333030Y-104914771D01*
X150333030Y-104914771D02*
X150380649Y-104819533D01*
X150380649Y-104819533D02*
X150380649Y-104724295D01*
X150380649Y-104724295D02*
X150333030Y-104629057D01*
X150333030Y-104629057D02*
X150285411Y-104581438D01*
X150285411Y-104581438D02*
X150190173Y-104533819D01*
X150190173Y-104533819D02*
X149952078Y-104533819D01*
X149952078Y-104533819D02*
X149809221Y-104581438D01*
X149380649Y-105533819D02*
X149380649Y-104533819D01*
X149380649Y-104533819D02*
X148999697Y-104533819D01*
X148999697Y-104533819D02*
X148904459Y-104581438D01*
X148904459Y-104581438D02*
X148856840Y-104629057D01*
X148856840Y-104629057D02*
X148809221Y-104724295D01*
X148809221Y-104724295D02*
X148809221Y-104867152D01*
X148809221Y-104867152D02*
X148856840Y-104962390D01*
X148856840Y-104962390D02*
X148904459Y-105010009D01*
X148904459Y-105010009D02*
X148999697Y-105057628D01*
X148999697Y-105057628D02*
X149380649Y-105057628D01*
X148237792Y-105438580D02*
X148190173Y-105486200D01*
X148190173Y-105486200D02*
X148237792Y-105533819D01*
X148237792Y-105533819D02*
X148285411Y-105486200D01*
X148285411Y-105486200D02*
X148237792Y-105438580D01*
X148237792Y-105438580D02*
X148237792Y-105533819D01*
X148428268Y-104581438D02*
X148333030Y-104533819D01*
X148333030Y-104533819D02*
X148094935Y-104533819D01*
X148094935Y-104533819D02*
X147999697Y-104581438D01*
X147999697Y-104581438D02*
X147952078Y-104676676D01*
X147952078Y-104676676D02*
X147952078Y-104771914D01*
X147952078Y-104771914D02*
X147999697Y-104867152D01*
X147999697Y-104867152D02*
X148047316Y-104914771D01*
X148047316Y-104914771D02*
X148142554Y-104962390D01*
X148142554Y-104962390D02*
X148190173Y-105010009D01*
X148190173Y-105010009D02*
X148237792Y-105105247D01*
X148237792Y-105105247D02*
X148237792Y-105152866D01*
X146761601Y-104533819D02*
X146761601Y-105343342D01*
X146761601Y-105343342D02*
X146713982Y-105438580D01*
X146713982Y-105438580D02*
X146666363Y-105486200D01*
X146666363Y-105486200D02*
X146571125Y-105533819D01*
X146571125Y-105533819D02*
X146380649Y-105533819D01*
X146380649Y-105533819D02*
X146285411Y-105486200D01*
X146285411Y-105486200D02*
X146237792Y-105438580D01*
X146237792Y-105438580D02*
X146190173Y-105343342D01*
X146190173Y-105343342D02*
X146190173Y-104533819D01*
X145761601Y-105486200D02*
X145666363Y-105533819D01*
X145666363Y-105533819D02*
X145475887Y-105533819D01*
X145475887Y-105533819D02*
X145380649Y-105486200D01*
X145380649Y-105486200D02*
X145333030Y-105390961D01*
X145333030Y-105390961D02*
X145333030Y-105343342D01*
X145333030Y-105343342D02*
X145380649Y-105248104D01*
X145380649Y-105248104D02*
X145475887Y-105200485D01*
X145475887Y-105200485D02*
X145618744Y-105200485D01*
X145618744Y-105200485D02*
X145713982Y-105152866D01*
X145713982Y-105152866D02*
X145761601Y-105057628D01*
X145761601Y-105057628D02*
X145761601Y-105010009D01*
X145761601Y-105010009D02*
X145713982Y-104914771D01*
X145713982Y-104914771D02*
X145618744Y-104867152D01*
X145618744Y-104867152D02*
X145475887Y-104867152D01*
X145475887Y-104867152D02*
X145380649Y-104914771D01*
X144523506Y-105486200D02*
X144618744Y-105533819D01*
X144618744Y-105533819D02*
X144809220Y-105533819D01*
X144809220Y-105533819D02*
X144904458Y-105486200D01*
X144904458Y-105486200D02*
X144952077Y-105390961D01*
X144952077Y-105390961D02*
X144952077Y-105010009D01*
X144952077Y-105010009D02*
X144904458Y-104914771D01*
X144904458Y-104914771D02*
X144809220Y-104867152D01*
X144809220Y-104867152D02*
X144618744Y-104867152D01*
X144618744Y-104867152D02*
X144523506Y-104914771D01*
X144523506Y-104914771D02*
X144475887Y-105010009D01*
X144475887Y-105010009D02*
X144475887Y-105105247D01*
X144475887Y-105105247D02*
X144952077Y-105200485D01*
X143142553Y-105533819D02*
X143237791Y-105486200D01*
X143237791Y-105486200D02*
X143285410Y-105438580D01*
X143285410Y-105438580D02*
X143333029Y-105343342D01*
X143333029Y-105343342D02*
X143333029Y-105057628D01*
X143333029Y-105057628D02*
X143285410Y-104962390D01*
X143285410Y-104962390D02*
X143237791Y-104914771D01*
X143237791Y-104914771D02*
X143142553Y-104867152D01*
X143142553Y-104867152D02*
X142999696Y-104867152D01*
X142999696Y-104867152D02*
X142904458Y-104914771D01*
X142904458Y-104914771D02*
X142856839Y-104962390D01*
X142856839Y-104962390D02*
X142809220Y-105057628D01*
X142809220Y-105057628D02*
X142809220Y-105343342D01*
X142809220Y-105343342D02*
X142856839Y-105438580D01*
X142856839Y-105438580D02*
X142904458Y-105486200D01*
X142904458Y-105486200D02*
X142999696Y-105533819D01*
X142999696Y-105533819D02*
X143142553Y-105533819D01*
X142523505Y-104867152D02*
X142142553Y-104867152D01*
X142380648Y-104533819D02*
X142380648Y-105390961D01*
X142380648Y-105390961D02*
X142333029Y-105486200D01*
X142333029Y-105486200D02*
X142237791Y-105533819D01*
X142237791Y-105533819D02*
X142142553Y-105533819D01*
X141809219Y-105533819D02*
X141809219Y-104533819D01*
X141380648Y-105533819D02*
X141380648Y-105010009D01*
X141380648Y-105010009D02*
X141428267Y-104914771D01*
X141428267Y-104914771D02*
X141523505Y-104867152D01*
X141523505Y-104867152D02*
X141666362Y-104867152D01*
X141666362Y-104867152D02*
X141761600Y-104914771D01*
X141761600Y-104914771D02*
X141809219Y-104962390D01*
X140523505Y-105486200D02*
X140618743Y-105533819D01*
X140618743Y-105533819D02*
X140809219Y-105533819D01*
X140809219Y-105533819D02*
X140904457Y-105486200D01*
X140904457Y-105486200D02*
X140952076Y-105390961D01*
X140952076Y-105390961D02*
X140952076Y-105010009D01*
X140952076Y-105010009D02*
X140904457Y-104914771D01*
X140904457Y-104914771D02*
X140809219Y-104867152D01*
X140809219Y-104867152D02*
X140618743Y-104867152D01*
X140618743Y-104867152D02*
X140523505Y-104914771D01*
X140523505Y-104914771D02*
X140475886Y-105010009D01*
X140475886Y-105010009D02*
X140475886Y-105105247D01*
X140475886Y-105105247D02*
X140952076Y-105200485D01*
X140047314Y-105533819D02*
X140047314Y-104867152D01*
X140047314Y-105057628D02*
X139999695Y-104962390D01*
X139999695Y-104962390D02*
X139952076Y-104914771D01*
X139952076Y-104914771D02*
X139856838Y-104867152D01*
X139856838Y-104867152D02*
X139761600Y-104867152D01*
X138713980Y-105486200D02*
X138618742Y-105533819D01*
X138618742Y-105533819D02*
X138428266Y-105533819D01*
X138428266Y-105533819D02*
X138333028Y-105486200D01*
X138333028Y-105486200D02*
X138285409Y-105390961D01*
X138285409Y-105390961D02*
X138285409Y-105343342D01*
X138285409Y-105343342D02*
X138333028Y-105248104D01*
X138333028Y-105248104D02*
X138428266Y-105200485D01*
X138428266Y-105200485D02*
X138571123Y-105200485D01*
X138571123Y-105200485D02*
X138666361Y-105152866D01*
X138666361Y-105152866D02*
X138713980Y-105057628D01*
X138713980Y-105057628D02*
X138713980Y-105010009D01*
X138713980Y-105010009D02*
X138666361Y-104914771D01*
X138666361Y-104914771D02*
X138571123Y-104867152D01*
X138571123Y-104867152D02*
X138428266Y-104867152D01*
X138428266Y-104867152D02*
X138333028Y-104914771D01*
X137856837Y-105533819D02*
X137856837Y-104867152D01*
X137856837Y-104533819D02*
X137904456Y-104581438D01*
X137904456Y-104581438D02*
X137856837Y-104629057D01*
X137856837Y-104629057D02*
X137809218Y-104581438D01*
X137809218Y-104581438D02*
X137856837Y-104533819D01*
X137856837Y-104533819D02*
X137856837Y-104629057D01*
X136952076Y-105533819D02*
X136952076Y-104533819D01*
X136952076Y-105486200D02*
X137047314Y-105533819D01*
X137047314Y-105533819D02*
X137237790Y-105533819D01*
X137237790Y-105533819D02*
X137333028Y-105486200D01*
X137333028Y-105486200D02*
X137380647Y-105438580D01*
X137380647Y-105438580D02*
X137428266Y-105343342D01*
X137428266Y-105343342D02*
X137428266Y-105057628D01*
X137428266Y-105057628D02*
X137380647Y-104962390D01*
X137380647Y-104962390D02*
X137333028Y-104914771D01*
X137333028Y-104914771D02*
X137237790Y-104867152D01*
X137237790Y-104867152D02*
X137047314Y-104867152D01*
X137047314Y-104867152D02*
X136952076Y-104914771D01*
X136094933Y-105486200D02*
X136190171Y-105533819D01*
X136190171Y-105533819D02*
X136380647Y-105533819D01*
X136380647Y-105533819D02*
X136475885Y-105486200D01*
X136475885Y-105486200D02*
X136523504Y-105390961D01*
X136523504Y-105390961D02*
X136523504Y-105010009D01*
X136523504Y-105010009D02*
X136475885Y-104914771D01*
X136475885Y-104914771D02*
X136380647Y-104867152D01*
X136380647Y-104867152D02*
X136190171Y-104867152D01*
X136190171Y-104867152D02*
X136094933Y-104914771D01*
X136094933Y-104914771D02*
X136047314Y-105010009D01*
X136047314Y-105010009D02*
X136047314Y-105105247D01*
X136047314Y-105105247D02*
X136523504Y-105200485D01*
X135618742Y-105438580D02*
X135571123Y-105486200D01*
X135571123Y-105486200D02*
X135618742Y-105533819D01*
X135618742Y-105533819D02*
X135666361Y-105486200D01*
X135666361Y-105486200D02*
X135618742Y-105438580D01*
X135618742Y-105438580D02*
X135618742Y-105533819D01*
X135618742Y-105152866D02*
X135666361Y-104581438D01*
X135666361Y-104581438D02*
X135618742Y-104533819D01*
X135618742Y-104533819D02*
X135571123Y-104581438D01*
X135571123Y-104581438D02*
X135618742Y-105152866D01*
X135618742Y-105152866D02*
X135618742Y-104533819D01*
X153555506Y-75069819D02*
X153555506Y-75784104D01*
X153555506Y-75784104D02*
X153603125Y-75926961D01*
X153603125Y-75926961D02*
X153698363Y-76022200D01*
X153698363Y-76022200D02*
X153841220Y-76069819D01*
X153841220Y-76069819D02*
X153936458Y-76069819D01*
X152603125Y-76069819D02*
X153079315Y-76069819D01*
X153079315Y-76069819D02*
X153079315Y-75069819D01*
X151698363Y-75974580D02*
X151745982Y-76022200D01*
X151745982Y-76022200D02*
X151888839Y-76069819D01*
X151888839Y-76069819D02*
X151984077Y-76069819D01*
X151984077Y-76069819D02*
X152126934Y-76022200D01*
X152126934Y-76022200D02*
X152222172Y-75926961D01*
X152222172Y-75926961D02*
X152269791Y-75831723D01*
X152269791Y-75831723D02*
X152317410Y-75641247D01*
X152317410Y-75641247D02*
X152317410Y-75498390D01*
X152317410Y-75498390D02*
X152269791Y-75307914D01*
X152269791Y-75307914D02*
X152222172Y-75212676D01*
X152222172Y-75212676D02*
X152126934Y-75117438D01*
X152126934Y-75117438D02*
X151984077Y-75069819D01*
X151984077Y-75069819D02*
X151888839Y-75069819D01*
X151888839Y-75069819D02*
X151745982Y-75117438D01*
X151745982Y-75117438D02*
X151698363Y-75165057D01*
X150984077Y-75069819D02*
X150984077Y-75784104D01*
X150984077Y-75784104D02*
X151031696Y-75926961D01*
X151031696Y-75926961D02*
X151126934Y-76022200D01*
X151126934Y-76022200D02*
X151269791Y-76069819D01*
X151269791Y-76069819D02*
X151365029Y-76069819D01*
X150031696Y-76069819D02*
X150507886Y-76069819D01*
X150507886Y-76069819D02*
X150507886Y-75069819D01*
X149126934Y-75974580D02*
X149174553Y-76022200D01*
X149174553Y-76022200D02*
X149317410Y-76069819D01*
X149317410Y-76069819D02*
X149412648Y-76069819D01*
X149412648Y-76069819D02*
X149555505Y-76022200D01*
X149555505Y-76022200D02*
X149650743Y-75926961D01*
X149650743Y-75926961D02*
X149698362Y-75831723D01*
X149698362Y-75831723D02*
X149745981Y-75641247D01*
X149745981Y-75641247D02*
X149745981Y-75498390D01*
X149745981Y-75498390D02*
X149698362Y-75307914D01*
X149698362Y-75307914D02*
X149650743Y-75212676D01*
X149650743Y-75212676D02*
X149555505Y-75117438D01*
X149555505Y-75117438D02*
X149412648Y-75069819D01*
X149412648Y-75069819D02*
X149317410Y-75069819D01*
X149317410Y-75069819D02*
X149174553Y-75117438D01*
X149174553Y-75117438D02*
X149126934Y-75165057D01*
X148412648Y-75069819D02*
X148412648Y-75784104D01*
X148412648Y-75784104D02*
X148460267Y-75926961D01*
X148460267Y-75926961D02*
X148555505Y-76022200D01*
X148555505Y-76022200D02*
X148698362Y-76069819D01*
X148698362Y-76069819D02*
X148793600Y-76069819D01*
X147460267Y-76069819D02*
X147936457Y-76069819D01*
X147936457Y-76069819D02*
X147936457Y-75069819D01*
X146555505Y-75974580D02*
X146603124Y-76022200D01*
X146603124Y-76022200D02*
X146745981Y-76069819D01*
X146745981Y-76069819D02*
X146841219Y-76069819D01*
X146841219Y-76069819D02*
X146984076Y-76022200D01*
X146984076Y-76022200D02*
X147079314Y-75926961D01*
X147079314Y-75926961D02*
X147126933Y-75831723D01*
X147126933Y-75831723D02*
X147174552Y-75641247D01*
X147174552Y-75641247D02*
X147174552Y-75498390D01*
X147174552Y-75498390D02*
X147126933Y-75307914D01*
X147126933Y-75307914D02*
X147079314Y-75212676D01*
X147079314Y-75212676D02*
X146984076Y-75117438D01*
X146984076Y-75117438D02*
X146841219Y-75069819D01*
X146841219Y-75069819D02*
X146745981Y-75069819D01*
X146745981Y-75069819D02*
X146603124Y-75117438D01*
X146603124Y-75117438D02*
X146555505Y-75165057D01*
X145841219Y-75069819D02*
X145841219Y-75784104D01*
X145841219Y-75784104D02*
X145888838Y-75926961D01*
X145888838Y-75926961D02*
X145984076Y-76022200D01*
X145984076Y-76022200D02*
X146126933Y-76069819D01*
X146126933Y-76069819D02*
X146222171Y-76069819D01*
X144888838Y-76069819D02*
X145365028Y-76069819D01*
X145365028Y-76069819D02*
X145365028Y-75069819D01*
X143984076Y-75974580D02*
X144031695Y-76022200D01*
X144031695Y-76022200D02*
X144174552Y-76069819D01*
X144174552Y-76069819D02*
X144269790Y-76069819D01*
X144269790Y-76069819D02*
X144412647Y-76022200D01*
X144412647Y-76022200D02*
X144507885Y-75926961D01*
X144507885Y-75926961D02*
X144555504Y-75831723D01*
X144555504Y-75831723D02*
X144603123Y-75641247D01*
X144603123Y-75641247D02*
X144603123Y-75498390D01*
X144603123Y-75498390D02*
X144555504Y-75307914D01*
X144555504Y-75307914D02*
X144507885Y-75212676D01*
X144507885Y-75212676D02*
X144412647Y-75117438D01*
X144412647Y-75117438D02*
X144269790Y-75069819D01*
X144269790Y-75069819D02*
X144174552Y-75069819D01*
X144174552Y-75069819D02*
X144031695Y-75117438D01*
X144031695Y-75117438D02*
X143984076Y-75165057D01*
D11*
X190273374Y-102106838D02*
X190940041Y-101154457D01*
X191416231Y-102106838D02*
X191416231Y-100106838D01*
X191416231Y-100106838D02*
X190654326Y-100106838D01*
X190654326Y-100106838D02*
X190463850Y-100202076D01*
X190463850Y-100202076D02*
X190368612Y-100297314D01*
X190368612Y-100297314D02*
X190273374Y-100487790D01*
X190273374Y-100487790D02*
X190273374Y-100773504D01*
X190273374Y-100773504D02*
X190368612Y-100963980D01*
X190368612Y-100963980D02*
X190463850Y-101059219D01*
X190463850Y-101059219D02*
X190654326Y-101154457D01*
X190654326Y-101154457D02*
X191416231Y-101154457D01*
X188559088Y-102106838D02*
X188559088Y-101059219D01*
X188559088Y-101059219D02*
X188654326Y-100868742D01*
X188654326Y-100868742D02*
X188844802Y-100773504D01*
X188844802Y-100773504D02*
X189225755Y-100773504D01*
X189225755Y-100773504D02*
X189416231Y-100868742D01*
X188559088Y-102011600D02*
X188749564Y-102106838D01*
X188749564Y-102106838D02*
X189225755Y-102106838D01*
X189225755Y-102106838D02*
X189416231Y-102011600D01*
X189416231Y-102011600D02*
X189511469Y-101821123D01*
X189511469Y-101821123D02*
X189511469Y-101630647D01*
X189511469Y-101630647D02*
X189416231Y-101440171D01*
X189416231Y-101440171D02*
X189225755Y-101344933D01*
X189225755Y-101344933D02*
X188749564Y-101344933D01*
X188749564Y-101344933D02*
X188559088Y-101249695D01*
X187701945Y-102011600D02*
X187511469Y-102106838D01*
X187511469Y-102106838D02*
X187130517Y-102106838D01*
X187130517Y-102106838D02*
X186940040Y-102011600D01*
X186940040Y-102011600D02*
X186844802Y-101821123D01*
X186844802Y-101821123D02*
X186844802Y-101725885D01*
X186844802Y-101725885D02*
X186940040Y-101535409D01*
X186940040Y-101535409D02*
X187130517Y-101440171D01*
X187130517Y-101440171D02*
X187416231Y-101440171D01*
X187416231Y-101440171D02*
X187606707Y-101344933D01*
X187606707Y-101344933D02*
X187701945Y-101154457D01*
X187701945Y-101154457D02*
X187701945Y-101059219D01*
X187701945Y-101059219D02*
X187606707Y-100868742D01*
X187606707Y-100868742D02*
X187416231Y-100773504D01*
X187416231Y-100773504D02*
X187130517Y-100773504D01*
X187130517Y-100773504D02*
X186940040Y-100868742D01*
X185987659Y-100773504D02*
X185987659Y-102773504D01*
X185987659Y-100868742D02*
X185797183Y-100773504D01*
X185797183Y-100773504D02*
X185416230Y-100773504D01*
X185416230Y-100773504D02*
X185225754Y-100868742D01*
X185225754Y-100868742D02*
X185130516Y-100963980D01*
X185130516Y-100963980D02*
X185035278Y-101154457D01*
X185035278Y-101154457D02*
X185035278Y-101725885D01*
X185035278Y-101725885D02*
X185130516Y-101916361D01*
X185130516Y-101916361D02*
X185225754Y-102011600D01*
X185225754Y-102011600D02*
X185416230Y-102106838D01*
X185416230Y-102106838D02*
X185797183Y-102106838D01*
X185797183Y-102106838D02*
X185987659Y-102011600D01*
X184178135Y-102106838D02*
X184178135Y-100106838D01*
X184178135Y-100868742D02*
X183987659Y-100773504D01*
X183987659Y-100773504D02*
X183606706Y-100773504D01*
X183606706Y-100773504D02*
X183416230Y-100868742D01*
X183416230Y-100868742D02*
X183320992Y-100963980D01*
X183320992Y-100963980D02*
X183225754Y-101154457D01*
X183225754Y-101154457D02*
X183225754Y-101725885D01*
X183225754Y-101725885D02*
X183320992Y-101916361D01*
X183320992Y-101916361D02*
X183416230Y-102011600D01*
X183416230Y-102011600D02*
X183606706Y-102106838D01*
X183606706Y-102106838D02*
X183987659Y-102106838D01*
X183987659Y-102106838D02*
X184178135Y-102011600D01*
X181606706Y-102011600D02*
X181797182Y-102106838D01*
X181797182Y-102106838D02*
X182178135Y-102106838D01*
X182178135Y-102106838D02*
X182368611Y-102011600D01*
X182368611Y-102011600D02*
X182463849Y-101821123D01*
X182463849Y-101821123D02*
X182463849Y-101059219D01*
X182463849Y-101059219D02*
X182368611Y-100868742D01*
X182368611Y-100868742D02*
X182178135Y-100773504D01*
X182178135Y-100773504D02*
X181797182Y-100773504D01*
X181797182Y-100773504D02*
X181606706Y-100868742D01*
X181606706Y-100868742D02*
X181511468Y-101059219D01*
X181511468Y-101059219D02*
X181511468Y-101249695D01*
X181511468Y-101249695D02*
X182463849Y-101440171D01*
X180654325Y-102106838D02*
X180654325Y-100773504D01*
X180654325Y-101154457D02*
X180559087Y-100963980D01*
X180559087Y-100963980D02*
X180463849Y-100868742D01*
X180463849Y-100868742D02*
X180273373Y-100773504D01*
X180273373Y-100773504D02*
X180082896Y-100773504D01*
X179416230Y-102106838D02*
X179416230Y-100773504D01*
X179416230Y-101154457D02*
X179320992Y-100963980D01*
X179320992Y-100963980D02*
X179225754Y-100868742D01*
X179225754Y-100868742D02*
X179035278Y-100773504D01*
X179035278Y-100773504D02*
X178844801Y-100773504D01*
X178368611Y-100773504D02*
X177892421Y-102106838D01*
X177416230Y-100773504D02*
X177892421Y-102106838D01*
X177892421Y-102106838D02*
X178082897Y-102583028D01*
X178082897Y-102583028D02*
X178178135Y-102678266D01*
X178178135Y-102678266D02*
X178368611Y-102773504D01*
X175130515Y-102106838D02*
X175130515Y-100106838D01*
X175130515Y-100106838D02*
X174368610Y-100106838D01*
X174368610Y-100106838D02*
X174178134Y-100202076D01*
X174178134Y-100202076D02*
X174082896Y-100297314D01*
X174082896Y-100297314D02*
X173987658Y-100487790D01*
X173987658Y-100487790D02*
X173987658Y-100773504D01*
X173987658Y-100773504D02*
X174082896Y-100963980D01*
X174082896Y-100963980D02*
X174178134Y-101059219D01*
X174178134Y-101059219D02*
X174368610Y-101154457D01*
X174368610Y-101154457D02*
X175130515Y-101154457D01*
X173130515Y-102106838D02*
X173130515Y-100773504D01*
X173130515Y-100106838D02*
X173225753Y-100202076D01*
X173225753Y-100202076D02*
X173130515Y-100297314D01*
X173130515Y-100297314D02*
X173035277Y-100202076D01*
X173035277Y-100202076D02*
X173130515Y-100106838D01*
X173130515Y-100106838D02*
X173130515Y-100297314D01*
X169797181Y-100773504D02*
X169797181Y-102106838D01*
X170273372Y-100011600D02*
X170749562Y-101440171D01*
X170749562Y-101440171D02*
X169511467Y-101440171D01*
X166368609Y-100773504D02*
X166368609Y-102392552D01*
X166368609Y-102392552D02*
X166463847Y-102583028D01*
X166463847Y-102583028D02*
X166559085Y-102678266D01*
X166559085Y-102678266D02*
X166749562Y-102773504D01*
X166749562Y-102773504D02*
X167035276Y-102773504D01*
X167035276Y-102773504D02*
X167225752Y-102678266D01*
X166368609Y-102011600D02*
X166559085Y-102106838D01*
X166559085Y-102106838D02*
X166940038Y-102106838D01*
X166940038Y-102106838D02*
X167130514Y-102011600D01*
X167130514Y-102011600D02*
X167225752Y-101916361D01*
X167225752Y-101916361D02*
X167320990Y-101725885D01*
X167320990Y-101725885D02*
X167320990Y-101154457D01*
X167320990Y-101154457D02*
X167225752Y-100963980D01*
X167225752Y-100963980D02*
X167130514Y-100868742D01*
X167130514Y-100868742D02*
X166940038Y-100773504D01*
X166940038Y-100773504D02*
X166559085Y-100773504D01*
X166559085Y-100773504D02*
X166368609Y-100868742D01*
X165130514Y-102106838D02*
X165320990Y-102011600D01*
X165320990Y-102011600D02*
X165416228Y-101916361D01*
X165416228Y-101916361D02*
X165511466Y-101725885D01*
X165511466Y-101725885D02*
X165511466Y-101154457D01*
X165511466Y-101154457D02*
X165416228Y-100963980D01*
X165416228Y-100963980D02*
X165320990Y-100868742D01*
X165320990Y-100868742D02*
X165130514Y-100773504D01*
X165130514Y-100773504D02*
X164844799Y-100773504D01*
X164844799Y-100773504D02*
X164654323Y-100868742D01*
X164654323Y-100868742D02*
X164559085Y-100963980D01*
X164559085Y-100963980D02*
X164463847Y-101154457D01*
X164463847Y-101154457D02*
X164463847Y-101725885D01*
X164463847Y-101725885D02*
X164559085Y-101916361D01*
X164559085Y-101916361D02*
X164654323Y-102011600D01*
X164654323Y-102011600D02*
X164844799Y-102106838D01*
X164844799Y-102106838D02*
X165130514Y-102106838D01*
X162844799Y-102011600D02*
X163035275Y-102106838D01*
X163035275Y-102106838D02*
X163416228Y-102106838D01*
X163416228Y-102106838D02*
X163606704Y-102011600D01*
X163606704Y-102011600D02*
X163701942Y-101821123D01*
X163701942Y-101821123D02*
X163701942Y-101059219D01*
X163701942Y-101059219D02*
X163606704Y-100868742D01*
X163606704Y-100868742D02*
X163416228Y-100773504D01*
X163416228Y-100773504D02*
X163035275Y-100773504D01*
X163035275Y-100773504D02*
X162844799Y-100868742D01*
X162844799Y-100868742D02*
X162749561Y-101059219D01*
X162749561Y-101059219D02*
X162749561Y-101249695D01*
X162749561Y-101249695D02*
X163701942Y-101440171D01*
X161987656Y-102011600D02*
X161797180Y-102106838D01*
X161797180Y-102106838D02*
X161416228Y-102106838D01*
X161416228Y-102106838D02*
X161225751Y-102011600D01*
X161225751Y-102011600D02*
X161130513Y-101821123D01*
X161130513Y-101821123D02*
X161130513Y-101725885D01*
X161130513Y-101725885D02*
X161225751Y-101535409D01*
X161225751Y-101535409D02*
X161416228Y-101440171D01*
X161416228Y-101440171D02*
X161701942Y-101440171D01*
X161701942Y-101440171D02*
X161892418Y-101344933D01*
X161892418Y-101344933D02*
X161987656Y-101154457D01*
X161987656Y-101154457D02*
X161987656Y-101059219D01*
X161987656Y-101059219D02*
X161892418Y-100868742D01*
X161892418Y-100868742D02*
X161701942Y-100773504D01*
X161701942Y-100773504D02*
X161416228Y-100773504D01*
X161416228Y-100773504D02*
X161225751Y-100868742D01*
X158749560Y-102106838D02*
X158749560Y-100106838D01*
X157892417Y-102106838D02*
X157892417Y-101059219D01*
X157892417Y-101059219D02*
X157987655Y-100868742D01*
X157987655Y-100868742D02*
X158178131Y-100773504D01*
X158178131Y-100773504D02*
X158463846Y-100773504D01*
X158463846Y-100773504D02*
X158654322Y-100868742D01*
X158654322Y-100868742D02*
X158749560Y-100963980D01*
X156178131Y-102011600D02*
X156368607Y-102106838D01*
X156368607Y-102106838D02*
X156749560Y-102106838D01*
X156749560Y-102106838D02*
X156940036Y-102011600D01*
X156940036Y-102011600D02*
X157035274Y-101821123D01*
X157035274Y-101821123D02*
X157035274Y-101059219D01*
X157035274Y-101059219D02*
X156940036Y-100868742D01*
X156940036Y-100868742D02*
X156749560Y-100773504D01*
X156749560Y-100773504D02*
X156368607Y-100773504D01*
X156368607Y-100773504D02*
X156178131Y-100868742D01*
X156178131Y-100868742D02*
X156082893Y-101059219D01*
X156082893Y-101059219D02*
X156082893Y-101249695D01*
X156082893Y-101249695D02*
X157035274Y-101440171D01*
X155225750Y-102106838D02*
X155225750Y-100773504D01*
X155225750Y-101154457D02*
X155130512Y-100963980D01*
X155130512Y-100963980D02*
X155035274Y-100868742D01*
X155035274Y-100868742D02*
X154844798Y-100773504D01*
X154844798Y-100773504D02*
X154654321Y-100773504D01*
X153225750Y-102011600D02*
X153416226Y-102106838D01*
X153416226Y-102106838D02*
X153797179Y-102106838D01*
X153797179Y-102106838D02*
X153987655Y-102011600D01*
X153987655Y-102011600D02*
X154082893Y-101821123D01*
X154082893Y-101821123D02*
X154082893Y-101059219D01*
X154082893Y-101059219D02*
X153987655Y-100868742D01*
X153987655Y-100868742D02*
X153797179Y-100773504D01*
X153797179Y-100773504D02*
X153416226Y-100773504D01*
X153416226Y-100773504D02*
X153225750Y-100868742D01*
X153225750Y-100868742D02*
X153130512Y-101059219D01*
X153130512Y-101059219D02*
X153130512Y-101249695D01*
X153130512Y-101249695D02*
X154082893Y-101440171D01*
D10*
X208590412Y-125316429D02*
X209304697Y-125316429D01*
X209304697Y-125316429D02*
X209447554Y-125268810D01*
X209447554Y-125268810D02*
X209542793Y-125173572D01*
X209542793Y-125173572D02*
X209590412Y-125030715D01*
X209590412Y-125030715D02*
X209590412Y-124935477D01*
X209590412Y-126316429D02*
X209590412Y-125745001D01*
X209590412Y-126030715D02*
X208590412Y-126030715D01*
X208590412Y-126030715D02*
X208733269Y-125935477D01*
X208733269Y-125935477D02*
X208828507Y-125840239D01*
X208828507Y-125840239D02*
X208876126Y-125745001D01*
D12*
%TO.C,J1*%
X156775593Y-128249763D02*
X156775593Y-123049763D01*
X207695593Y-128249763D02*
X156775593Y-128249763D01*
X207695593Y-128249763D02*
X207695593Y-125649763D01*
X205095593Y-125649763D02*
X205095593Y-123049763D01*
X207695593Y-125649763D02*
X205095593Y-125649763D01*
X207695593Y-124379763D02*
X207695593Y-123049763D01*
X205095593Y-123049763D02*
X156775593Y-123049763D01*
X207695593Y-123049763D02*
X206365593Y-123049763D01*
%TD*%
%LPC*%
D11*
X126912781Y-126625565D02*
X126912781Y-127292232D01*
X125865162Y-127292232D02*
X127865162Y-127292232D01*
X127865162Y-127292232D02*
X127865162Y-126339851D01*
X125865162Y-125577946D02*
X127198496Y-125577946D01*
X127865162Y-125577946D02*
X127769924Y-125673184D01*
X127769924Y-125673184D02*
X127674686Y-125577946D01*
X127674686Y-125577946D02*
X127769924Y-125482708D01*
X127769924Y-125482708D02*
X127865162Y-125577946D01*
X127865162Y-125577946D02*
X127674686Y-125577946D01*
X125865162Y-124339851D02*
X125960401Y-124530327D01*
X125960401Y-124530327D02*
X126150877Y-124625565D01*
X126150877Y-124625565D02*
X127865162Y-124625565D01*
X125865162Y-123577946D02*
X127198496Y-123577946D01*
X127008020Y-123577946D02*
X127103258Y-123482708D01*
X127103258Y-123482708D02*
X127198496Y-123292232D01*
X127198496Y-123292232D02*
X127198496Y-123006517D01*
X127198496Y-123006517D02*
X127103258Y-122816041D01*
X127103258Y-122816041D02*
X126912781Y-122720803D01*
X126912781Y-122720803D02*
X125865162Y-122720803D01*
X126912781Y-122720803D02*
X127103258Y-122625565D01*
X127103258Y-122625565D02*
X127198496Y-122435089D01*
X127198496Y-122435089D02*
X127198496Y-122149375D01*
X127198496Y-122149375D02*
X127103258Y-121958898D01*
X127103258Y-121958898D02*
X126912781Y-121863660D01*
X126912781Y-121863660D02*
X125865162Y-121863660D01*
X125865162Y-120911279D02*
X127865162Y-120911279D01*
X126627067Y-120720803D02*
X125865162Y-120149374D01*
X127198496Y-120149374D02*
X126436591Y-120911279D01*
X125865162Y-119006517D02*
X125960401Y-119196993D01*
X125960401Y-119196993D02*
X126055639Y-119292231D01*
X126055639Y-119292231D02*
X126246115Y-119387469D01*
X126246115Y-119387469D02*
X126817543Y-119387469D01*
X126817543Y-119387469D02*
X127008020Y-119292231D01*
X127008020Y-119292231D02*
X127103258Y-119196993D01*
X127103258Y-119196993D02*
X127198496Y-119006517D01*
X127198496Y-119006517D02*
X127198496Y-118720802D01*
X127198496Y-118720802D02*
X127103258Y-118530326D01*
X127103258Y-118530326D02*
X127008020Y-118435088D01*
X127008020Y-118435088D02*
X126817543Y-118339850D01*
X126817543Y-118339850D02*
X126246115Y-118339850D01*
X126246115Y-118339850D02*
X126055639Y-118435088D01*
X126055639Y-118435088D02*
X125960401Y-118530326D01*
X125960401Y-118530326D02*
X125865162Y-118720802D01*
X125865162Y-118720802D02*
X125865162Y-119006517D01*
X125865162Y-117482707D02*
X127198496Y-117482707D01*
X126817543Y-117482707D02*
X127008020Y-117387469D01*
X127008020Y-117387469D02*
X127103258Y-117292231D01*
X127103258Y-117292231D02*
X127198496Y-117101755D01*
X127198496Y-117101755D02*
X127198496Y-116911278D01*
X127198496Y-116244612D02*
X125865162Y-116244612D01*
X127008020Y-116244612D02*
X127103258Y-116149374D01*
X127103258Y-116149374D02*
X127198496Y-115958898D01*
X127198496Y-115958898D02*
X127198496Y-115673183D01*
X127198496Y-115673183D02*
X127103258Y-115482707D01*
X127103258Y-115482707D02*
X126912781Y-115387469D01*
X126912781Y-115387469D02*
X125865162Y-115387469D01*
X126627067Y-114435088D02*
X126627067Y-112911279D01*
X125960401Y-112054136D02*
X125865162Y-111768422D01*
X125865162Y-111768422D02*
X125865162Y-111292231D01*
X125865162Y-111292231D02*
X125960401Y-111101755D01*
X125960401Y-111101755D02*
X126055639Y-111006517D01*
X126055639Y-111006517D02*
X126246115Y-110911279D01*
X126246115Y-110911279D02*
X126436591Y-110911279D01*
X126436591Y-110911279D02*
X126627067Y-111006517D01*
X126627067Y-111006517D02*
X126722305Y-111101755D01*
X126722305Y-111101755D02*
X126817543Y-111292231D01*
X126817543Y-111292231D02*
X126912781Y-111673184D01*
X126912781Y-111673184D02*
X127008020Y-111863660D01*
X127008020Y-111863660D02*
X127103258Y-111958898D01*
X127103258Y-111958898D02*
X127293734Y-112054136D01*
X127293734Y-112054136D02*
X127484210Y-112054136D01*
X127484210Y-112054136D02*
X127674686Y-111958898D01*
X127674686Y-111958898D02*
X127769924Y-111863660D01*
X127769924Y-111863660D02*
X127865162Y-111673184D01*
X127865162Y-111673184D02*
X127865162Y-111196993D01*
X127865162Y-111196993D02*
X127769924Y-110911279D01*
X125960401Y-109196993D02*
X125865162Y-109387469D01*
X125865162Y-109387469D02*
X125865162Y-109768422D01*
X125865162Y-109768422D02*
X125960401Y-109958898D01*
X125960401Y-109958898D02*
X126055639Y-110054136D01*
X126055639Y-110054136D02*
X126246115Y-110149374D01*
X126246115Y-110149374D02*
X126817543Y-110149374D01*
X126817543Y-110149374D02*
X127008020Y-110054136D01*
X127008020Y-110054136D02*
X127103258Y-109958898D01*
X127103258Y-109958898D02*
X127198496Y-109768422D01*
X127198496Y-109768422D02*
X127198496Y-109387469D01*
X127198496Y-109387469D02*
X127103258Y-109196993D01*
X125865162Y-107482707D02*
X126912781Y-107482707D01*
X126912781Y-107482707D02*
X127103258Y-107577945D01*
X127103258Y-107577945D02*
X127198496Y-107768421D01*
X127198496Y-107768421D02*
X127198496Y-108149374D01*
X127198496Y-108149374D02*
X127103258Y-108339850D01*
X125960401Y-107482707D02*
X125865162Y-107673183D01*
X125865162Y-107673183D02*
X125865162Y-108149374D01*
X125865162Y-108149374D02*
X125960401Y-108339850D01*
X125960401Y-108339850D02*
X126150877Y-108435088D01*
X126150877Y-108435088D02*
X126341353Y-108435088D01*
X126341353Y-108435088D02*
X126531829Y-108339850D01*
X126531829Y-108339850D02*
X126627067Y-108149374D01*
X126627067Y-108149374D02*
X126627067Y-107673183D01*
X126627067Y-107673183D02*
X126722305Y-107482707D01*
X127198496Y-106530326D02*
X125865162Y-106530326D01*
X127008020Y-106530326D02*
X127103258Y-106435088D01*
X127103258Y-106435088D02*
X127198496Y-106244612D01*
X127198496Y-106244612D02*
X127198496Y-105958897D01*
X127198496Y-105958897D02*
X127103258Y-105768421D01*
X127103258Y-105768421D02*
X126912781Y-105673183D01*
X126912781Y-105673183D02*
X125865162Y-105673183D01*
X127198496Y-104720802D02*
X125865162Y-104720802D01*
X127008020Y-104720802D02*
X127103258Y-104625564D01*
X127103258Y-104625564D02*
X127198496Y-104435088D01*
X127198496Y-104435088D02*
X127198496Y-104149373D01*
X127198496Y-104149373D02*
X127103258Y-103958897D01*
X127103258Y-103958897D02*
X126912781Y-103863659D01*
X126912781Y-103863659D02*
X125865162Y-103863659D01*
X125960401Y-102149373D02*
X125865162Y-102339849D01*
X125865162Y-102339849D02*
X125865162Y-102720802D01*
X125865162Y-102720802D02*
X125960401Y-102911278D01*
X125960401Y-102911278D02*
X126150877Y-103006516D01*
X126150877Y-103006516D02*
X126912781Y-103006516D01*
X126912781Y-103006516D02*
X127103258Y-102911278D01*
X127103258Y-102911278D02*
X127198496Y-102720802D01*
X127198496Y-102720802D02*
X127198496Y-102339849D01*
X127198496Y-102339849D02*
X127103258Y-102149373D01*
X127103258Y-102149373D02*
X126912781Y-102054135D01*
X126912781Y-102054135D02*
X126722305Y-102054135D01*
X126722305Y-102054135D02*
X126531829Y-103006516D01*
X125865162Y-101196992D02*
X127198496Y-101196992D01*
X126817543Y-101196992D02*
X127008020Y-101101754D01*
X127008020Y-101101754D02*
X127103258Y-101006516D01*
X127103258Y-101006516D02*
X127198496Y-100816040D01*
X127198496Y-100816040D02*
X127198496Y-100625563D01*
X122645162Y-127292232D02*
X124645162Y-127292232D01*
X123883258Y-127292232D02*
X123978496Y-127101756D01*
X123978496Y-127101756D02*
X123978496Y-126720803D01*
X123978496Y-126720803D02*
X123883258Y-126530327D01*
X123883258Y-126530327D02*
X123788020Y-126435089D01*
X123788020Y-126435089D02*
X123597543Y-126339851D01*
X123597543Y-126339851D02*
X123026115Y-126339851D01*
X123026115Y-126339851D02*
X122835639Y-126435089D01*
X122835639Y-126435089D02*
X122740401Y-126530327D01*
X122740401Y-126530327D02*
X122645162Y-126720803D01*
X122645162Y-126720803D02*
X122645162Y-127101756D01*
X122645162Y-127101756D02*
X122740401Y-127292232D01*
X123978496Y-125673184D02*
X122645162Y-125196994D01*
X123978496Y-124720803D02*
X122645162Y-125196994D01*
X122645162Y-125196994D02*
X122168972Y-125387470D01*
X122168972Y-125387470D02*
X122073734Y-125482708D01*
X122073734Y-125482708D02*
X121978496Y-125673184D01*
X123978496Y-122720802D02*
X123978496Y-121958898D01*
X122645162Y-122435088D02*
X124359448Y-122435088D01*
X124359448Y-122435088D02*
X124549924Y-122339850D01*
X124549924Y-122339850D02*
X124645162Y-122149374D01*
X124645162Y-122149374D02*
X124645162Y-121958898D01*
X122645162Y-121292231D02*
X123978496Y-121292231D01*
X124645162Y-121292231D02*
X124549924Y-121387469D01*
X124549924Y-121387469D02*
X124454686Y-121292231D01*
X124454686Y-121292231D02*
X124549924Y-121196993D01*
X124549924Y-121196993D02*
X124645162Y-121292231D01*
X124645162Y-121292231D02*
X124454686Y-121292231D01*
X122645162Y-120054136D02*
X122740401Y-120244612D01*
X122740401Y-120244612D02*
X122930877Y-120339850D01*
X122930877Y-120339850D02*
X124645162Y-120339850D01*
X122645162Y-119292231D02*
X123978496Y-119292231D01*
X123788020Y-119292231D02*
X123883258Y-119196993D01*
X123883258Y-119196993D02*
X123978496Y-119006517D01*
X123978496Y-119006517D02*
X123978496Y-118720802D01*
X123978496Y-118720802D02*
X123883258Y-118530326D01*
X123883258Y-118530326D02*
X123692781Y-118435088D01*
X123692781Y-118435088D02*
X122645162Y-118435088D01*
X123692781Y-118435088D02*
X123883258Y-118339850D01*
X123883258Y-118339850D02*
X123978496Y-118149374D01*
X123978496Y-118149374D02*
X123978496Y-117863660D01*
X123978496Y-117863660D02*
X123883258Y-117673183D01*
X123883258Y-117673183D02*
X123692781Y-117577945D01*
X123692781Y-117577945D02*
X122645162Y-117577945D01*
X122645162Y-116625564D02*
X124645162Y-116625564D01*
X123407067Y-116435088D02*
X122645162Y-115863659D01*
X123978496Y-115863659D02*
X123216591Y-116625564D01*
X122645162Y-114720802D02*
X122740401Y-114911278D01*
X122740401Y-114911278D02*
X122835639Y-115006516D01*
X122835639Y-115006516D02*
X123026115Y-115101754D01*
X123026115Y-115101754D02*
X123597543Y-115101754D01*
X123597543Y-115101754D02*
X123788020Y-115006516D01*
X123788020Y-115006516D02*
X123883258Y-114911278D01*
X123883258Y-114911278D02*
X123978496Y-114720802D01*
X123978496Y-114720802D02*
X123978496Y-114435087D01*
X123978496Y-114435087D02*
X123883258Y-114244611D01*
X123883258Y-114244611D02*
X123788020Y-114149373D01*
X123788020Y-114149373D02*
X123597543Y-114054135D01*
X123597543Y-114054135D02*
X123026115Y-114054135D01*
X123026115Y-114054135D02*
X122835639Y-114149373D01*
X122835639Y-114149373D02*
X122740401Y-114244611D01*
X122740401Y-114244611D02*
X122645162Y-114435087D01*
X122645162Y-114435087D02*
X122645162Y-114720802D01*
X122645162Y-113196992D02*
X123978496Y-113196992D01*
X123597543Y-113196992D02*
X123788020Y-113101754D01*
X123788020Y-113101754D02*
X123883258Y-113006516D01*
X123883258Y-113006516D02*
X123978496Y-112816040D01*
X123978496Y-112816040D02*
X123978496Y-112625563D01*
X123978496Y-111958897D02*
X122645162Y-111958897D01*
X123788020Y-111958897D02*
X123883258Y-111863659D01*
X123883258Y-111863659D02*
X123978496Y-111673183D01*
X123978496Y-111673183D02*
X123978496Y-111387468D01*
X123978496Y-111387468D02*
X123883258Y-111196992D01*
X123883258Y-111196992D02*
X123692781Y-111101754D01*
X123692781Y-111101754D02*
X122645162Y-111101754D01*
X122835639Y-110149373D02*
X122740401Y-110054135D01*
X122740401Y-110054135D02*
X122645162Y-110149373D01*
X122645162Y-110149373D02*
X122740401Y-110244611D01*
X122740401Y-110244611D02*
X122835639Y-110149373D01*
X122835639Y-110149373D02*
X122645162Y-110149373D01*
X122645162Y-108911278D02*
X122740401Y-109101754D01*
X122740401Y-109101754D02*
X122835639Y-109196992D01*
X122835639Y-109196992D02*
X123026115Y-109292230D01*
X123026115Y-109292230D02*
X123597543Y-109292230D01*
X123597543Y-109292230D02*
X123788020Y-109196992D01*
X123788020Y-109196992D02*
X123883258Y-109101754D01*
X123883258Y-109101754D02*
X123978496Y-108911278D01*
X123978496Y-108911278D02*
X123978496Y-108625563D01*
X123978496Y-108625563D02*
X123883258Y-108435087D01*
X123883258Y-108435087D02*
X123788020Y-108339849D01*
X123788020Y-108339849D02*
X123597543Y-108244611D01*
X123597543Y-108244611D02*
X123026115Y-108244611D01*
X123026115Y-108244611D02*
X122835639Y-108339849D01*
X122835639Y-108339849D02*
X122740401Y-108435087D01*
X122740401Y-108435087D02*
X122645162Y-108625563D01*
X122645162Y-108625563D02*
X122645162Y-108911278D01*
X122645162Y-107387468D02*
X123978496Y-107387468D01*
X123597543Y-107387468D02*
X123788020Y-107292230D01*
X123788020Y-107292230D02*
X123883258Y-107196992D01*
X123883258Y-107196992D02*
X123978496Y-107006516D01*
X123978496Y-107006516D02*
X123978496Y-106816039D01*
X123978496Y-105292230D02*
X122359448Y-105292230D01*
X122359448Y-105292230D02*
X122168972Y-105387468D01*
X122168972Y-105387468D02*
X122073734Y-105482706D01*
X122073734Y-105482706D02*
X121978496Y-105673183D01*
X121978496Y-105673183D02*
X121978496Y-105958897D01*
X121978496Y-105958897D02*
X122073734Y-106149373D01*
X122740401Y-105292230D02*
X122645162Y-105482706D01*
X122645162Y-105482706D02*
X122645162Y-105863659D01*
X122645162Y-105863659D02*
X122740401Y-106054135D01*
X122740401Y-106054135D02*
X122835639Y-106149373D01*
X122835639Y-106149373D02*
X123026115Y-106244611D01*
X123026115Y-106244611D02*
X123597543Y-106244611D01*
X123597543Y-106244611D02*
X123788020Y-106149373D01*
X123788020Y-106149373D02*
X123883258Y-106054135D01*
X123883258Y-106054135D02*
X123978496Y-105863659D01*
X123978496Y-105863659D02*
X123978496Y-105482706D01*
X123978496Y-105482706D02*
X123883258Y-105292230D01*
X124454686Y-102911277D02*
X124549924Y-102816039D01*
X124549924Y-102816039D02*
X124645162Y-102625563D01*
X124645162Y-102625563D02*
X124645162Y-102149372D01*
X124645162Y-102149372D02*
X124549924Y-101958896D01*
X124549924Y-101958896D02*
X124454686Y-101863658D01*
X124454686Y-101863658D02*
X124264210Y-101768420D01*
X124264210Y-101768420D02*
X124073734Y-101768420D01*
X124073734Y-101768420D02*
X123788020Y-101863658D01*
X123788020Y-101863658D02*
X122645162Y-103006515D01*
X122645162Y-103006515D02*
X122645162Y-101768420D01*
X124645162Y-100530325D02*
X124645162Y-100339848D01*
X124645162Y-100339848D02*
X124549924Y-100149372D01*
X124549924Y-100149372D02*
X124454686Y-100054134D01*
X124454686Y-100054134D02*
X124264210Y-99958896D01*
X124264210Y-99958896D02*
X123883258Y-99863658D01*
X123883258Y-99863658D02*
X123407067Y-99863658D01*
X123407067Y-99863658D02*
X123026115Y-99958896D01*
X123026115Y-99958896D02*
X122835639Y-100054134D01*
X122835639Y-100054134D02*
X122740401Y-100149372D01*
X122740401Y-100149372D02*
X122645162Y-100339848D01*
X122645162Y-100339848D02*
X122645162Y-100530325D01*
X122645162Y-100530325D02*
X122740401Y-100720801D01*
X122740401Y-100720801D02*
X122835639Y-100816039D01*
X122835639Y-100816039D02*
X123026115Y-100911277D01*
X123026115Y-100911277D02*
X123407067Y-101006515D01*
X123407067Y-101006515D02*
X123883258Y-101006515D01*
X123883258Y-101006515D02*
X124264210Y-100911277D01*
X124264210Y-100911277D02*
X124454686Y-100816039D01*
X124454686Y-100816039D02*
X124549924Y-100720801D01*
X124549924Y-100720801D02*
X124645162Y-100530325D01*
X124454686Y-99101753D02*
X124549924Y-99006515D01*
X124549924Y-99006515D02*
X124645162Y-98816039D01*
X124645162Y-98816039D02*
X124645162Y-98339848D01*
X124645162Y-98339848D02*
X124549924Y-98149372D01*
X124549924Y-98149372D02*
X124454686Y-98054134D01*
X124454686Y-98054134D02*
X124264210Y-97958896D01*
X124264210Y-97958896D02*
X124073734Y-97958896D01*
X124073734Y-97958896D02*
X123788020Y-98054134D01*
X123788020Y-98054134D02*
X122645162Y-99196991D01*
X122645162Y-99196991D02*
X122645162Y-97958896D01*
X124645162Y-97292229D02*
X124645162Y-96054134D01*
X124645162Y-96054134D02*
X123883258Y-96720801D01*
X123883258Y-96720801D02*
X123883258Y-96435086D01*
X123883258Y-96435086D02*
X123788020Y-96244610D01*
X123788020Y-96244610D02*
X123692781Y-96149372D01*
X123692781Y-96149372D02*
X123502305Y-96054134D01*
X123502305Y-96054134D02*
X123026115Y-96054134D01*
X123026115Y-96054134D02*
X122835639Y-96149372D01*
X122835639Y-96149372D02*
X122740401Y-96244610D01*
X122740401Y-96244610D02*
X122645162Y-96435086D01*
X122645162Y-96435086D02*
X122645162Y-97006515D01*
X122645162Y-97006515D02*
X122740401Y-97196991D01*
X122740401Y-97196991D02*
X122835639Y-97292229D01*
X123597543Y-93101752D02*
X123216591Y-93101752D01*
X123216591Y-93006514D02*
X123597543Y-93006514D01*
X123692781Y-92911276D02*
X123121353Y-92911276D01*
X123216591Y-92816038D02*
X123597543Y-92816038D01*
X123597543Y-92720800D02*
X123216591Y-92720800D01*
X123311829Y-93101752D02*
X123121353Y-92911276D01*
X123121353Y-92911276D02*
X123311829Y-92720800D01*
X123502305Y-93101752D02*
X123692781Y-92911276D01*
X123692781Y-92911276D02*
X123502305Y-92720800D01*
X123597543Y-93101752D02*
X123692781Y-92911276D01*
X123692781Y-92911276D02*
X123597543Y-92720800D01*
X123597543Y-92720800D02*
X123407067Y-92625562D01*
X123407067Y-92625562D02*
X123216591Y-92720800D01*
X123216591Y-92720800D02*
X123121353Y-92911276D01*
X123121353Y-92911276D02*
X123216591Y-93101752D01*
X123216591Y-93101752D02*
X123407067Y-93196991D01*
X123407067Y-93196991D02*
X123597543Y-93101752D01*
X122645162Y-88530324D02*
X123597543Y-89196991D01*
X122645162Y-89673181D02*
X124645162Y-89673181D01*
X124645162Y-89673181D02*
X124645162Y-88911276D01*
X124645162Y-88911276D02*
X124549924Y-88720800D01*
X124549924Y-88720800D02*
X124454686Y-88625562D01*
X124454686Y-88625562D02*
X124264210Y-88530324D01*
X124264210Y-88530324D02*
X123978496Y-88530324D01*
X123978496Y-88530324D02*
X123788020Y-88625562D01*
X123788020Y-88625562D02*
X123692781Y-88720800D01*
X123692781Y-88720800D02*
X123597543Y-88911276D01*
X123597543Y-88911276D02*
X123597543Y-89673181D01*
X122740401Y-86911276D02*
X122645162Y-87101752D01*
X122645162Y-87101752D02*
X122645162Y-87482705D01*
X122645162Y-87482705D02*
X122740401Y-87673181D01*
X122740401Y-87673181D02*
X122930877Y-87768419D01*
X122930877Y-87768419D02*
X123692781Y-87768419D01*
X123692781Y-87768419D02*
X123883258Y-87673181D01*
X123883258Y-87673181D02*
X123978496Y-87482705D01*
X123978496Y-87482705D02*
X123978496Y-87101752D01*
X123978496Y-87101752D02*
X123883258Y-86911276D01*
X123883258Y-86911276D02*
X123692781Y-86816038D01*
X123692781Y-86816038D02*
X123502305Y-86816038D01*
X123502305Y-86816038D02*
X123311829Y-87768419D01*
X123978496Y-86149371D02*
X122645162Y-85673181D01*
X122645162Y-85673181D02*
X123978496Y-85196990D01*
X122835639Y-84435085D02*
X122740401Y-84339847D01*
X122740401Y-84339847D02*
X122645162Y-84435085D01*
X122645162Y-84435085D02*
X122740401Y-84530323D01*
X122740401Y-84530323D02*
X122835639Y-84435085D01*
X122835639Y-84435085D02*
X122645162Y-84435085D01*
X123216591Y-82054132D02*
X123216591Y-81101751D01*
X122645162Y-82244608D02*
X124645162Y-81577942D01*
X124645162Y-81577942D02*
X122645162Y-80911275D01*
D13*
%TO.C,SW5*%
X170623593Y-142159763D03*
X179623593Y-142159763D03*
D14*
X172583593Y-148409763D03*
X172583593Y-135909763D03*
X177663593Y-148409763D03*
X177663593Y-135909763D03*
%TD*%
D15*
%TO.C,TP7*%
X156327593Y-108377763D03*
%TD*%
D16*
%TO.C,CN3*%
X220853000Y-120269000D03*
D17*
X225933000Y-120269000D03*
D16*
X220853000Y-117729000D03*
X225933000Y-117729000D03*
X220853000Y-115189000D03*
X225933000Y-115189000D03*
%TD*%
%TO.C,CN4*%
X220843593Y-109855000D03*
D17*
X225923593Y-109855000D03*
D16*
X220843593Y-107315000D03*
X225923593Y-107315000D03*
X220843593Y-104775000D03*
X225923593Y-104775000D03*
%TD*%
D18*
%TO.C,RV5*%
X197358000Y-62738000D03*
X199858000Y-62738000D03*
X202358000Y-62738000D03*
%TD*%
D19*
%TO.C,TP1*%
X207300000Y-61700000D03*
%TD*%
D20*
%TO.C,SW11*%
X222724000Y-60489000D03*
X219724000Y-60489000D03*
%TD*%
D13*
%TO.C,SW4*%
X157923593Y-142159763D03*
X166923593Y-142159763D03*
D14*
X159883593Y-148409763D03*
X159883593Y-135909763D03*
X164963593Y-148409763D03*
X164963593Y-135909763D03*
%TD*%
D21*
%TO.C,REF\u002A\u002A*%
X209318000Y-46502000D03*
D22*
X209318000Y-46502000D03*
%TD*%
D23*
%TO.C,J2*%
X196500000Y-131200000D03*
D24*
X193960000Y-131200000D03*
%TD*%
D13*
%TO.C,SW3*%
X145223593Y-142159763D03*
X154223593Y-142159763D03*
D14*
X147183593Y-148409763D03*
X147183593Y-135909763D03*
X152263593Y-148409763D03*
X152263593Y-135909763D03*
%TD*%
D23*
%TO.C,J6*%
X223510000Y-54018500D03*
D24*
X220970000Y-54018500D03*
X218430000Y-54018500D03*
%TD*%
D23*
%TO.C,J4*%
X124900000Y-57760000D03*
D24*
X124900000Y-60300000D03*
X124900000Y-62840000D03*
X124900000Y-65380000D03*
X124900000Y-67920000D03*
X124900000Y-70460000D03*
%TD*%
D25*
%TO.C,REF\u002A\u002A*%
X122302944Y-136150000D03*
X123005888Y-134452944D03*
X123005888Y-137847056D03*
X124702944Y-133750000D03*
D26*
X124702944Y-136150000D03*
D25*
X124702944Y-138550000D03*
X126400000Y-134452944D03*
X126400000Y-137847056D03*
X127102944Y-136150000D03*
%TD*%
D23*
%TO.C,J3*%
X150425593Y-109261763D03*
D24*
X150425593Y-111801763D03*
X147885593Y-109261763D03*
X147885593Y-111801763D03*
X145345593Y-109261763D03*
X145345593Y-111801763D03*
%TD*%
D27*
%TO.C,CN5*%
X219583000Y-86614000D03*
D28*
X227203000Y-86614000D03*
D27*
X219583000Y-81534000D03*
X227203000Y-81534000D03*
%TD*%
D15*
%TO.C,TP8*%
X142240000Y-106853763D03*
%TD*%
D18*
%TO.C,RV3*%
X176570000Y-62738000D03*
X179070000Y-62738000D03*
X181570000Y-62738000D03*
%TD*%
D29*
%TO.C,RV1*%
X168148000Y-62992000D03*
X165608000Y-62992000D03*
X163068000Y-62992000D03*
D30*
X160608000Y-66292000D03*
X170608000Y-66292000D03*
%TD*%
D13*
%TO.C,SW9*%
X221423593Y-142159763D03*
X230423593Y-142159763D03*
D14*
X223383593Y-148409763D03*
X223383593Y-135909763D03*
X228463593Y-148409763D03*
X228463593Y-135909763D03*
%TD*%
D31*
%TO.C,TP3*%
X173345593Y-130729763D03*
%TD*%
D27*
%TO.C,CN1*%
X219573593Y-73660000D03*
D28*
X227193593Y-73660000D03*
D27*
X219573593Y-68580000D03*
X227193593Y-68580000D03*
%TD*%
D31*
%TO.C,TP6*%
X189500000Y-130600000D03*
%TD*%
D13*
%TO.C,SW8*%
X208723593Y-142159763D03*
X217723593Y-142159763D03*
D14*
X210683593Y-148409763D03*
X210683593Y-135909763D03*
X215763593Y-148409763D03*
X215763593Y-135909763D03*
%TD*%
D15*
%TO.C,TP9*%
X158867593Y-96693763D03*
%TD*%
D31*
%TO.C,TP4*%
X170805593Y-130729763D03*
%TD*%
D32*
%TO.C,U5*%
X209398593Y-83028000D03*
X209398593Y-84328000D03*
X209398593Y-85628000D03*
X210698593Y-83028000D03*
X210698593Y-84328000D03*
X210698593Y-85628000D03*
%TD*%
D29*
%TO.C,SW10*%
X138562000Y-58030000D03*
X134062000Y-58030000D03*
D14*
X132502000Y-60570000D03*
X140122000Y-60570000D03*
%TD*%
D25*
%TO.C,REFe*%
X235402944Y-136150000D03*
X236105888Y-134452944D03*
X236105888Y-137847056D03*
X237802944Y-133750000D03*
D26*
X237802944Y-136150000D03*
D25*
X237802944Y-138550000D03*
X239500000Y-134452944D03*
X239500000Y-137847056D03*
X240202944Y-136150000D03*
%TD*%
D16*
%TO.C,CN6*%
X220843593Y-99441000D03*
D17*
X225923593Y-99441000D03*
D16*
X220843593Y-96901000D03*
X225923593Y-96901000D03*
X220843593Y-94361000D03*
X225923593Y-94361000D03*
%TD*%
D25*
%TO.C,REFee*%
X235400000Y-49200000D03*
X236102944Y-47502944D03*
X236102944Y-50897056D03*
X237800000Y-46800000D03*
D26*
X237800000Y-49200000D03*
D25*
X237800000Y-51600000D03*
X239497056Y-47502944D03*
X239497056Y-50897056D03*
X240200000Y-49200000D03*
%TD*%
D16*
%TO.C,CN2*%
X220843593Y-130729763D03*
D17*
X225923593Y-130729763D03*
D16*
X220843593Y-128189763D03*
X225923593Y-128189763D03*
X220843593Y-125649763D03*
X225923593Y-125649763D03*
%TD*%
D13*
%TO.C,SW2*%
X132523593Y-142159763D03*
X141523593Y-142159763D03*
D14*
X134483593Y-148409763D03*
X134483593Y-135909763D03*
X139563593Y-148409763D03*
X139563593Y-135909763D03*
%TD*%
D25*
%TO.C,REF\u002A\u002A*%
X122302944Y-49200000D03*
X123005888Y-47502944D03*
X123005888Y-50897056D03*
X124702944Y-46800000D03*
D26*
X124702944Y-49200000D03*
D25*
X124702944Y-51600000D03*
X126400000Y-47502944D03*
X126400000Y-50897056D03*
X127102944Y-49200000D03*
%TD*%
D13*
%TO.C,SW6*%
X183323593Y-142159763D03*
X192323593Y-142159763D03*
D14*
X185283593Y-148409763D03*
X185283593Y-135909763D03*
X190363593Y-148409763D03*
X190363593Y-135909763D03*
%TD*%
D13*
%TO.C,SW7*%
X196023593Y-142159763D03*
X205023593Y-142159763D03*
D14*
X197983593Y-148409763D03*
X197983593Y-135909763D03*
X203063593Y-148409763D03*
X203063593Y-135909763D03*
%TD*%
D21*
%TO.C,REF\u002A\u002A*%
X221002000Y-46502000D03*
D22*
X221002000Y-46502000D03*
%TD*%
D19*
%TO.C,TP2*%
X211328000Y-61700000D03*
%TD*%
D29*
%TO.C,RV2*%
X152400000Y-62992000D03*
X149860000Y-62992000D03*
X147320000Y-62992000D03*
D30*
X144860000Y-66292000D03*
X154860000Y-66292000D03*
%TD*%
D23*
%TO.C,J7*%
X230523500Y-57404000D03*
D24*
X230523500Y-59944000D03*
X230523500Y-62484000D03*
%TD*%
D23*
%TO.C,J5*%
X211858000Y-54018500D03*
D24*
X209318000Y-54018500D03*
X206778000Y-54018500D03*
%TD*%
D18*
%TO.C,RV4*%
X186984000Y-62738000D03*
X189484000Y-62738000D03*
X191984000Y-62738000D03*
%TD*%
D23*
%TO.C,J1*%
X206365593Y-124379763D03*
D24*
X206365593Y-126919763D03*
X203825593Y-124379763D03*
X203825593Y-126919763D03*
X201285593Y-124379763D03*
X201285593Y-126919763D03*
X198745593Y-124379763D03*
X198745593Y-126919763D03*
X196205593Y-124379763D03*
X196205593Y-126919763D03*
X193665593Y-124379763D03*
X193665593Y-126919763D03*
X191125593Y-124379763D03*
X191125593Y-126919763D03*
X188585593Y-124379763D03*
X188585593Y-126919763D03*
X186045593Y-124379763D03*
X186045593Y-126919763D03*
X183505593Y-124379763D03*
X183505593Y-126919763D03*
X180965593Y-124379763D03*
X180965593Y-126919763D03*
X178425593Y-124379763D03*
X178425593Y-126919763D03*
X175885593Y-124379763D03*
X175885593Y-126919763D03*
X173345593Y-124379763D03*
X173345593Y-126919763D03*
X170805593Y-124379763D03*
X170805593Y-126919763D03*
X168265593Y-124379763D03*
X168265593Y-126919763D03*
X165725593Y-124379763D03*
X165725593Y-126919763D03*
X163185593Y-124379763D03*
X163185593Y-126919763D03*
X160645593Y-124379763D03*
X160645593Y-126919763D03*
X158105593Y-124379763D03*
X158105593Y-126919763D03*
%TD*%
%LPD*%
M02*
