%TF.GenerationSoftware,KiCad,Pcbnew,7.0.9-29-ge2d8d53a10*%
%TF.CreationDate,2023-11-20T00:12:08+01:00*%
%TF.ProjectId,scan-controller-kicad,7363616e-2d63-46f6-9e74-726f6c6c6572,rev?*%
%TF.SameCoordinates,Original*%
%TF.FileFunction,Soldermask,Top*%
%TF.FilePolarity,Negative*%
%FSLAX46Y46*%
G04 Gerber Fmt 4.6, Leading zero omitted, Abs format (unit mm)*
G04 Created by KiCad (PCBNEW 7.0.9-29-ge2d8d53a10) date 2023-11-20 00:12:08*
%MOMM*%
%LPD*%
G01*
G04 APERTURE LIST*
G04 Aperture macros list*
%AMRoundRect*
0 Rectangle with rounded corners*
0 $1 Rounding radius*
0 $2 $3 $4 $5 $6 $7 $8 $9 X,Y pos of 4 corners*
0 Add a 4 corners polygon primitive as box body*
4,1,4,$2,$3,$4,$5,$6,$7,$8,$9,$2,$3,0*
0 Add four circle primitives for the rounded corners*
1,1,$1+$1,$2,$3*
1,1,$1+$1,$4,$5*
1,1,$1+$1,$6,$7*
1,1,$1+$1,$8,$9*
0 Add four rect primitives between the rounded corners*
20,1,$1+$1,$2,$3,$4,$5,0*
20,1,$1+$1,$4,$5,$6,$7,0*
20,1,$1+$1,$6,$7,$8,$9,0*
20,1,$1+$1,$8,$9,$2,$3,0*%
%AMFreePoly0*
4,1,9,3.862500,-0.866500,0.737500,-0.866500,0.737500,-0.450000,-0.737500,-0.450000,-0.737500,0.450000,0.737500,0.450000,0.737500,0.866500,3.862500,0.866500,3.862500,-0.866500,3.862500,-0.866500,$1*%
G04 Aperture macros list end*
%ADD10C,0.120000*%
%ADD11C,0.150000*%
%ADD12C,0.250000*%
%ADD13C,0.200000*%
%ADD14C,2.230261*%
%ADD15C,1.528521*%
%ADD16C,0.500000*%
%ADD17C,0.400000*%
%ADD18C,1.800000*%
%ADD19C,2.000000*%
%ADD20R,1.500000X1.500000*%
%ADD21C,2.100000*%
%ADD22R,2.100000X2.100000*%
%ADD23RoundRect,0.250000X0.250000X0.475000X-0.250000X0.475000X-0.250000X-0.475000X0.250000X-0.475000X0*%
%ADD24C,1.520000*%
%ADD25RoundRect,0.250000X-1.000000X-0.650000X1.000000X-0.650000X1.000000X0.650000X-1.000000X0.650000X0*%
%ADD26R,1.000000X0.750000*%
%ADD27RoundRect,0.250000X0.475000X-0.250000X0.475000X0.250000X-0.475000X0.250000X-0.475000X-0.250000X0*%
%ADD28RoundRect,0.250000X1.425000X-0.362500X1.425000X0.362500X-1.425000X0.362500X-1.425000X-0.362500X0*%
%ADD29RoundRect,0.250000X0.450000X-0.262500X0.450000X0.262500X-0.450000X0.262500X-0.450000X-0.262500X0*%
%ADD30RoundRect,0.250000X-0.262500X-0.450000X0.262500X-0.450000X0.262500X0.450000X-0.262500X0.450000X0*%
%ADD31R,2.000000X2.000000*%
%ADD32RoundRect,0.243750X0.243750X0.456250X-0.243750X0.456250X-0.243750X-0.456250X0.243750X-0.456250X0*%
%ADD33RoundRect,0.150000X-0.825000X-0.150000X0.825000X-0.150000X0.825000X0.150000X-0.825000X0.150000X0*%
%ADD34R,1.300000X0.900000*%
%ADD35FreePoly0,0.000000*%
%ADD36C,0.900000*%
%ADD37R,1.000000X1.000000*%
%ADD38R,1.000000X1.400000*%
%ADD39RoundRect,0.250000X-0.250000X-0.475000X0.250000X-0.475000X0.250000X0.475000X-0.250000X0.475000X0*%
%ADD40RoundRect,0.250000X0.262500X0.450000X-0.262500X0.450000X-0.262500X-0.450000X0.262500X-0.450000X0*%
%ADD41C,2.600000*%
%ADD42C,3.500000*%
%ADD43R,1.700000X1.700000*%
%ADD44O,1.700000X1.700000*%
%ADD45RoundRect,0.150000X-0.587500X-0.150000X0.587500X-0.150000X0.587500X0.150000X-0.587500X0.150000X0*%
%ADD46RoundRect,0.250000X-0.325000X-0.650000X0.325000X-0.650000X0.325000X0.650000X-0.325000X0.650000X0*%
%ADD47RoundRect,0.243750X-0.243750X-0.456250X0.243750X-0.456250X0.243750X0.456250X-0.243750X0.456250X0*%
%ADD48RoundRect,0.250000X-0.300000X0.300000X-0.300000X-0.300000X0.300000X-0.300000X0.300000X0.300000X0*%
%ADD49C,0.800000*%
%ADD50C,6.400000*%
%ADD51C,2.200000*%
%ADD52R,2.200000X2.200000*%
%ADD53RoundRect,0.150000X0.587500X0.150000X-0.587500X0.150000X-0.587500X-0.150000X0.587500X-0.150000X0*%
%ADD54C,1.700000*%
%ADD55O,3.000000X3.300000*%
%ADD56RoundRect,0.135000X-0.185000X0.135000X-0.185000X-0.135000X0.185000X-0.135000X0.185000X0.135000X0*%
%ADD57RoundRect,0.243750X-0.456250X0.243750X-0.456250X-0.243750X0.456250X-0.243750X0.456250X0.243750X0*%
%ADD58RoundRect,0.250000X1.500000X0.550000X-1.500000X0.550000X-1.500000X-0.550000X1.500000X-0.550000X0*%
%ADD59RoundRect,0.250000X-0.475000X0.250000X-0.475000X-0.250000X0.475000X-0.250000X0.475000X0.250000X0*%
%ADD60RoundRect,0.150000X0.150000X-0.825000X0.150000X0.825000X-0.150000X0.825000X-0.150000X-0.825000X0*%
%ADD61R,1.600000X5.000000*%
%ADD62R,2.100000X1.800000*%
%ADD63R,3.250000X4.500000*%
%ADD64RoundRect,0.150000X0.150000X-0.512500X0.150000X0.512500X-0.150000X0.512500X-0.150000X-0.512500X0*%
%ADD65R,1.200000X0.700000*%
%ADD66R,2.400000X3.100000*%
%ADD67RoundRect,0.070000X-1.100000X-0.250000X1.100000X-0.250000X1.100000X0.250000X-1.100000X0.250000X0*%
%ADD68C,0.770000*%
%ADD69RoundRect,0.150000X0.150000X-0.587500X0.150000X0.587500X-0.150000X0.587500X-0.150000X-0.587500X0*%
%ADD70R,2.400000X2.000000*%
%ADD71R,1.600000X0.550000*%
%ADD72R,0.550000X1.600000*%
%ADD73RoundRect,0.250000X-0.450000X0.262500X-0.450000X-0.262500X0.450000X-0.262500X0.450000X0.262500X0*%
%ADD74RoundRect,0.250000X-0.300000X2.050000X-0.300000X-2.050000X0.300000X-2.050000X0.300000X2.050000X0*%
%ADD75RoundRect,0.250002X-5.149998X4.449998X-5.149998X-4.449998X5.149998X-4.449998X5.149998X4.449998X0*%
G04 APERTURE END LIST*
D10*
X140716000Y-79121000D02*
G75*
G03*
X138965047Y-80275541I0J-1905000D01*
G01*
D11*
X166267548Y-154686000D02*
X162203548Y-152908000D01*
X166267548Y-151130000D01*
X166267548Y-154686000D01*
G36*
X166267548Y-154686000D02*
G01*
X162203548Y-152908000D01*
X166267548Y-151130000D01*
X166267548Y-154686000D01*
G37*
D10*
X151637999Y-77216000D02*
G75*
G03*
X150497178Y-75556095I-1777999J0D01*
G01*
D11*
X176530000Y-154686000D02*
X172466000Y-152908000D01*
X176530000Y-151130000D01*
X176530000Y-154686000D01*
G36*
X176530000Y-154686000D02*
G01*
X172466000Y-152908000D01*
X176530000Y-151130000D01*
X176530000Y-154686000D01*
G37*
D10*
X149860000Y-79628999D02*
G75*
G03*
X152108170Y-78092525I0J2412999D01*
G01*
X149860000Y-79882999D02*
G75*
G03*
X152332798Y-78215076I0J2666999D01*
G01*
X147447001Y-77216000D02*
G75*
G03*
X148983475Y-79464170I2412999J0D01*
G01*
D11*
X148786462Y-151335484D02*
G75*
G03*
X147988834Y-152400000I311538J-1064516D01*
G01*
D10*
X149860000Y-75057000D02*
G75*
G03*
X147839047Y-76456374I0J-2159000D01*
G01*
D12*
X138269182Y-150393400D02*
X137811982Y-151155400D01*
D13*
X130656000Y-155448000D02*
X130656000Y-150368000D01*
D10*
X149860000Y-79375000D02*
G75*
G03*
X151880953Y-77975626I0J2159000D01*
G01*
X149860000Y-79247999D02*
G75*
G03*
X151746682Y-77970619I0J2031999D01*
G01*
X152145999Y-77216000D02*
G75*
G03*
X150731127Y-75102489I-2285999J0D01*
G01*
D13*
X168755406Y-155448000D02*
X168755406Y-150368000D01*
D10*
X147320001Y-77216000D02*
G75*
G03*
X148982943Y-79599771I2539999J0D01*
G01*
X151891999Y-77216000D02*
G75*
G03*
X150614619Y-75329318I-2031999J0D01*
G01*
X149860000Y-74676001D02*
G75*
G03*
X147476229Y-76338943I0J-2539999D01*
G01*
X142366999Y-81026000D02*
G75*
G03*
X141307665Y-79484660I-1650999J0D01*
G01*
D11*
X152782427Y-154432000D02*
X152400000Y-154940000D01*
X150622000Y-153670000D01*
X150876000Y-153162000D01*
X152782427Y-154432000D01*
G36*
X152782427Y-154432000D02*
G01*
X152400000Y-154940000D01*
X150622000Y-153670000D01*
X150876000Y-153162000D01*
X152782427Y-154432000D01*
G37*
X161877096Y-154686000D02*
X157813096Y-152908000D01*
X161877096Y-151130000D01*
X161877096Y-154686000D01*
G36*
X161877096Y-154686000D02*
G01*
X157813096Y-152908000D01*
X161877096Y-151130000D01*
X161877096Y-154686000D01*
G37*
D10*
X152019000Y-77216000D02*
G75*
G03*
X150619626Y-75195047I-2159000J0D01*
G01*
X138938001Y-81026000D02*
G75*
G03*
X140078822Y-82685905I1777999J0D01*
G01*
X152399999Y-77216000D02*
G75*
G03*
X150737057Y-74832229I-2539999J0D01*
G01*
X140716000Y-82803999D02*
G75*
G03*
X142375905Y-81663178I0J1777999D01*
G01*
X149860000Y-79755999D02*
G75*
G03*
X152243771Y-78093057I0J2539999D01*
G01*
X147574001Y-77216000D02*
G75*
G03*
X148988873Y-79329511I2285999J0D01*
G01*
X147701000Y-77216000D02*
G75*
G03*
X149100374Y-79236953I2159000J0D01*
G01*
D11*
X213287548Y-152908000D02*
X209223548Y-154686000D01*
X209223548Y-151130000D01*
X213287548Y-152908000D01*
G36*
X213287548Y-152908000D02*
G01*
X209223548Y-154686000D01*
X209223548Y-151130000D01*
X213287548Y-152908000D01*
G37*
D10*
X149860000Y-75184001D02*
G75*
G03*
X147973318Y-76461381I0J-2031999D01*
G01*
X149860000Y-75438001D02*
G75*
G03*
X148200095Y-76578822I0J-1777999D01*
G01*
X148082001Y-77216000D02*
G75*
G03*
X149222822Y-78875905I1777999J0D01*
G01*
D14*
X227175130Y-152908000D02*
G75*
G03*
X227175130Y-152908000I-1115130J0D01*
G01*
D15*
X137624389Y-152786577D02*
G75*
G03*
X137624389Y-152786577I-764260J0D01*
G01*
D10*
X140716000Y-82676999D02*
G75*
G03*
X142257340Y-81617665I0J1650999D01*
G01*
D12*
X136372600Y-154127200D02*
X137388600Y-154127200D01*
X137388600Y-155143200D01*
X136372600Y-155143200D01*
X136372600Y-154127200D01*
D10*
X149860000Y-78867000D02*
G75*
G03*
X151384220Y-77850472I0J1651000D01*
G01*
X149860000Y-78993999D02*
G75*
G03*
X151519905Y-77853178I0J1777999D01*
G01*
X142493999Y-81026000D02*
G75*
G03*
X141353178Y-79366095I-1777999J0D01*
G01*
D13*
X206855406Y-155448000D02*
X206855406Y-150368000D01*
D10*
X140716000Y-79248001D02*
G75*
G03*
X139056095Y-80388822I0J-1777999D01*
G01*
X152526999Y-77216000D02*
G75*
G03*
X150859076Y-74743202I-2666999J0D01*
G01*
D12*
X134977532Y-152786577D02*
X134065482Y-152786577D01*
D10*
X139065001Y-81026000D02*
G75*
G03*
X140124335Y-82567340I1650999J0D01*
G01*
X151765000Y-77216000D02*
G75*
G03*
X150610459Y-75465047I-1905000J0D01*
G01*
D13*
X219556000Y-155448000D02*
X219556000Y-150368000D01*
D10*
X149860000Y-74930001D02*
G75*
G03*
X147746489Y-76344873I0J-2285999D01*
G01*
X148209000Y-77216000D02*
G75*
G03*
X149225528Y-78740220I1651000J0D01*
G01*
D16*
X172466000Y-151257000D02*
X172466000Y-154559000D01*
D10*
X147828001Y-77216000D02*
G75*
G03*
X149105381Y-79102682I2031999J0D01*
G01*
D13*
X232156000Y-155448000D02*
X232156000Y-150368000D01*
D10*
X142621000Y-81026000D02*
G75*
G03*
X141466459Y-79275047I-1905000J0D01*
G01*
X138811000Y-81026000D02*
G75*
G03*
X139965541Y-82776953I1905000J0D01*
G01*
X147193001Y-77216000D02*
G75*
G03*
X148860924Y-79688798I2666999J0D01*
G01*
X147955000Y-77216000D02*
G75*
G03*
X149109541Y-78966953I1905000J0D01*
G01*
D12*
X136626600Y-155498800D02*
X137134600Y-155498800D01*
D11*
X202806092Y-152908000D02*
X198742092Y-154686000D01*
X198742092Y-151130000D01*
X202806092Y-152908000D01*
G36*
X202806092Y-152908000D02*
G01*
X198742092Y-154686000D01*
X198742092Y-151130000D01*
X202806092Y-152908000D01*
G37*
D12*
X135915400Y-151155400D02*
X135458200Y-150393400D01*
D13*
X181455406Y-155448000D02*
X181455406Y-150368000D01*
D12*
X136860129Y-150903980D02*
X136860129Y-149991930D01*
X139661900Y-152786577D02*
X138749850Y-152786577D01*
D11*
X186182000Y-151130000D02*
X189738000Y-151130000D01*
X189738000Y-154686000D01*
X186182000Y-154686000D01*
X186182000Y-151130000D01*
G36*
X186182000Y-151130000D02*
G01*
X189738000Y-151130000D01*
X189738000Y-154686000D01*
X186182000Y-154686000D01*
X186182000Y-151130000D01*
G37*
D17*
X149149154Y-154287244D02*
G75*
G03*
X149098000Y-154287958I-51154J1832294D01*
G01*
D10*
X149860000Y-79501999D02*
G75*
G03*
X151973511Y-78087127I0J2285999D01*
G01*
X149860000Y-75311000D02*
G75*
G03*
X148109047Y-76465541I0J-1905000D01*
G01*
D12*
X138523182Y-153670000D02*
X139335982Y-154101800D01*
X135229600Y-151841200D02*
X134442200Y-151384000D01*
D13*
X143356000Y-155448000D02*
X143356000Y-150368000D01*
D10*
X149860000Y-79121000D02*
G75*
G03*
X151610953Y-77966459I0J1905000D01*
G01*
D16*
X202806092Y-151257000D02*
X202806092Y-154559000D01*
D12*
X134391400Y-154101800D02*
X135204200Y-153670000D01*
D10*
X140716000Y-79375001D02*
G75*
G03*
X139174660Y-80434335I0J-1650999D01*
G01*
D13*
X156056000Y-155448000D02*
X156056000Y-150368000D01*
D10*
X152272999Y-77216000D02*
G75*
G03*
X150736525Y-74967830I-2412999J0D01*
G01*
X140716000Y-82931000D02*
G75*
G03*
X142466953Y-81776459I0J1905000D01*
G01*
X149860000Y-75565000D02*
G75*
G03*
X148335780Y-76581528I0J-1651000D01*
G01*
X149860000Y-74803001D02*
G75*
G03*
X147611830Y-76339475I0J-2412999D01*
G01*
D11*
X217678000Y-152908000D02*
X213614000Y-154686000D01*
X213614000Y-151130000D01*
X217678000Y-152908000D01*
G36*
X217678000Y-152908000D02*
G01*
X213614000Y-154686000D01*
X213614000Y-151130000D01*
X217678000Y-152908000D01*
G37*
D10*
X149860000Y-74549001D02*
G75*
G03*
X147387202Y-76216924I0J-2666999D01*
G01*
D12*
X139285182Y-151384000D02*
X138497782Y-151841200D01*
D13*
X194155406Y-155448000D02*
X194155406Y-150368000D01*
D10*
X151511000Y-77216000D02*
G75*
G03*
X150494472Y-75691780I-1651000J0D01*
G01*
D13*
X126912781Y-81774434D02*
X126912781Y-81107767D01*
X125865162Y-81107767D02*
X127865162Y-81107767D01*
X127865162Y-81107767D02*
X127865162Y-82060148D01*
X125865162Y-82822053D02*
X127198496Y-82822053D01*
X127865162Y-82822053D02*
X127769924Y-82726815D01*
X127769924Y-82726815D02*
X127674686Y-82822053D01*
X127674686Y-82822053D02*
X127769924Y-82917291D01*
X127769924Y-82917291D02*
X127865162Y-82822053D01*
X127865162Y-82822053D02*
X127674686Y-82822053D01*
X125865162Y-84060148D02*
X125960401Y-83869672D01*
X125960401Y-83869672D02*
X126150877Y-83774434D01*
X126150877Y-83774434D02*
X127865162Y-83774434D01*
X125865162Y-84822053D02*
X127198496Y-84822053D01*
X127008020Y-84822053D02*
X127103258Y-84917291D01*
X127103258Y-84917291D02*
X127198496Y-85107767D01*
X127198496Y-85107767D02*
X127198496Y-85393482D01*
X127198496Y-85393482D02*
X127103258Y-85583958D01*
X127103258Y-85583958D02*
X126912781Y-85679196D01*
X126912781Y-85679196D02*
X125865162Y-85679196D01*
X126912781Y-85679196D02*
X127103258Y-85774434D01*
X127103258Y-85774434D02*
X127198496Y-85964910D01*
X127198496Y-85964910D02*
X127198496Y-86250624D01*
X127198496Y-86250624D02*
X127103258Y-86441101D01*
X127103258Y-86441101D02*
X126912781Y-86536339D01*
X126912781Y-86536339D02*
X125865162Y-86536339D01*
X125865162Y-87488720D02*
X127865162Y-87488720D01*
X126627067Y-87679196D02*
X125865162Y-88250625D01*
X127198496Y-88250625D02*
X126436591Y-87488720D01*
X125865162Y-89393482D02*
X125960401Y-89203006D01*
X125960401Y-89203006D02*
X126055639Y-89107768D01*
X126055639Y-89107768D02*
X126246115Y-89012530D01*
X126246115Y-89012530D02*
X126817543Y-89012530D01*
X126817543Y-89012530D02*
X127008020Y-89107768D01*
X127008020Y-89107768D02*
X127103258Y-89203006D01*
X127103258Y-89203006D02*
X127198496Y-89393482D01*
X127198496Y-89393482D02*
X127198496Y-89679197D01*
X127198496Y-89679197D02*
X127103258Y-89869673D01*
X127103258Y-89869673D02*
X127008020Y-89964911D01*
X127008020Y-89964911D02*
X126817543Y-90060149D01*
X126817543Y-90060149D02*
X126246115Y-90060149D01*
X126246115Y-90060149D02*
X126055639Y-89964911D01*
X126055639Y-89964911D02*
X125960401Y-89869673D01*
X125960401Y-89869673D02*
X125865162Y-89679197D01*
X125865162Y-89679197D02*
X125865162Y-89393482D01*
X125865162Y-90917292D02*
X127198496Y-90917292D01*
X126817543Y-90917292D02*
X127008020Y-91012530D01*
X127008020Y-91012530D02*
X127103258Y-91107768D01*
X127103258Y-91107768D02*
X127198496Y-91298244D01*
X127198496Y-91298244D02*
X127198496Y-91488721D01*
X127198496Y-92155387D02*
X125865162Y-92155387D01*
X127008020Y-92155387D02*
X127103258Y-92250625D01*
X127103258Y-92250625D02*
X127198496Y-92441101D01*
X127198496Y-92441101D02*
X127198496Y-92726816D01*
X127198496Y-92726816D02*
X127103258Y-92917292D01*
X127103258Y-92917292D02*
X126912781Y-93012530D01*
X126912781Y-93012530D02*
X125865162Y-93012530D01*
X126627067Y-93964911D02*
X126627067Y-95488721D01*
X125960401Y-96345863D02*
X125865162Y-96631577D01*
X125865162Y-96631577D02*
X125865162Y-97107768D01*
X125865162Y-97107768D02*
X125960401Y-97298244D01*
X125960401Y-97298244D02*
X126055639Y-97393482D01*
X126055639Y-97393482D02*
X126246115Y-97488720D01*
X126246115Y-97488720D02*
X126436591Y-97488720D01*
X126436591Y-97488720D02*
X126627067Y-97393482D01*
X126627067Y-97393482D02*
X126722305Y-97298244D01*
X126722305Y-97298244D02*
X126817543Y-97107768D01*
X126817543Y-97107768D02*
X126912781Y-96726815D01*
X126912781Y-96726815D02*
X127008020Y-96536339D01*
X127008020Y-96536339D02*
X127103258Y-96441101D01*
X127103258Y-96441101D02*
X127293734Y-96345863D01*
X127293734Y-96345863D02*
X127484210Y-96345863D01*
X127484210Y-96345863D02*
X127674686Y-96441101D01*
X127674686Y-96441101D02*
X127769924Y-96536339D01*
X127769924Y-96536339D02*
X127865162Y-96726815D01*
X127865162Y-96726815D02*
X127865162Y-97203006D01*
X127865162Y-97203006D02*
X127769924Y-97488720D01*
X125960401Y-99203006D02*
X125865162Y-99012530D01*
X125865162Y-99012530D02*
X125865162Y-98631577D01*
X125865162Y-98631577D02*
X125960401Y-98441101D01*
X125960401Y-98441101D02*
X126055639Y-98345863D01*
X126055639Y-98345863D02*
X126246115Y-98250625D01*
X126246115Y-98250625D02*
X126817543Y-98250625D01*
X126817543Y-98250625D02*
X127008020Y-98345863D01*
X127008020Y-98345863D02*
X127103258Y-98441101D01*
X127103258Y-98441101D02*
X127198496Y-98631577D01*
X127198496Y-98631577D02*
X127198496Y-99012530D01*
X127198496Y-99012530D02*
X127103258Y-99203006D01*
X125865162Y-100917292D02*
X126912781Y-100917292D01*
X126912781Y-100917292D02*
X127103258Y-100822054D01*
X127103258Y-100822054D02*
X127198496Y-100631578D01*
X127198496Y-100631578D02*
X127198496Y-100250625D01*
X127198496Y-100250625D02*
X127103258Y-100060149D01*
X125960401Y-100917292D02*
X125865162Y-100726816D01*
X125865162Y-100726816D02*
X125865162Y-100250625D01*
X125865162Y-100250625D02*
X125960401Y-100060149D01*
X125960401Y-100060149D02*
X126150877Y-99964911D01*
X126150877Y-99964911D02*
X126341353Y-99964911D01*
X126341353Y-99964911D02*
X126531829Y-100060149D01*
X126531829Y-100060149D02*
X126627067Y-100250625D01*
X126627067Y-100250625D02*
X126627067Y-100726816D01*
X126627067Y-100726816D02*
X126722305Y-100917292D01*
X127198496Y-101869673D02*
X125865162Y-101869673D01*
X127008020Y-101869673D02*
X127103258Y-101964911D01*
X127103258Y-101964911D02*
X127198496Y-102155387D01*
X127198496Y-102155387D02*
X127198496Y-102441102D01*
X127198496Y-102441102D02*
X127103258Y-102631578D01*
X127103258Y-102631578D02*
X126912781Y-102726816D01*
X126912781Y-102726816D02*
X125865162Y-102726816D01*
X127198496Y-103679197D02*
X125865162Y-103679197D01*
X127008020Y-103679197D02*
X127103258Y-103774435D01*
X127103258Y-103774435D02*
X127198496Y-103964911D01*
X127198496Y-103964911D02*
X127198496Y-104250626D01*
X127198496Y-104250626D02*
X127103258Y-104441102D01*
X127103258Y-104441102D02*
X126912781Y-104536340D01*
X126912781Y-104536340D02*
X125865162Y-104536340D01*
X125960401Y-106250626D02*
X125865162Y-106060150D01*
X125865162Y-106060150D02*
X125865162Y-105679197D01*
X125865162Y-105679197D02*
X125960401Y-105488721D01*
X125960401Y-105488721D02*
X126150877Y-105393483D01*
X126150877Y-105393483D02*
X126912781Y-105393483D01*
X126912781Y-105393483D02*
X127103258Y-105488721D01*
X127103258Y-105488721D02*
X127198496Y-105679197D01*
X127198496Y-105679197D02*
X127198496Y-106060150D01*
X127198496Y-106060150D02*
X127103258Y-106250626D01*
X127103258Y-106250626D02*
X126912781Y-106345864D01*
X126912781Y-106345864D02*
X126722305Y-106345864D01*
X126722305Y-106345864D02*
X126531829Y-105393483D01*
X125865162Y-107203007D02*
X127198496Y-107203007D01*
X126817543Y-107203007D02*
X127008020Y-107298245D01*
X127008020Y-107298245D02*
X127103258Y-107393483D01*
X127103258Y-107393483D02*
X127198496Y-107583959D01*
X127198496Y-107583959D02*
X127198496Y-107774436D01*
X122645162Y-81107767D02*
X124645162Y-81107767D01*
X123883258Y-81107767D02*
X123978496Y-81298243D01*
X123978496Y-81298243D02*
X123978496Y-81679196D01*
X123978496Y-81679196D02*
X123883258Y-81869672D01*
X123883258Y-81869672D02*
X123788020Y-81964910D01*
X123788020Y-81964910D02*
X123597543Y-82060148D01*
X123597543Y-82060148D02*
X123026115Y-82060148D01*
X123026115Y-82060148D02*
X122835639Y-81964910D01*
X122835639Y-81964910D02*
X122740401Y-81869672D01*
X122740401Y-81869672D02*
X122645162Y-81679196D01*
X122645162Y-81679196D02*
X122645162Y-81298243D01*
X122645162Y-81298243D02*
X122740401Y-81107767D01*
X123978496Y-82726815D02*
X122645162Y-83203005D01*
X123978496Y-83679196D02*
X122645162Y-83203005D01*
X122645162Y-83203005D02*
X122168972Y-83012529D01*
X122168972Y-83012529D02*
X122073734Y-82917291D01*
X122073734Y-82917291D02*
X121978496Y-82726815D01*
X123978496Y-85679197D02*
X123978496Y-86441101D01*
X122645162Y-85964911D02*
X124359448Y-85964911D01*
X124359448Y-85964911D02*
X124549924Y-86060149D01*
X124549924Y-86060149D02*
X124645162Y-86250625D01*
X124645162Y-86250625D02*
X124645162Y-86441101D01*
X122645162Y-87107768D02*
X123978496Y-87107768D01*
X124645162Y-87107768D02*
X124549924Y-87012530D01*
X124549924Y-87012530D02*
X124454686Y-87107768D01*
X124454686Y-87107768D02*
X124549924Y-87203006D01*
X124549924Y-87203006D02*
X124645162Y-87107768D01*
X124645162Y-87107768D02*
X124454686Y-87107768D01*
X122645162Y-88345863D02*
X122740401Y-88155387D01*
X122740401Y-88155387D02*
X122930877Y-88060149D01*
X122930877Y-88060149D02*
X124645162Y-88060149D01*
X122645162Y-89107768D02*
X123978496Y-89107768D01*
X123788020Y-89107768D02*
X123883258Y-89203006D01*
X123883258Y-89203006D02*
X123978496Y-89393482D01*
X123978496Y-89393482D02*
X123978496Y-89679197D01*
X123978496Y-89679197D02*
X123883258Y-89869673D01*
X123883258Y-89869673D02*
X123692781Y-89964911D01*
X123692781Y-89964911D02*
X122645162Y-89964911D01*
X123692781Y-89964911D02*
X123883258Y-90060149D01*
X123883258Y-90060149D02*
X123978496Y-90250625D01*
X123978496Y-90250625D02*
X123978496Y-90536339D01*
X123978496Y-90536339D02*
X123883258Y-90726816D01*
X123883258Y-90726816D02*
X123692781Y-90822054D01*
X123692781Y-90822054D02*
X122645162Y-90822054D01*
X122645162Y-91774435D02*
X124645162Y-91774435D01*
X123407067Y-91964911D02*
X122645162Y-92536340D01*
X123978496Y-92536340D02*
X123216591Y-91774435D01*
X122645162Y-93679197D02*
X122740401Y-93488721D01*
X122740401Y-93488721D02*
X122835639Y-93393483D01*
X122835639Y-93393483D02*
X123026115Y-93298245D01*
X123026115Y-93298245D02*
X123597543Y-93298245D01*
X123597543Y-93298245D02*
X123788020Y-93393483D01*
X123788020Y-93393483D02*
X123883258Y-93488721D01*
X123883258Y-93488721D02*
X123978496Y-93679197D01*
X123978496Y-93679197D02*
X123978496Y-93964912D01*
X123978496Y-93964912D02*
X123883258Y-94155388D01*
X123883258Y-94155388D02*
X123788020Y-94250626D01*
X123788020Y-94250626D02*
X123597543Y-94345864D01*
X123597543Y-94345864D02*
X123026115Y-94345864D01*
X123026115Y-94345864D02*
X122835639Y-94250626D01*
X122835639Y-94250626D02*
X122740401Y-94155388D01*
X122740401Y-94155388D02*
X122645162Y-93964912D01*
X122645162Y-93964912D02*
X122645162Y-93679197D01*
X122645162Y-95203007D02*
X123978496Y-95203007D01*
X123597543Y-95203007D02*
X123788020Y-95298245D01*
X123788020Y-95298245D02*
X123883258Y-95393483D01*
X123883258Y-95393483D02*
X123978496Y-95583959D01*
X123978496Y-95583959D02*
X123978496Y-95774436D01*
X123978496Y-96441102D02*
X122645162Y-96441102D01*
X123788020Y-96441102D02*
X123883258Y-96536340D01*
X123883258Y-96536340D02*
X123978496Y-96726816D01*
X123978496Y-96726816D02*
X123978496Y-97012531D01*
X123978496Y-97012531D02*
X123883258Y-97203007D01*
X123883258Y-97203007D02*
X123692781Y-97298245D01*
X123692781Y-97298245D02*
X122645162Y-97298245D01*
X122835639Y-98250626D02*
X122740401Y-98345864D01*
X122740401Y-98345864D02*
X122645162Y-98250626D01*
X122645162Y-98250626D02*
X122740401Y-98155388D01*
X122740401Y-98155388D02*
X122835639Y-98250626D01*
X122835639Y-98250626D02*
X122645162Y-98250626D01*
X122645162Y-99488721D02*
X122740401Y-99298245D01*
X122740401Y-99298245D02*
X122835639Y-99203007D01*
X122835639Y-99203007D02*
X123026115Y-99107769D01*
X123026115Y-99107769D02*
X123597543Y-99107769D01*
X123597543Y-99107769D02*
X123788020Y-99203007D01*
X123788020Y-99203007D02*
X123883258Y-99298245D01*
X123883258Y-99298245D02*
X123978496Y-99488721D01*
X123978496Y-99488721D02*
X123978496Y-99774436D01*
X123978496Y-99774436D02*
X123883258Y-99964912D01*
X123883258Y-99964912D02*
X123788020Y-100060150D01*
X123788020Y-100060150D02*
X123597543Y-100155388D01*
X123597543Y-100155388D02*
X123026115Y-100155388D01*
X123026115Y-100155388D02*
X122835639Y-100060150D01*
X122835639Y-100060150D02*
X122740401Y-99964912D01*
X122740401Y-99964912D02*
X122645162Y-99774436D01*
X122645162Y-99774436D02*
X122645162Y-99488721D01*
X122645162Y-101012531D02*
X123978496Y-101012531D01*
X123597543Y-101012531D02*
X123788020Y-101107769D01*
X123788020Y-101107769D02*
X123883258Y-101203007D01*
X123883258Y-101203007D02*
X123978496Y-101393483D01*
X123978496Y-101393483D02*
X123978496Y-101583960D01*
X123978496Y-103107769D02*
X122359448Y-103107769D01*
X122359448Y-103107769D02*
X122168972Y-103012531D01*
X122168972Y-103012531D02*
X122073734Y-102917293D01*
X122073734Y-102917293D02*
X121978496Y-102726816D01*
X121978496Y-102726816D02*
X121978496Y-102441102D01*
X121978496Y-102441102D02*
X122073734Y-102250626D01*
X122740401Y-103107769D02*
X122645162Y-102917293D01*
X122645162Y-102917293D02*
X122645162Y-102536340D01*
X122645162Y-102536340D02*
X122740401Y-102345864D01*
X122740401Y-102345864D02*
X122835639Y-102250626D01*
X122835639Y-102250626D02*
X123026115Y-102155388D01*
X123026115Y-102155388D02*
X123597543Y-102155388D01*
X123597543Y-102155388D02*
X123788020Y-102250626D01*
X123788020Y-102250626D02*
X123883258Y-102345864D01*
X123883258Y-102345864D02*
X123978496Y-102536340D01*
X123978496Y-102536340D02*
X123978496Y-102917293D01*
X123978496Y-102917293D02*
X123883258Y-103107769D01*
X124454686Y-105488722D02*
X124549924Y-105583960D01*
X124549924Y-105583960D02*
X124645162Y-105774436D01*
X124645162Y-105774436D02*
X124645162Y-106250627D01*
X124645162Y-106250627D02*
X124549924Y-106441103D01*
X124549924Y-106441103D02*
X124454686Y-106536341D01*
X124454686Y-106536341D02*
X124264210Y-106631579D01*
X124264210Y-106631579D02*
X124073734Y-106631579D01*
X124073734Y-106631579D02*
X123788020Y-106536341D01*
X123788020Y-106536341D02*
X122645162Y-105393484D01*
X122645162Y-105393484D02*
X122645162Y-106631579D01*
X124645162Y-107869674D02*
X124645162Y-108060151D01*
X124645162Y-108060151D02*
X124549924Y-108250627D01*
X124549924Y-108250627D02*
X124454686Y-108345865D01*
X124454686Y-108345865D02*
X124264210Y-108441103D01*
X124264210Y-108441103D02*
X123883258Y-108536341D01*
X123883258Y-108536341D02*
X123407067Y-108536341D01*
X123407067Y-108536341D02*
X123026115Y-108441103D01*
X123026115Y-108441103D02*
X122835639Y-108345865D01*
X122835639Y-108345865D02*
X122740401Y-108250627D01*
X122740401Y-108250627D02*
X122645162Y-108060151D01*
X122645162Y-108060151D02*
X122645162Y-107869674D01*
X122645162Y-107869674D02*
X122740401Y-107679198D01*
X122740401Y-107679198D02*
X122835639Y-107583960D01*
X122835639Y-107583960D02*
X123026115Y-107488722D01*
X123026115Y-107488722D02*
X123407067Y-107393484D01*
X123407067Y-107393484D02*
X123883258Y-107393484D01*
X123883258Y-107393484D02*
X124264210Y-107488722D01*
X124264210Y-107488722D02*
X124454686Y-107583960D01*
X124454686Y-107583960D02*
X124549924Y-107679198D01*
X124549924Y-107679198D02*
X124645162Y-107869674D01*
X124454686Y-109298246D02*
X124549924Y-109393484D01*
X124549924Y-109393484D02*
X124645162Y-109583960D01*
X124645162Y-109583960D02*
X124645162Y-110060151D01*
X124645162Y-110060151D02*
X124549924Y-110250627D01*
X124549924Y-110250627D02*
X124454686Y-110345865D01*
X124454686Y-110345865D02*
X124264210Y-110441103D01*
X124264210Y-110441103D02*
X124073734Y-110441103D01*
X124073734Y-110441103D02*
X123788020Y-110345865D01*
X123788020Y-110345865D02*
X122645162Y-109203008D01*
X122645162Y-109203008D02*
X122645162Y-110441103D01*
X124645162Y-111107770D02*
X124645162Y-112345865D01*
X124645162Y-112345865D02*
X123883258Y-111679198D01*
X123883258Y-111679198D02*
X123883258Y-111964913D01*
X123883258Y-111964913D02*
X123788020Y-112155389D01*
X123788020Y-112155389D02*
X123692781Y-112250627D01*
X123692781Y-112250627D02*
X123502305Y-112345865D01*
X123502305Y-112345865D02*
X123026115Y-112345865D01*
X123026115Y-112345865D02*
X122835639Y-112250627D01*
X122835639Y-112250627D02*
X122740401Y-112155389D01*
X122740401Y-112155389D02*
X122645162Y-111964913D01*
X122645162Y-111964913D02*
X122645162Y-111393484D01*
X122645162Y-111393484D02*
X122740401Y-111203008D01*
X122740401Y-111203008D02*
X122835639Y-111107770D01*
X123597543Y-115298247D02*
X123216591Y-115298247D01*
X123216591Y-115393485D02*
X123597543Y-115393485D01*
X123692781Y-115488723D02*
X123121353Y-115488723D01*
X123216591Y-115583961D02*
X123597543Y-115583961D01*
X123597543Y-115679199D02*
X123216591Y-115679199D01*
X123311829Y-115298247D02*
X123121353Y-115488723D01*
X123121353Y-115488723D02*
X123311829Y-115679199D01*
X123502305Y-115298247D02*
X123692781Y-115488723D01*
X123692781Y-115488723D02*
X123502305Y-115679199D01*
X123597543Y-115298247D02*
X123692781Y-115488723D01*
X123692781Y-115488723D02*
X123597543Y-115679199D01*
X123597543Y-115679199D02*
X123407067Y-115774437D01*
X123407067Y-115774437D02*
X123216591Y-115679199D01*
X123216591Y-115679199D02*
X123121353Y-115488723D01*
X123121353Y-115488723D02*
X123216591Y-115298247D01*
X123216591Y-115298247D02*
X123407067Y-115203008D01*
X123407067Y-115203008D02*
X123597543Y-115298247D01*
X122645162Y-119869675D02*
X123597543Y-119203008D01*
X122645162Y-118726818D02*
X124645162Y-118726818D01*
X124645162Y-118726818D02*
X124645162Y-119488723D01*
X124645162Y-119488723D02*
X124549924Y-119679199D01*
X124549924Y-119679199D02*
X124454686Y-119774437D01*
X124454686Y-119774437D02*
X124264210Y-119869675D01*
X124264210Y-119869675D02*
X123978496Y-119869675D01*
X123978496Y-119869675D02*
X123788020Y-119774437D01*
X123788020Y-119774437D02*
X123692781Y-119679199D01*
X123692781Y-119679199D02*
X123597543Y-119488723D01*
X123597543Y-119488723D02*
X123597543Y-118726818D01*
X122740401Y-121488723D02*
X122645162Y-121298247D01*
X122645162Y-121298247D02*
X122645162Y-120917294D01*
X122645162Y-120917294D02*
X122740401Y-120726818D01*
X122740401Y-120726818D02*
X122930877Y-120631580D01*
X122930877Y-120631580D02*
X123692781Y-120631580D01*
X123692781Y-120631580D02*
X123883258Y-120726818D01*
X123883258Y-120726818D02*
X123978496Y-120917294D01*
X123978496Y-120917294D02*
X123978496Y-121298247D01*
X123978496Y-121298247D02*
X123883258Y-121488723D01*
X123883258Y-121488723D02*
X123692781Y-121583961D01*
X123692781Y-121583961D02*
X123502305Y-121583961D01*
X123502305Y-121583961D02*
X123311829Y-120631580D01*
X123978496Y-122250628D02*
X122645162Y-122726818D01*
X122645162Y-122726818D02*
X123978496Y-123203009D01*
X122835639Y-123964914D02*
X122740401Y-124060152D01*
X122740401Y-124060152D02*
X122645162Y-123964914D01*
X122645162Y-123964914D02*
X122740401Y-123869676D01*
X122740401Y-123869676D02*
X122835639Y-123964914D01*
X122835639Y-123964914D02*
X122645162Y-123964914D01*
X123216591Y-126345867D02*
X123216591Y-127298248D01*
X122645162Y-126155391D02*
X124645162Y-126822057D01*
X124645162Y-126822057D02*
X122645162Y-127488724D01*
D18*
%TO.C,SW5*%
X170623593Y-142159763D03*
X179623593Y-142159763D03*
D19*
X172583593Y-148409763D03*
X172583593Y-135909763D03*
X177663593Y-148409763D03*
X177663593Y-135909763D03*
%TD*%
D20*
%TO.C,TP7*%
X156327593Y-108377763D03*
%TD*%
D21*
%TO.C,CN3*%
X220853000Y-120269000D03*
D22*
X225933000Y-120269000D03*
D21*
X220853000Y-117729000D03*
X225933000Y-117729000D03*
X220853000Y-115189000D03*
X225933000Y-115189000D03*
%TD*%
D23*
%TO.C,C12*%
X137211593Y-115619763D03*
X135311593Y-115619763D03*
%TD*%
D21*
%TO.C,CN4*%
X220843593Y-109855000D03*
D22*
X225923593Y-109855000D03*
D21*
X220843593Y-107315000D03*
X225923593Y-107315000D03*
X220843593Y-104775000D03*
X225923593Y-104775000D03*
%TD*%
D24*
%TO.C,RV5*%
X197358000Y-62738000D03*
X199858000Y-62738000D03*
X202358000Y-62738000D03*
%TD*%
D25*
%TO.C,D5*%
X168551593Y-96693763D03*
X172551593Y-96693763D03*
%TD*%
D26*
%TO.C,SW1*%
X132900000Y-90125000D03*
X138900000Y-90125000D03*
X132900000Y-93875000D03*
X138900000Y-93875000D03*
%TD*%
D27*
%TO.C,C8*%
X136007593Y-98659763D03*
X136007593Y-96759763D03*
%TD*%
D28*
%TO.C,R38*%
X190363593Y-106768263D03*
X190363593Y-100843263D03*
%TD*%
D29*
%TO.C,R42*%
X215392000Y-61551500D03*
X215392000Y-59726500D03*
%TD*%
D30*
%TO.C,R35*%
X175735093Y-106345763D03*
X177560093Y-106345763D03*
%TD*%
D31*
%TO.C,TP1*%
X207300000Y-61700000D03*
%TD*%
D30*
%TO.C,R12*%
X199611093Y-133269763D03*
X201436093Y-133269763D03*
%TD*%
D32*
%TO.C,D7*%
X199429093Y-107361763D03*
X197554093Y-107361763D03*
%TD*%
D33*
%TO.C,Q7*%
X159831000Y-77597000D03*
X159831000Y-78867000D03*
X159831000Y-80137000D03*
X159831000Y-81407000D03*
X164781000Y-81407000D03*
X164781000Y-80137000D03*
X164781000Y-78867000D03*
X164781000Y-77597000D03*
%TD*%
D34*
%TO.C,U6*%
X171141593Y-82493763D03*
D35*
X171229093Y-83993763D03*
D34*
X171141593Y-85493763D03*
%TD*%
D36*
%TO.C,SW11*%
X222724000Y-60489000D03*
X219724000Y-60489000D03*
D37*
X225024000Y-61589000D03*
X225024000Y-59389000D03*
X217424000Y-61589000D03*
X217424000Y-59389000D03*
D38*
X223474000Y-62509000D03*
X220474000Y-62509000D03*
X218974000Y-62509000D03*
%TD*%
D18*
%TO.C,SW4*%
X157923593Y-142159763D03*
X166923593Y-142159763D03*
D19*
X159883593Y-148409763D03*
X159883593Y-135909763D03*
X164963593Y-148409763D03*
X164963593Y-135909763D03*
%TD*%
D30*
%TO.C,R11*%
X186911093Y-133269763D03*
X188736093Y-133269763D03*
%TD*%
D39*
%TO.C,C19*%
X165537593Y-99741763D03*
X167437593Y-99741763D03*
%TD*%
D30*
%TO.C,R1*%
X181967500Y-118283763D03*
X183792500Y-118283763D03*
%TD*%
D23*
%TO.C,C14*%
X152197593Y-118791763D03*
X150297593Y-118791763D03*
%TD*%
D40*
%TO.C,R32*%
X159766000Y-87884000D03*
X157941000Y-87884000D03*
%TD*%
D41*
%TO.C,REF\u002A\u002A*%
X209318000Y-46502000D03*
D42*
X209318000Y-46502000D03*
%TD*%
D30*
%TO.C,R16*%
X154608093Y-95296763D03*
X156433093Y-95296763D03*
%TD*%
D20*
%TO.C,TP11*%
X158359593Y-114219763D03*
%TD*%
D43*
%TO.C,J2*%
X196500000Y-131200000D03*
D44*
X193960000Y-131200000D03*
%TD*%
D18*
%TO.C,SW3*%
X145223593Y-142159763D03*
X154223593Y-142159763D03*
D19*
X147183593Y-148409763D03*
X147183593Y-135909763D03*
X152263593Y-148409763D03*
X152263593Y-135909763D03*
%TD*%
D32*
%TO.C,D8*%
X195365093Y-107361763D03*
X193490093Y-107361763D03*
%TD*%
D30*
%TO.C,R9*%
X161511093Y-133269763D03*
X163336093Y-133269763D03*
%TD*%
D39*
%TO.C,C20*%
X181050000Y-88000000D03*
X182950000Y-88000000D03*
%TD*%
D45*
%TO.C,Q2*%
X190696093Y-112954763D03*
X190696093Y-114854763D03*
X192571093Y-113904763D03*
%TD*%
D43*
%TO.C,J6*%
X223510000Y-54018500D03*
D44*
X220970000Y-54018500D03*
X218430000Y-54018500D03*
%TD*%
D46*
%TO.C,C2*%
X209462593Y-124125763D03*
X212412593Y-124125763D03*
%TD*%
D47*
%TO.C,D6*%
X136086093Y-133269763D03*
X137961093Y-133269763D03*
%TD*%
D40*
%TO.C,R31*%
X159766000Y-84328000D03*
X157941000Y-84328000D03*
%TD*%
D30*
%TO.C,R7*%
X136111093Y-130729763D03*
X137936093Y-130729763D03*
%TD*%
D48*
%TO.C,D4*%
X215900000Y-116202000D03*
X215900000Y-119002000D03*
%TD*%
D43*
%TO.C,J4*%
X124900000Y-57760000D03*
D44*
X124900000Y-60300000D03*
X124900000Y-62840000D03*
X124900000Y-65380000D03*
X124900000Y-67920000D03*
X124900000Y-70460000D03*
%TD*%
D49*
%TO.C,REF\u002A\u002A*%
X122302944Y-136150000D03*
X123005888Y-134452944D03*
X123005888Y-137847056D03*
X124702944Y-133750000D03*
D50*
X124702944Y-136150000D03*
D49*
X124702944Y-138550000D03*
X126400000Y-134452944D03*
X126400000Y-137847056D03*
X127102944Y-136150000D03*
%TD*%
D30*
%TO.C,R25*%
X136111093Y-128189763D03*
X137936093Y-128189763D03*
%TD*%
D43*
%TO.C,J3*%
X150425593Y-109261763D03*
D44*
X150425593Y-111801763D03*
X147885593Y-109261763D03*
X147885593Y-111801763D03*
X145345593Y-109261763D03*
X145345593Y-111801763D03*
%TD*%
D51*
%TO.C,CN5*%
X219583000Y-86614000D03*
D52*
X227203000Y-86614000D03*
D51*
X219583000Y-81534000D03*
X227203000Y-81534000D03*
%TD*%
D30*
%TO.C,R14*%
X220575500Y-133523763D03*
X222400500Y-133523763D03*
%TD*%
D20*
%TO.C,TP8*%
X142240000Y-106853763D03*
%TD*%
D30*
%TO.C,R15*%
X136111093Y-122855763D03*
X137936093Y-122855763D03*
%TD*%
D53*
%TO.C,Q4*%
X197971093Y-113016263D03*
X197971093Y-111116263D03*
X196096093Y-112066263D03*
%TD*%
D24*
%TO.C,RV3*%
X176570000Y-62738000D03*
X179070000Y-62738000D03*
X181570000Y-62738000D03*
%TD*%
D45*
%TO.C,Q6*%
X211328000Y-118618000D03*
X211328000Y-120518000D03*
X213203000Y-119568000D03*
%TD*%
D54*
%TO.C,RV1*%
X168148000Y-62992000D03*
X165608000Y-62992000D03*
X163068000Y-62992000D03*
D55*
X160608000Y-66292000D03*
X170608000Y-66292000D03*
%TD*%
D56*
%TO.C,R19*%
X212366000Y-47516000D03*
X212366000Y-48536000D03*
%TD*%
D40*
%TO.C,R37*%
X186196093Y-104821763D03*
X184371093Y-104821763D03*
%TD*%
D30*
%TO.C,R10*%
X174211093Y-133269763D03*
X176036093Y-133269763D03*
%TD*%
D29*
%TO.C,R3*%
X182362593Y-111134263D03*
X182362593Y-109309263D03*
%TD*%
%TO.C,R4*%
X133500000Y-98612500D03*
X133500000Y-96787500D03*
%TD*%
D30*
%TO.C,R40*%
X193515093Y-104821763D03*
X195340093Y-104821763D03*
%TD*%
D39*
%TO.C,C17*%
X169601593Y-78405763D03*
X171501593Y-78405763D03*
%TD*%
%TO.C,C3*%
X209987593Y-126919763D03*
X211887593Y-126919763D03*
%TD*%
D40*
%TO.C,R18*%
X231290500Y-133523763D03*
X229465500Y-133523763D03*
%TD*%
D57*
%TO.C,D2*%
X130100000Y-57162500D03*
X130100000Y-59037500D03*
%TD*%
D56*
%TO.C,R22*%
X217954000Y-47516000D03*
X217954000Y-48536000D03*
%TD*%
D58*
%TO.C,C15*%
X212367593Y-94407763D03*
X206967593Y-94407763D03*
%TD*%
D39*
%TO.C,C24*%
X175697593Y-102789763D03*
X177597593Y-102789763D03*
%TD*%
D23*
%TO.C,C22*%
X203850000Y-97300000D03*
X201950000Y-97300000D03*
%TD*%
D18*
%TO.C,SW9*%
X221423593Y-142159763D03*
X230423593Y-142159763D03*
D19*
X223383593Y-148409763D03*
X223383593Y-135909763D03*
X228463593Y-148409763D03*
X228463593Y-135909763D03*
%TD*%
D27*
%TO.C,C9*%
X156790593Y-100691763D03*
X156790593Y-98791763D03*
%TD*%
D40*
%TO.C,R23*%
X137936093Y-125395763D03*
X136111093Y-125395763D03*
%TD*%
D37*
%TO.C,TP3*%
X173345593Y-130729763D03*
%TD*%
D51*
%TO.C,CN1*%
X219573593Y-73660000D03*
D52*
X227193593Y-73660000D03*
D51*
X219573593Y-68580000D03*
X227193593Y-68580000D03*
%TD*%
D59*
%TO.C,C6*%
X156790593Y-102921763D03*
X156790593Y-104821763D03*
%TD*%
D60*
%TO.C,U2*%
X139309593Y-120569763D03*
X140579593Y-120569763D03*
X141849593Y-120569763D03*
X143119593Y-120569763D03*
X144389593Y-120569763D03*
X145659593Y-120569763D03*
X146929593Y-120569763D03*
X146929593Y-115619763D03*
X145659593Y-115619763D03*
X144389593Y-115619763D03*
X143119593Y-115619763D03*
X141849593Y-115619763D03*
X140579593Y-115619763D03*
X139309593Y-115619763D03*
%TD*%
D37*
%TO.C,TP6*%
X189500000Y-130600000D03*
%TD*%
D18*
%TO.C,SW8*%
X208723593Y-142159763D03*
X217723593Y-142159763D03*
D19*
X210683593Y-148409763D03*
X210683593Y-135909763D03*
X215763593Y-148409763D03*
X215763593Y-135909763D03*
%TD*%
D27*
%TO.C,C4*%
X135200593Y-103231763D03*
X135200593Y-101331763D03*
%TD*%
D20*
%TO.C,TP9*%
X158867593Y-96693763D03*
%TD*%
D30*
%TO.C,R36*%
X180307093Y-104821763D03*
X182132093Y-104821763D03*
%TD*%
D61*
%TO.C,C23*%
X207508593Y-100799763D03*
X207508593Y-112399763D03*
%TD*%
D37*
%TO.C,TP4*%
X170805593Y-130729763D03*
%TD*%
D40*
%TO.C,R29*%
X213120093Y-115489763D03*
X211295093Y-115489763D03*
%TD*%
D62*
%TO.C,D1*%
X205073000Y-68443000D03*
X205073000Y-73543000D03*
X213773000Y-73543000D03*
X213773000Y-68443000D03*
%TD*%
D63*
%TO.C,L1*%
X188100000Y-91100000D03*
X199700000Y-91100000D03*
%TD*%
D64*
%TO.C,Q3*%
X196083593Y-118283763D03*
X197033593Y-118283763D03*
X197983593Y-118283763D03*
X197983593Y-116008763D03*
X197033593Y-116008763D03*
X196083593Y-116008763D03*
%TD*%
D65*
%TO.C,U4*%
X222970000Y-49513300D03*
X218970000Y-49513300D03*
X218970000Y-51437100D03*
X222970000Y-51437100D03*
%TD*%
D30*
%TO.C,R26*%
X146271093Y-125141763D03*
X148096093Y-125141763D03*
%TD*%
D66*
%TO.C,U5*%
X210048593Y-84328000D03*
D67*
X207173593Y-82423000D03*
X207173593Y-83693000D03*
X207173593Y-84963000D03*
X207173593Y-86233000D03*
X212923593Y-86233000D03*
X212923593Y-84963000D03*
X212923593Y-83693000D03*
X212923593Y-82423000D03*
D68*
X209398593Y-83028000D03*
X209398593Y-84328000D03*
X209398593Y-85628000D03*
X210698593Y-83028000D03*
X210698593Y-84328000D03*
X210698593Y-85628000D03*
%TD*%
D30*
%TO.C,R6*%
X186031500Y-118283763D03*
X187856500Y-118283763D03*
%TD*%
D54*
%TO.C,SW10*%
X138562000Y-58030000D03*
X134062000Y-58030000D03*
D19*
X132502000Y-60570000D03*
X140122000Y-60570000D03*
%TD*%
D49*
%TO.C,REFe*%
X235402944Y-136150000D03*
X236105888Y-134452944D03*
X236105888Y-137847056D03*
X237802944Y-133750000D03*
D50*
X237802944Y-136150000D03*
D49*
X237802944Y-138550000D03*
X239500000Y-134452944D03*
X239500000Y-137847056D03*
X240202944Y-136150000D03*
%TD*%
D61*
%TO.C,C18*%
X179568593Y-68414763D03*
X179568593Y-80014763D03*
%TD*%
D69*
%TO.C,U8*%
X173950000Y-91837500D03*
X175850000Y-91837500D03*
X174900000Y-89962500D03*
%TD*%
D30*
%TO.C,R39*%
X197579093Y-104821763D03*
X199404093Y-104821763D03*
%TD*%
D21*
%TO.C,CN6*%
X220843593Y-99441000D03*
D22*
X225923593Y-99441000D03*
D21*
X220843593Y-96901000D03*
X225923593Y-96901000D03*
X220843593Y-94361000D03*
X225923593Y-94361000D03*
%TD*%
D30*
%TO.C,R13*%
X212311093Y-133269763D03*
X214136093Y-133269763D03*
%TD*%
D33*
%TO.C,U9*%
X180776593Y-98344763D03*
X180776593Y-99614763D03*
X180776593Y-100884763D03*
X180776593Y-102154763D03*
X185726593Y-102154763D03*
X185726593Y-100884763D03*
X185726593Y-99614763D03*
X185726593Y-98344763D03*
%TD*%
D49*
%TO.C,REFee*%
X235400000Y-49200000D03*
X236102944Y-47502944D03*
X236102944Y-50897056D03*
X237800000Y-46800000D03*
D50*
X237800000Y-49200000D03*
D49*
X237800000Y-51600000D03*
X239497056Y-47502944D03*
X239497056Y-50897056D03*
X240200000Y-49200000D03*
%TD*%
D21*
%TO.C,CN2*%
X220843593Y-130729763D03*
D22*
X225923593Y-130729763D03*
D21*
X220843593Y-128189763D03*
X225923593Y-128189763D03*
X220843593Y-125649763D03*
X225923593Y-125649763D03*
%TD*%
D18*
%TO.C,SW2*%
X132523593Y-142159763D03*
X141523593Y-142159763D03*
D19*
X134483593Y-148409763D03*
X134483593Y-135909763D03*
X139563593Y-148409763D03*
X139563593Y-135909763D03*
%TD*%
D30*
%TO.C,R8*%
X148811093Y-133269763D03*
X150636093Y-133269763D03*
%TD*%
D49*
%TO.C,REF\u002A\u002A*%
X122302944Y-49200000D03*
X123005888Y-47502944D03*
X123005888Y-50897056D03*
X124702944Y-46800000D03*
D50*
X124702944Y-49200000D03*
D49*
X124702944Y-51600000D03*
X126400000Y-47502944D03*
X126400000Y-50897056D03*
X127102944Y-49200000D03*
%TD*%
D18*
%TO.C,SW6*%
X183323593Y-142159763D03*
X192323593Y-142159763D03*
D19*
X185283593Y-148409763D03*
X185283593Y-135909763D03*
X190363593Y-148409763D03*
X190363593Y-135909763D03*
%TD*%
D18*
%TO.C,SW7*%
X196023593Y-142159763D03*
X205023593Y-142159763D03*
D19*
X197983593Y-148409763D03*
X197983593Y-135909763D03*
X203063593Y-148409763D03*
X203063593Y-135909763D03*
%TD*%
D27*
%TO.C,C5*%
X135200593Y-107041763D03*
X135200593Y-105141763D03*
%TD*%
D30*
%TO.C,R34*%
X175735093Y-99233763D03*
X177560093Y-99233763D03*
%TD*%
D70*
%TO.C,Y1*%
X139010593Y-102336763D03*
X139010593Y-106036763D03*
%TD*%
D71*
%TO.C,U1*%
X143625593Y-97236763D03*
X143625593Y-98036763D03*
X143625593Y-98836763D03*
X143625593Y-99636763D03*
X143625593Y-100436763D03*
X143625593Y-101236763D03*
X143625593Y-102036763D03*
X143625593Y-102836763D03*
D72*
X145075593Y-104286763D03*
X145875593Y-104286763D03*
X146675593Y-104286763D03*
X147475593Y-104286763D03*
X148275593Y-104286763D03*
X149075593Y-104286763D03*
X149875593Y-104286763D03*
X150675593Y-104286763D03*
D71*
X152125593Y-102836763D03*
X152125593Y-102036763D03*
X152125593Y-101236763D03*
X152125593Y-100436763D03*
X152125593Y-99636763D03*
X152125593Y-98836763D03*
X152125593Y-98036763D03*
X152125593Y-97236763D03*
D72*
X150675593Y-95786763D03*
X149875593Y-95786763D03*
X149075593Y-95786763D03*
X148275593Y-95786763D03*
X147475593Y-95786763D03*
X146675593Y-95786763D03*
X145875593Y-95786763D03*
X145075593Y-95786763D03*
%TD*%
D61*
%TO.C,C1*%
X195443593Y-80014763D03*
X195443593Y-68414763D03*
%TD*%
D41*
%TO.C,REF\u002A\u002A*%
X221002000Y-46502000D03*
D42*
X221002000Y-46502000D03*
%TD*%
D29*
%TO.C,R2*%
X187521093Y-114817263D03*
X187521093Y-112992263D03*
%TD*%
D23*
%TO.C,C11*%
X191313593Y-109901763D03*
X189413593Y-109901763D03*
%TD*%
D30*
%TO.C,R30*%
X207231093Y-89454763D03*
X209056093Y-89454763D03*
%TD*%
D40*
%TO.C,R24*%
X148096093Y-128951763D03*
X146271093Y-128951763D03*
%TD*%
D20*
%TO.C,TP10*%
X158359593Y-117267763D03*
%TD*%
D31*
%TO.C,TP2*%
X211328000Y-61700000D03*
%TD*%
D27*
%TO.C,C7*%
X138547593Y-98659763D03*
X138547593Y-96759763D03*
%TD*%
D56*
%TO.C,R21*%
X206270000Y-47516000D03*
X206270000Y-48536000D03*
%TD*%
D30*
%TO.C,R33*%
X180987500Y-84300000D03*
X182812500Y-84300000D03*
%TD*%
D45*
%TO.C,Q1*%
X185235093Y-109271763D03*
X185235093Y-111171763D03*
X187110093Y-110221763D03*
%TD*%
D27*
%TO.C,C10*%
X132700000Y-103250000D03*
X132700000Y-101350000D03*
%TD*%
D73*
%TO.C,R17*%
X130100000Y-62787500D03*
X130100000Y-64612500D03*
%TD*%
D69*
%TO.C,Q5*%
X151567593Y-125571263D03*
X153467593Y-125571263D03*
X152517593Y-123696263D03*
%TD*%
D74*
%TO.C,U7*%
X172427593Y-104283763D03*
X170727593Y-104283763D03*
X169027593Y-104283763D03*
D75*
X169027593Y-113433763D03*
D74*
X167327593Y-104283763D03*
X165627593Y-104283763D03*
%TD*%
D54*
%TO.C,RV2*%
X152400000Y-62992000D03*
X149860000Y-62992000D03*
X147320000Y-62992000D03*
D55*
X144860000Y-66292000D03*
X154860000Y-66292000D03*
%TD*%
D39*
%TO.C,C13*%
X151022093Y-128851763D03*
X152922093Y-128851763D03*
%TD*%
D43*
%TO.C,J7*%
X230523500Y-57404000D03*
D44*
X230523500Y-59944000D03*
X230523500Y-62484000D03*
%TD*%
D73*
%TO.C,R41*%
X227076000Y-59726500D03*
X227076000Y-61551500D03*
%TD*%
D40*
%TO.C,R28*%
X152160093Y-115489763D03*
X150335093Y-115489763D03*
%TD*%
D65*
%TO.C,U3*%
X211318000Y-49513300D03*
X207318000Y-49513300D03*
X207318000Y-51437100D03*
X211318000Y-51437100D03*
%TD*%
D30*
%TO.C,R27*%
X140899593Y-125141763D03*
X142724593Y-125141763D03*
%TD*%
D43*
%TO.C,J5*%
X211858000Y-54018500D03*
D44*
X209318000Y-54018500D03*
X206778000Y-54018500D03*
%TD*%
D56*
%TO.C,R20*%
X224050000Y-47516000D03*
X224050000Y-48536000D03*
%TD*%
D24*
%TO.C,RV4*%
X186984000Y-62738000D03*
X189484000Y-62738000D03*
X191984000Y-62738000D03*
%TD*%
D39*
%TO.C,C16*%
X214102393Y-89581763D03*
X216002393Y-89581763D03*
%TD*%
D47*
%TO.C,D3*%
X224986093Y-133523763D03*
X226861093Y-133523763D03*
%TD*%
D39*
%TO.C,C21*%
X181050000Y-91700000D03*
X182950000Y-91700000D03*
%TD*%
D40*
%TO.C,R5*%
X193157593Y-118283763D03*
X191332593Y-118283763D03*
%TD*%
D43*
%TO.C,J1*%
X206365593Y-124379763D03*
D44*
X206365593Y-126919763D03*
X203825593Y-124379763D03*
X203825593Y-126919763D03*
X201285593Y-124379763D03*
X201285593Y-126919763D03*
X198745593Y-124379763D03*
X198745593Y-126919763D03*
X196205593Y-124379763D03*
X196205593Y-126919763D03*
X193665593Y-124379763D03*
X193665593Y-126919763D03*
X191125593Y-124379763D03*
X191125593Y-126919763D03*
X188585593Y-124379763D03*
X188585593Y-126919763D03*
X186045593Y-124379763D03*
X186045593Y-126919763D03*
X183505593Y-124379763D03*
X183505593Y-126919763D03*
X180965593Y-124379763D03*
X180965593Y-126919763D03*
X178425593Y-124379763D03*
X178425593Y-126919763D03*
X175885593Y-124379763D03*
X175885593Y-126919763D03*
X173345593Y-124379763D03*
X173345593Y-126919763D03*
X170805593Y-124379763D03*
X170805593Y-126919763D03*
X168265593Y-124379763D03*
X168265593Y-126919763D03*
X165725593Y-124379763D03*
X165725593Y-126919763D03*
X163185593Y-124379763D03*
X163185593Y-126919763D03*
X160645593Y-124379763D03*
X160645593Y-126919763D03*
X158105593Y-124379763D03*
X158105593Y-126919763D03*
%TD*%
M02*
