M48
; DRILL file {KiCad 7.0.9-29-ge2d8d53a10} date 
; FORMAT={-:-/ absolute / metric / decimal}
; #@! TF.CreationDate,2023-11-19T17:16:10+01:00
; #@! TF.GenerationSoftware,Kicad,Pcbnew,7.0.9-29-ge2d8d53a10
; #@! TF.FileFunction,NonPlated,1,2,NPTH
FMAT,2
METRIC
; #@! TA.AperFunction,NonPlated,NPTH,ComponentDrill
T1C0.500
; #@! TA.AperFunction,NonPlated,NPTH,ComponentDrill
T2C0.900
; #@! TA.AperFunction,NonPlated,NPTH,ComponentDrill
T3C1.800
%
G90
G05
T1
X205.52Y-55.646
X206.27Y-55.646
X207.02Y-55.646
X207.77Y-55.646
X208.52Y-55.646
X209.27Y-55.646
X210.02Y-55.646
X210.77Y-55.646
X211.52Y-55.646
X212.27Y-55.646
X213.02Y-55.646
X217.252Y-55.646
X218.002Y-55.646
X218.752Y-55.646
X219.502Y-55.646
X220.252Y-55.646
X221.002Y-55.646
X221.752Y-55.646
X222.502Y-55.646
X223.252Y-55.646
X224.002Y-55.646
X224.752Y-55.646
T2
X219.724Y-60.489
X222.724Y-60.489
T3
X132.524Y-142.16
X141.524Y-142.16
X145.224Y-142.16
X154.224Y-142.16
X157.924Y-142.16
X166.924Y-142.16
X170.624Y-142.16
X179.624Y-142.16
X183.324Y-142.16
X192.324Y-142.16
X196.024Y-142.16
X205.024Y-142.16
X208.724Y-142.16
X217.724Y-142.16
X221.424Y-142.16
X230.424Y-142.16
T0
M30
