M48
; DRILL file {KiCad 7.0.9-29-ge2d8d53a10} date 
; FORMAT={-:-/ absolute / metric / decimal}
; #@! TF.CreationDate,2023-11-19T17:16:10+01:00
; #@! TF.GenerationSoftware,Kicad,Pcbnew,7.0.9-29-ge2d8d53a10
; #@! TF.FileFunction,Plated,1,2,PTH
FMAT,2
METRIC
; #@! TA.AperFunction,Plated,PTH,ComponentDrill
T1C0.330
; #@! TA.AperFunction,Plated,PTH,ViaDrill
T2C0.400
; #@! TA.AperFunction,Plated,PTH,ComponentDrill
T3C0.500
; #@! TA.AperFunction,Plated,PTH,ComponentDrill
T4C0.700
; #@! TA.AperFunction,Plated,PTH,ComponentDrill
T5C0.762
; #@! TA.AperFunction,Plated,PTH,ComponentDrill
T6C1.000
; #@! TA.AperFunction,Plated,PTH,ComponentDrill
T7C1.100
; #@! TA.AperFunction,Plated,PTH,ComponentDrill
T8C1.400
; #@! TA.AperFunction,Plated,PTH,ComponentDrill
T9C1.400
; #@! TA.AperFunction,Plated,PTH,ComponentDrill
T10C1.500
; #@! TA.AperFunction,Plated,PTH,ComponentDrill
T11C2.000
; #@! TA.AperFunction,Plated,PTH,ComponentDrill
T12C2.200
; #@! TA.AperFunction,Plated,PTH,ComponentDrill
T13C3.200
%
G90
G05
T1
X209.399Y-83.028
X209.399Y-84.328
X209.399Y-85.628
X210.699Y-83.028
X210.699Y-84.328
X210.699Y-85.628
T2
X133.3Y-91.5
X135.246Y-129.46
X138.294Y-114.22
X138.294Y-118.792
X138.7Y-91.5
X140.326Y-113.966
X140.8Y-94.4
X140.833Y-119.046
X140.833Y-131.238
X140.834Y-123.872
X140.834Y-134.032
X141.1Y-92.7
X141.85Y-119.046
X141.9Y-66.8
X142.104Y-95.932
X142.104Y-96.948
X142.104Y-97.964
X142.186Y-99.742
X142.186Y-101.178
X142.485Y-123.998
X143.002Y-90.424
X143.12Y-119.046
X143.374Y-131.492
X144.39Y-119.046
X144.39Y-124.888
X145.152Y-101.266
X145.613Y-123.401
X145.66Y-119.046
X146.168Y-97.71
X146.631Y-106.727
X147.184Y-114.22
X147.184Y-126.158
X147.438Y-133.016
X147.864Y-106.518
X147.901Y-102.282
X147.925Y-115.744
X147.946Y-97.71
X148.082Y-119.046
X148.109Y-94.245
X148.2Y-101.266
X148.595Y-107.607
X148.708Y-113.966
X149.103Y-106.188
X149.216Y-112.95
X149.66Y-117.19
X149.8Y-90.4
X149.978Y-132.0
X150.011Y-122.815
X150.232Y-98.218
X150.232Y-139.012
X150.4Y-91.9
X150.735Y-122.089
X150.969Y-94.131
X151.502Y-124.126
X151.711Y-107.87
X151.756Y-117.014
X152.01Y-109.394
X152.772Y-104.314
X152.772Y-107.87
X153.026Y-112.188
X153.287Y-96.187
X153.305Y-110.681
X153.6Y-88.576
X153.788Y-104.314
X153.788Y-108.378
X154.042Y-109.394
X154.247Y-114.22
X154.251Y-101.647
X154.55Y-105.838
X155.175Y-112.35
X155.312Y-128.19
X155.312Y-129.46
X155.312Y-130.73
X155.32Y-126.927
X155.7Y-93.8
X156.074Y-125.65
X156.7Y-93.0
X157.856Y-90.856
X158.106Y-111.426
X158.83Y-108.668
X159.376Y-110.156
X159.63Y-137.625
X159.884Y-115.744
X160.392Y-111.172
X160.9Y-131.746
X161.916Y-125.65
X163.444Y-122.606
X164.551Y-119.845
X169.536Y-127.682
X170.806Y-107.616
X171.1Y-86.7
X171.5Y-93.07
X172.076Y-127.682
X174.616Y-103.806
X175.124Y-134.286
X175.7Y-95.9
X176.6Y-90.6
X177.6Y-82.8
X179.188Y-106.854
X180.0Y-91.0
X180.2Y-85.988
X182.744Y-98.726
X182.849Y-85.7
X183.5Y-96.9
X183.76Y-99.742
X183.871Y-113.64
X184.429Y-117.018
X185.6Y-81.6
X185.7Y-132.0
X188.332Y-111.934
X188.332Y-115.998
X188.722Y-118.618
X190.364Y-111.934
X190.364Y-115.998
X190.872Y-102.79
X192.904Y-115.49
X193.374Y-116.984
X193.412Y-102.79
X194.818Y-115.316
X196.968Y-114.474
X197.476Y-123.11
X199.0Y-115.998
X199.136Y-119.671
X199.898Y-123.19
X200.27Y-119.808
X200.406Y-134.112
X201.286Y-120.57
X201.3Y-83.1
X201.3Y-84.1
X201.4Y-86.8
X203.962Y-121.412
X205.359Y-83.82
X205.359Y-84.963
X207.01Y-120.396
X207.209Y-48.564
X208.556Y-51.328
X210.176Y-115.951
X211.35Y-48.28
X212.716Y-134.54
X215.9Y-121.158
X216.154Y-117.602
X218.873Y-48.564
X220.24Y-51.328
X221.332Y-132.792
X223.034Y-48.28
X225.807Y-60.387
T3
X122.303Y-49.2
X122.303Y-136.15
X123.006Y-47.503
X123.006Y-50.897
X123.006Y-134.453
X123.006Y-137.847
X124.703Y-46.8
X124.703Y-51.6
X124.703Y-133.75
X124.703Y-138.55
X126.4Y-47.503
X126.4Y-50.897
X126.4Y-134.453
X126.4Y-137.847
X127.103Y-49.2
X127.103Y-136.15
X170.806Y-130.73
X173.346Y-130.73
X189.5Y-130.6
X235.4Y-49.2
X235.403Y-136.15
X236.103Y-47.503
X236.103Y-50.897
X236.106Y-134.453
X236.106Y-137.847
X237.8Y-46.8
X237.8Y-51.6
X237.803Y-133.75
X237.803Y-138.55
X239.497Y-47.503
X239.497Y-50.897
X239.5Y-134.453
X239.5Y-137.847
X240.2Y-49.2
X240.203Y-136.15
T4
X142.24Y-106.854
X156.328Y-108.378
X158.868Y-96.694
T5
X176.57Y-62.738
X179.07Y-62.738
X181.57Y-62.738
X186.984Y-62.738
X189.484Y-62.738
X191.984Y-62.738
X197.358Y-62.738
X199.858Y-62.738
X202.358Y-62.738
T6
X124.9Y-57.76
X124.9Y-60.3
X124.9Y-62.84
X124.9Y-65.38
X124.9Y-67.92
X124.9Y-70.46
X145.346Y-109.262
X145.346Y-111.802
X147.886Y-109.262
X147.886Y-111.802
X150.426Y-109.262
X150.426Y-111.802
X158.106Y-124.38
X158.106Y-126.92
X160.646Y-124.38
X160.646Y-126.92
X163.186Y-124.38
X163.186Y-126.92
X165.726Y-124.38
X165.726Y-126.92
X168.266Y-124.38
X168.266Y-126.92
X170.806Y-124.38
X170.806Y-126.92
X173.346Y-124.38
X173.346Y-126.92
X175.886Y-124.38
X175.886Y-126.92
X178.426Y-124.38
X178.426Y-126.92
X180.966Y-124.38
X180.966Y-126.92
X183.506Y-124.38
X183.506Y-126.92
X186.046Y-124.38
X186.046Y-126.92
X188.586Y-124.38
X188.586Y-126.92
X191.126Y-124.38
X191.126Y-126.92
X193.666Y-124.38
X193.666Y-126.92
X193.96Y-131.2
X196.206Y-124.38
X196.206Y-126.92
X196.5Y-131.2
X198.746Y-124.38
X198.746Y-126.92
X201.286Y-124.38
X201.286Y-126.92
X203.826Y-124.38
X203.826Y-126.92
X206.366Y-124.38
X206.366Y-126.92
X206.778Y-54.018
X207.3Y-61.7
X209.318Y-54.018
X211.328Y-61.7
X211.858Y-54.018
X218.43Y-54.018
X220.97Y-54.018
X223.51Y-54.018
X230.523Y-57.404
X230.523Y-59.944
X230.523Y-62.484
T7
X134.062Y-58.03
X138.562Y-58.03
X147.32Y-62.992
X149.86Y-62.992
X152.4Y-62.992
X163.068Y-62.992
X165.608Y-62.992
X168.148Y-62.992
T8
X132.502Y-60.57
X140.122Y-60.57
X220.844Y-94.361
X220.844Y-96.901
X220.844Y-99.441
X220.844Y-104.775
X220.844Y-107.315
X220.844Y-109.855
X220.844Y-125.65
X220.844Y-128.19
X220.844Y-130.73
X220.853Y-115.189
X220.853Y-117.729
X220.853Y-120.269
X225.924Y-94.361
X225.924Y-96.901
X225.924Y-99.441
X225.924Y-104.775
X225.924Y-107.315
X225.924Y-109.855
X225.924Y-125.65
X225.924Y-128.19
X225.924Y-130.73
X225.933Y-115.189
X225.933Y-117.729
X225.933Y-120.269
T9
X134.484Y-135.91
X134.484Y-148.41
X139.564Y-135.91
X139.564Y-148.41
X147.184Y-135.91
X147.184Y-148.41
X152.264Y-135.91
X152.264Y-148.41
X159.884Y-135.91
X159.884Y-148.41
X164.964Y-135.91
X164.964Y-148.41
X172.584Y-135.91
X172.584Y-148.41
X177.664Y-135.91
X177.664Y-148.41
X185.284Y-135.91
X185.284Y-148.41
X190.364Y-135.91
X190.364Y-148.41
X197.984Y-135.91
X197.984Y-148.41
X203.064Y-135.91
X203.064Y-148.41
X210.684Y-135.91
X210.684Y-148.41
X215.764Y-135.91
X215.764Y-148.41
X223.384Y-135.91
X223.384Y-148.41
X228.464Y-135.91
X228.464Y-148.41
T10
X219.574Y-68.58
X219.574Y-73.66
X219.583Y-81.534
X219.583Y-86.614
X227.194Y-68.58
X227.194Y-73.66
X227.203Y-81.534
X227.203Y-86.614
T12
X209.318Y-46.502
X221.002Y-46.502
T13
X124.703Y-49.2
X124.703Y-136.15
X237.8Y-49.2
X237.803Y-136.15
T11
X144.86Y-66.442G85X144.86Y-66.142
G05
X154.86Y-66.442G85X154.86Y-66.142
G05
X160.608Y-66.442G85X160.608Y-66.142
G05
X170.608Y-66.442G85X170.608Y-66.142
G05
T0
M30
