%TF.GenerationSoftware,KiCad,Pcbnew,7.0.9-29-ge2d8d53a10*%
%TF.CreationDate,2023-11-19T17:16:11+01:00*%
%TF.ProjectId,scan-controller-kicad,7363616e-2d63-46f6-9e74-726f6c6c6572,rev?*%
%TF.SameCoordinates,Original*%
%TF.FileFunction,Drillmap*%
%TF.FilePolarity,Positive*%
%FSLAX45Y45*%
G04 Gerber Fmt 4.5, Leading zero omitted, Abs format (unit mm)*
G04 Created by KiCad (PCBNEW 7.0.9-29-ge2d8d53a10) date 2023-11-19 17:16:11*
%MOMM*%
%LPD*%
G01*
G04 APERTURE LIST*
%ADD10C,0.100000*%
%ADD11C,0.200000*%
%ADD12C,0.180000*%
G04 APERTURE END LIST*
D10*
X21338200Y-5590000D02*
X21338200Y-4777200D01*
X20855600Y-4447000D02*
G75*
G03*
X20525400Y-4777200I0J-330200D01*
G01*
X22506600Y-4777200D02*
X22506600Y-5590000D01*
X21008000Y-4447000D02*
X20855600Y-4447000D01*
X23330000Y-4920000D02*
X23330000Y-5590000D01*
X12920000Y-4920000D02*
X12920000Y-5590000D01*
X12020294Y-4920000D02*
X12013109Y-15240000D01*
X21693800Y-4777200D02*
X21693800Y-5590000D01*
X22024000Y-4447000D02*
G75*
G03*
X21693800Y-4777200I0J-330200D01*
G01*
X12013101Y-15240000D02*
G75*
G03*
X12515722Y-15748000I508039J10D01*
G01*
X12920294Y-4920000D02*
G75*
G03*
X12020294Y-4920000I-450000J0D01*
G01*
X24230000Y-4920000D02*
X24230000Y-15240000D01*
X22506600Y-4777200D02*
G75*
G03*
X22176400Y-4447000I-330200J0D01*
G01*
X21693800Y-5590000D02*
X21338200Y-5590000D01*
X23720000Y-15749210D02*
G75*
G03*
X24229210Y-15240000I0J509210D01*
G01*
X20525400Y-4777200D02*
X20524400Y-5587292D01*
X12920000Y-5590000D02*
X20524400Y-5587292D01*
X24230000Y-4920000D02*
G75*
G03*
X23330000Y-4920000I-450000J0D01*
G01*
X23720000Y-15749210D02*
X12515722Y-15748000D01*
X22176400Y-4447000D02*
X22024000Y-4447000D01*
X21338200Y-4777200D02*
G75*
G03*
X21008000Y-4447000I-330200J0D01*
G01*
X23330000Y-5590000D02*
X22506600Y-5590000D01*
D11*
D10*
X20527000Y-5539600D02*
X20577000Y-5589600D01*
X20577000Y-5539600D02*
X20527000Y-5589600D01*
X20602000Y-5539600D02*
X20652000Y-5589600D01*
X20652000Y-5539600D02*
X20602000Y-5589600D01*
X20677000Y-5539600D02*
X20727000Y-5589600D01*
X20727000Y-5539600D02*
X20677000Y-5589600D01*
X20752000Y-5539600D02*
X20802000Y-5589600D01*
X20802000Y-5539600D02*
X20752000Y-5589600D01*
X20827000Y-5539600D02*
X20877000Y-5589600D01*
X20877000Y-5539600D02*
X20827000Y-5589600D01*
X20902000Y-5539600D02*
X20952000Y-5589600D01*
X20952000Y-5539600D02*
X20902000Y-5589600D01*
X20977000Y-5539600D02*
X21027000Y-5589600D01*
X21027000Y-5539600D02*
X20977000Y-5589600D01*
X21052000Y-5539600D02*
X21102000Y-5589600D01*
X21102000Y-5539600D02*
X21052000Y-5589600D01*
X21127000Y-5539600D02*
X21177000Y-5589600D01*
X21177000Y-5539600D02*
X21127000Y-5589600D01*
X21202000Y-5539600D02*
X21252000Y-5589600D01*
X21252000Y-5539600D02*
X21202000Y-5589600D01*
X21277000Y-5539600D02*
X21327000Y-5589600D01*
X21327000Y-5539600D02*
X21277000Y-5589600D01*
X21700200Y-5539600D02*
X21750200Y-5589600D01*
X21750200Y-5539600D02*
X21700200Y-5589600D01*
X21775200Y-5539600D02*
X21825200Y-5589600D01*
X21825200Y-5539600D02*
X21775200Y-5589600D01*
X21850200Y-5539600D02*
X21900200Y-5589600D01*
X21900200Y-5539600D02*
X21850200Y-5589600D01*
X21925200Y-5539600D02*
X21975200Y-5589600D01*
X21975200Y-5539600D02*
X21925200Y-5589600D01*
X22000200Y-5539600D02*
X22050200Y-5589600D01*
X22050200Y-5539600D02*
X22000200Y-5589600D01*
X22075200Y-5539600D02*
X22125200Y-5589600D01*
X22125200Y-5539600D02*
X22075200Y-5589600D01*
X22150200Y-5539600D02*
X22200200Y-5589600D01*
X22200200Y-5539600D02*
X22150200Y-5589600D01*
X22225200Y-5539600D02*
X22275200Y-5589600D01*
X22275200Y-5539600D02*
X22225200Y-5589600D01*
X22300200Y-5539600D02*
X22350200Y-5589600D01*
X22350200Y-5539600D02*
X22300200Y-5589600D01*
X22375200Y-5539600D02*
X22425200Y-5589600D01*
X22425200Y-5539600D02*
X22375200Y-5589600D01*
X22450200Y-5539600D02*
X22500200Y-5589600D01*
X22500200Y-5539600D02*
X22450200Y-5589600D01*
X22017400Y-6048900D02*
G75*
G03*
X22017400Y-6048900I-45000J0D01*
G01*
X22317400Y-6048900D02*
G75*
G03*
X22317400Y-6048900I-45000J0D01*
G01*
D12*
X13252359Y-14125976D02*
X13252359Y-14305976D01*
X13162359Y-14215976D02*
X13342359Y-14215976D01*
X14152359Y-14125976D02*
X14152359Y-14305976D01*
X14062359Y-14215976D02*
X14242359Y-14215976D01*
X14522359Y-14125976D02*
X14522359Y-14305976D01*
X14432359Y-14215976D02*
X14612359Y-14215976D01*
X15422359Y-14125976D02*
X15422359Y-14305976D01*
X15332359Y-14215976D02*
X15512359Y-14215976D01*
X15792359Y-14125976D02*
X15792359Y-14305976D01*
X15702359Y-14215976D02*
X15882359Y-14215976D01*
X16692359Y-14125976D02*
X16692359Y-14305976D01*
X16602359Y-14215976D02*
X16782359Y-14215976D01*
X17062359Y-14125976D02*
X17062359Y-14305976D01*
X16972359Y-14215976D02*
X17152359Y-14215976D01*
X17962359Y-14125976D02*
X17962359Y-14305976D01*
X17872359Y-14215976D02*
X18052359Y-14215976D01*
X18332359Y-14125976D02*
X18332359Y-14305976D01*
X18242359Y-14215976D02*
X18422359Y-14215976D01*
X19232359Y-14125976D02*
X19232359Y-14305976D01*
X19142359Y-14215976D02*
X19322359Y-14215976D01*
X19602359Y-14125976D02*
X19602359Y-14305976D01*
X19512359Y-14215976D02*
X19692359Y-14215976D01*
X20502359Y-14125976D02*
X20502359Y-14305976D01*
X20412359Y-14215976D02*
X20592359Y-14215976D01*
X20872359Y-14125976D02*
X20872359Y-14305976D01*
X20782359Y-14215976D02*
X20962359Y-14215976D01*
X21772359Y-14125976D02*
X21772359Y-14305976D01*
X21682359Y-14215976D02*
X21862359Y-14215976D01*
X22142359Y-14125976D02*
X22142359Y-14305976D01*
X22052359Y-14215976D02*
X22232359Y-14215976D01*
X23042359Y-14125976D02*
X23042359Y-14305976D01*
X22952359Y-14215976D02*
X23132359Y-14215976D01*
D11*
X12268886Y-16065694D02*
X12268886Y-15865694D01*
X12268886Y-15865694D02*
X12316505Y-15865694D01*
X12316505Y-15865694D02*
X12345076Y-15875218D01*
X12345076Y-15875218D02*
X12364124Y-15894265D01*
X12364124Y-15894265D02*
X12373648Y-15913313D01*
X12373648Y-15913313D02*
X12383172Y-15951408D01*
X12383172Y-15951408D02*
X12383172Y-15979979D01*
X12383172Y-15979979D02*
X12373648Y-16018075D01*
X12373648Y-16018075D02*
X12364124Y-16037122D01*
X12364124Y-16037122D02*
X12345076Y-16056170D01*
X12345076Y-16056170D02*
X12316505Y-16065694D01*
X12316505Y-16065694D02*
X12268886Y-16065694D01*
X12468886Y-16065694D02*
X12468886Y-15932360D01*
X12468886Y-15970456D02*
X12478410Y-15951408D01*
X12478410Y-15951408D02*
X12487933Y-15941884D01*
X12487933Y-15941884D02*
X12506981Y-15932360D01*
X12506981Y-15932360D02*
X12526029Y-15932360D01*
X12592695Y-16065694D02*
X12592695Y-15932360D01*
X12592695Y-15865694D02*
X12583172Y-15875218D01*
X12583172Y-15875218D02*
X12592695Y-15884741D01*
X12592695Y-15884741D02*
X12602219Y-15875218D01*
X12602219Y-15875218D02*
X12592695Y-15865694D01*
X12592695Y-15865694D02*
X12592695Y-15884741D01*
X12716505Y-16065694D02*
X12697457Y-16056170D01*
X12697457Y-16056170D02*
X12687933Y-16037122D01*
X12687933Y-16037122D02*
X12687933Y-15865694D01*
X12821267Y-16065694D02*
X12802219Y-16056170D01*
X12802219Y-16056170D02*
X12792695Y-16037122D01*
X12792695Y-16037122D02*
X12792695Y-15865694D01*
X13049838Y-16065694D02*
X13049838Y-15865694D01*
X13049838Y-15865694D02*
X13116505Y-16008551D01*
X13116505Y-16008551D02*
X13183172Y-15865694D01*
X13183172Y-15865694D02*
X13183172Y-16065694D01*
X13364124Y-16065694D02*
X13364124Y-15960932D01*
X13364124Y-15960932D02*
X13354600Y-15941884D01*
X13354600Y-15941884D02*
X13335553Y-15932360D01*
X13335553Y-15932360D02*
X13297457Y-15932360D01*
X13297457Y-15932360D02*
X13278410Y-15941884D01*
X13364124Y-16056170D02*
X13345076Y-16065694D01*
X13345076Y-16065694D02*
X13297457Y-16065694D01*
X13297457Y-16065694D02*
X13278410Y-16056170D01*
X13278410Y-16056170D02*
X13268886Y-16037122D01*
X13268886Y-16037122D02*
X13268886Y-16018075D01*
X13268886Y-16018075D02*
X13278410Y-15999027D01*
X13278410Y-15999027D02*
X13297457Y-15989503D01*
X13297457Y-15989503D02*
X13345076Y-15989503D01*
X13345076Y-15989503D02*
X13364124Y-15979979D01*
X13459362Y-15932360D02*
X13459362Y-16132360D01*
X13459362Y-15941884D02*
X13478410Y-15932360D01*
X13478410Y-15932360D02*
X13516505Y-15932360D01*
X13516505Y-15932360D02*
X13535553Y-15941884D01*
X13535553Y-15941884D02*
X13545076Y-15951408D01*
X13545076Y-15951408D02*
X13554600Y-15970456D01*
X13554600Y-15970456D02*
X13554600Y-16027598D01*
X13554600Y-16027598D02*
X13545076Y-16046646D01*
X13545076Y-16046646D02*
X13535553Y-16056170D01*
X13535553Y-16056170D02*
X13516505Y-16065694D01*
X13516505Y-16065694D02*
X13478410Y-16065694D01*
X13478410Y-16065694D02*
X13459362Y-16056170D01*
X13640314Y-16046646D02*
X13649838Y-16056170D01*
X13649838Y-16056170D02*
X13640314Y-16065694D01*
X13640314Y-16065694D02*
X13630791Y-16056170D01*
X13630791Y-16056170D02*
X13640314Y-16046646D01*
X13640314Y-16046646D02*
X13640314Y-16065694D01*
X13640314Y-15941884D02*
X13649838Y-15951408D01*
X13649838Y-15951408D02*
X13640314Y-15960932D01*
X13640314Y-15960932D02*
X13630791Y-15951408D01*
X13630791Y-15951408D02*
X13640314Y-15941884D01*
X13640314Y-15941884D02*
X13640314Y-15960932D01*
D10*
X11958109Y-16369210D02*
X12008109Y-16419210D01*
X12008109Y-16369210D02*
X11958109Y-16419210D01*
D11*
X12306981Y-16285694D02*
X12326029Y-16285694D01*
X12326029Y-16285694D02*
X12345076Y-16295218D01*
X12345076Y-16295218D02*
X12354600Y-16304741D01*
X12354600Y-16304741D02*
X12364124Y-16323789D01*
X12364124Y-16323789D02*
X12373648Y-16361884D01*
X12373648Y-16361884D02*
X12373648Y-16409503D01*
X12373648Y-16409503D02*
X12364124Y-16447598D01*
X12364124Y-16447598D02*
X12354600Y-16466646D01*
X12354600Y-16466646D02*
X12345076Y-16476170D01*
X12345076Y-16476170D02*
X12326029Y-16485694D01*
X12326029Y-16485694D02*
X12306981Y-16485694D01*
X12306981Y-16485694D02*
X12287933Y-16476170D01*
X12287933Y-16476170D02*
X12278410Y-16466646D01*
X12278410Y-16466646D02*
X12268886Y-16447598D01*
X12268886Y-16447598D02*
X12259362Y-16409503D01*
X12259362Y-16409503D02*
X12259362Y-16361884D01*
X12259362Y-16361884D02*
X12268886Y-16323789D01*
X12268886Y-16323789D02*
X12278410Y-16304741D01*
X12278410Y-16304741D02*
X12287933Y-16295218D01*
X12287933Y-16295218D02*
X12306981Y-16285694D01*
X12459362Y-16466646D02*
X12468886Y-16476170D01*
X12468886Y-16476170D02*
X12459362Y-16485694D01*
X12459362Y-16485694D02*
X12449838Y-16476170D01*
X12449838Y-16476170D02*
X12459362Y-16466646D01*
X12459362Y-16466646D02*
X12459362Y-16485694D01*
X12649838Y-16285694D02*
X12554600Y-16285694D01*
X12554600Y-16285694D02*
X12545076Y-16380932D01*
X12545076Y-16380932D02*
X12554600Y-16371408D01*
X12554600Y-16371408D02*
X12573648Y-16361884D01*
X12573648Y-16361884D02*
X12621267Y-16361884D01*
X12621267Y-16361884D02*
X12640314Y-16371408D01*
X12640314Y-16371408D02*
X12649838Y-16380932D01*
X12649838Y-16380932D02*
X12659362Y-16399979D01*
X12659362Y-16399979D02*
X12659362Y-16447598D01*
X12659362Y-16447598D02*
X12649838Y-16466646D01*
X12649838Y-16466646D02*
X12640314Y-16476170D01*
X12640314Y-16476170D02*
X12621267Y-16485694D01*
X12621267Y-16485694D02*
X12573648Y-16485694D01*
X12573648Y-16485694D02*
X12554600Y-16476170D01*
X12554600Y-16476170D02*
X12545076Y-16466646D01*
X12783172Y-16285694D02*
X12802219Y-16285694D01*
X12802219Y-16285694D02*
X12821267Y-16295218D01*
X12821267Y-16295218D02*
X12830791Y-16304741D01*
X12830791Y-16304741D02*
X12840314Y-16323789D01*
X12840314Y-16323789D02*
X12849838Y-16361884D01*
X12849838Y-16361884D02*
X12849838Y-16409503D01*
X12849838Y-16409503D02*
X12840314Y-16447598D01*
X12840314Y-16447598D02*
X12830791Y-16466646D01*
X12830791Y-16466646D02*
X12821267Y-16476170D01*
X12821267Y-16476170D02*
X12802219Y-16485694D01*
X12802219Y-16485694D02*
X12783172Y-16485694D01*
X12783172Y-16485694D02*
X12764124Y-16476170D01*
X12764124Y-16476170D02*
X12754600Y-16466646D01*
X12754600Y-16466646D02*
X12745076Y-16447598D01*
X12745076Y-16447598D02*
X12735553Y-16409503D01*
X12735553Y-16409503D02*
X12735553Y-16361884D01*
X12735553Y-16361884D02*
X12745076Y-16323789D01*
X12745076Y-16323789D02*
X12754600Y-16304741D01*
X12754600Y-16304741D02*
X12764124Y-16295218D01*
X12764124Y-16295218D02*
X12783172Y-16285694D01*
X12973648Y-16285694D02*
X12992695Y-16285694D01*
X12992695Y-16285694D02*
X13011743Y-16295218D01*
X13011743Y-16295218D02*
X13021267Y-16304741D01*
X13021267Y-16304741D02*
X13030791Y-16323789D01*
X13030791Y-16323789D02*
X13040314Y-16361884D01*
X13040314Y-16361884D02*
X13040314Y-16409503D01*
X13040314Y-16409503D02*
X13030791Y-16447598D01*
X13030791Y-16447598D02*
X13021267Y-16466646D01*
X13021267Y-16466646D02*
X13011743Y-16476170D01*
X13011743Y-16476170D02*
X12992695Y-16485694D01*
X12992695Y-16485694D02*
X12973648Y-16485694D01*
X12973648Y-16485694D02*
X12954600Y-16476170D01*
X12954600Y-16476170D02*
X12945076Y-16466646D01*
X12945076Y-16466646D02*
X12935553Y-16447598D01*
X12935553Y-16447598D02*
X12926029Y-16409503D01*
X12926029Y-16409503D02*
X12926029Y-16361884D01*
X12926029Y-16361884D02*
X12935553Y-16323789D01*
X12935553Y-16323789D02*
X12945076Y-16304741D01*
X12945076Y-16304741D02*
X12954600Y-16295218D01*
X12954600Y-16295218D02*
X12973648Y-16285694D01*
X13126029Y-16485694D02*
X13126029Y-16352360D01*
X13126029Y-16371408D02*
X13135553Y-16361884D01*
X13135553Y-16361884D02*
X13154600Y-16352360D01*
X13154600Y-16352360D02*
X13183172Y-16352360D01*
X13183172Y-16352360D02*
X13202219Y-16361884D01*
X13202219Y-16361884D02*
X13211743Y-16380932D01*
X13211743Y-16380932D02*
X13211743Y-16485694D01*
X13211743Y-16380932D02*
X13221267Y-16361884D01*
X13221267Y-16361884D02*
X13240314Y-16352360D01*
X13240314Y-16352360D02*
X13268886Y-16352360D01*
X13268886Y-16352360D02*
X13287934Y-16361884D01*
X13287934Y-16361884D02*
X13297457Y-16380932D01*
X13297457Y-16380932D02*
X13297457Y-16485694D01*
X13392695Y-16485694D02*
X13392695Y-16352360D01*
X13392695Y-16371408D02*
X13402219Y-16361884D01*
X13402219Y-16361884D02*
X13421267Y-16352360D01*
X13421267Y-16352360D02*
X13449838Y-16352360D01*
X13449838Y-16352360D02*
X13468886Y-16361884D01*
X13468886Y-16361884D02*
X13478410Y-16380932D01*
X13478410Y-16380932D02*
X13478410Y-16485694D01*
X13478410Y-16380932D02*
X13487934Y-16361884D01*
X13487934Y-16361884D02*
X13506981Y-16352360D01*
X13506981Y-16352360D02*
X13535553Y-16352360D01*
X13535553Y-16352360D02*
X13554600Y-16361884D01*
X13554600Y-16361884D02*
X13564124Y-16380932D01*
X13564124Y-16380932D02*
X13564124Y-16485694D01*
X13954600Y-16276170D02*
X13783172Y-16533313D01*
X14211743Y-16285694D02*
X14230791Y-16285694D01*
X14230791Y-16285694D02*
X14249838Y-16295218D01*
X14249838Y-16295218D02*
X14259362Y-16304741D01*
X14259362Y-16304741D02*
X14268886Y-16323789D01*
X14268886Y-16323789D02*
X14278410Y-16361884D01*
X14278410Y-16361884D02*
X14278410Y-16409503D01*
X14278410Y-16409503D02*
X14268886Y-16447598D01*
X14268886Y-16447598D02*
X14259362Y-16466646D01*
X14259362Y-16466646D02*
X14249838Y-16476170D01*
X14249838Y-16476170D02*
X14230791Y-16485694D01*
X14230791Y-16485694D02*
X14211743Y-16485694D01*
X14211743Y-16485694D02*
X14192696Y-16476170D01*
X14192696Y-16476170D02*
X14183172Y-16466646D01*
X14183172Y-16466646D02*
X14173648Y-16447598D01*
X14173648Y-16447598D02*
X14164124Y-16409503D01*
X14164124Y-16409503D02*
X14164124Y-16361884D01*
X14164124Y-16361884D02*
X14173648Y-16323789D01*
X14173648Y-16323789D02*
X14183172Y-16304741D01*
X14183172Y-16304741D02*
X14192696Y-16295218D01*
X14192696Y-16295218D02*
X14211743Y-16285694D01*
X14364124Y-16466646D02*
X14373648Y-16476170D01*
X14373648Y-16476170D02*
X14364124Y-16485694D01*
X14364124Y-16485694D02*
X14354600Y-16476170D01*
X14354600Y-16476170D02*
X14364124Y-16466646D01*
X14364124Y-16466646D02*
X14364124Y-16485694D01*
X14497457Y-16285694D02*
X14516505Y-16285694D01*
X14516505Y-16285694D02*
X14535553Y-16295218D01*
X14535553Y-16295218D02*
X14545077Y-16304741D01*
X14545077Y-16304741D02*
X14554600Y-16323789D01*
X14554600Y-16323789D02*
X14564124Y-16361884D01*
X14564124Y-16361884D02*
X14564124Y-16409503D01*
X14564124Y-16409503D02*
X14554600Y-16447598D01*
X14554600Y-16447598D02*
X14545077Y-16466646D01*
X14545077Y-16466646D02*
X14535553Y-16476170D01*
X14535553Y-16476170D02*
X14516505Y-16485694D01*
X14516505Y-16485694D02*
X14497457Y-16485694D01*
X14497457Y-16485694D02*
X14478410Y-16476170D01*
X14478410Y-16476170D02*
X14468886Y-16466646D01*
X14468886Y-16466646D02*
X14459362Y-16447598D01*
X14459362Y-16447598D02*
X14449838Y-16409503D01*
X14449838Y-16409503D02*
X14449838Y-16361884D01*
X14449838Y-16361884D02*
X14459362Y-16323789D01*
X14459362Y-16323789D02*
X14468886Y-16304741D01*
X14468886Y-16304741D02*
X14478410Y-16295218D01*
X14478410Y-16295218D02*
X14497457Y-16285694D01*
X14754600Y-16485694D02*
X14640315Y-16485694D01*
X14697457Y-16485694D02*
X14697457Y-16285694D01*
X14697457Y-16285694D02*
X14678410Y-16314265D01*
X14678410Y-16314265D02*
X14659362Y-16333313D01*
X14659362Y-16333313D02*
X14640315Y-16342837D01*
X14849838Y-16485694D02*
X14887934Y-16485694D01*
X14887934Y-16485694D02*
X14906981Y-16476170D01*
X14906981Y-16476170D02*
X14916505Y-16466646D01*
X14916505Y-16466646D02*
X14935553Y-16438075D01*
X14935553Y-16438075D02*
X14945077Y-16399979D01*
X14945077Y-16399979D02*
X14945077Y-16323789D01*
X14945077Y-16323789D02*
X14935553Y-16304741D01*
X14935553Y-16304741D02*
X14926029Y-16295218D01*
X14926029Y-16295218D02*
X14906981Y-16285694D01*
X14906981Y-16285694D02*
X14868886Y-16285694D01*
X14868886Y-16285694D02*
X14849838Y-16295218D01*
X14849838Y-16295218D02*
X14840315Y-16304741D01*
X14840315Y-16304741D02*
X14830791Y-16323789D01*
X14830791Y-16323789D02*
X14830791Y-16371408D01*
X14830791Y-16371408D02*
X14840315Y-16390456D01*
X14840315Y-16390456D02*
X14849838Y-16399979D01*
X14849838Y-16399979D02*
X14868886Y-16409503D01*
X14868886Y-16409503D02*
X14906981Y-16409503D01*
X14906981Y-16409503D02*
X14926029Y-16399979D01*
X14926029Y-16399979D02*
X14935553Y-16390456D01*
X14935553Y-16390456D02*
X14945077Y-16371408D01*
X15011743Y-16285694D02*
X15145077Y-16285694D01*
X15145077Y-16285694D02*
X15059362Y-16485694D01*
X15211743Y-16285694D02*
X15211743Y-16323789D01*
X15287934Y-16285694D02*
X15287934Y-16323789D01*
X15583172Y-16561884D02*
X15573648Y-16552360D01*
X15573648Y-16552360D02*
X15554600Y-16523789D01*
X15554600Y-16523789D02*
X15545077Y-16504741D01*
X15545077Y-16504741D02*
X15535553Y-16476170D01*
X15535553Y-16476170D02*
X15526029Y-16428551D01*
X15526029Y-16428551D02*
X15526029Y-16390456D01*
X15526029Y-16390456D02*
X15535553Y-16342837D01*
X15535553Y-16342837D02*
X15545077Y-16314265D01*
X15545077Y-16314265D02*
X15554600Y-16295218D01*
X15554600Y-16295218D02*
X15573648Y-16266646D01*
X15573648Y-16266646D02*
X15583172Y-16257122D01*
X15649839Y-16304741D02*
X15659362Y-16295218D01*
X15659362Y-16295218D02*
X15678410Y-16285694D01*
X15678410Y-16285694D02*
X15726029Y-16285694D01*
X15726029Y-16285694D02*
X15745077Y-16295218D01*
X15745077Y-16295218D02*
X15754600Y-16304741D01*
X15754600Y-16304741D02*
X15764124Y-16323789D01*
X15764124Y-16323789D02*
X15764124Y-16342837D01*
X15764124Y-16342837D02*
X15754600Y-16371408D01*
X15754600Y-16371408D02*
X15640315Y-16485694D01*
X15640315Y-16485694D02*
X15764124Y-16485694D01*
X15840315Y-16304741D02*
X15849839Y-16295218D01*
X15849839Y-16295218D02*
X15868886Y-16285694D01*
X15868886Y-16285694D02*
X15916505Y-16285694D01*
X15916505Y-16285694D02*
X15935553Y-16295218D01*
X15935553Y-16295218D02*
X15945077Y-16304741D01*
X15945077Y-16304741D02*
X15954600Y-16323789D01*
X15954600Y-16323789D02*
X15954600Y-16342837D01*
X15954600Y-16342837D02*
X15945077Y-16371408D01*
X15945077Y-16371408D02*
X15830791Y-16485694D01*
X15830791Y-16485694D02*
X15954600Y-16485694D01*
X16192696Y-16485694D02*
X16192696Y-16285694D01*
X16278410Y-16485694D02*
X16278410Y-16380932D01*
X16278410Y-16380932D02*
X16268886Y-16361884D01*
X16268886Y-16361884D02*
X16249839Y-16352360D01*
X16249839Y-16352360D02*
X16221267Y-16352360D01*
X16221267Y-16352360D02*
X16202220Y-16361884D01*
X16202220Y-16361884D02*
X16192696Y-16371408D01*
X16402220Y-16485694D02*
X16383172Y-16476170D01*
X16383172Y-16476170D02*
X16373648Y-16466646D01*
X16373648Y-16466646D02*
X16364124Y-16447598D01*
X16364124Y-16447598D02*
X16364124Y-16390456D01*
X16364124Y-16390456D02*
X16373648Y-16371408D01*
X16373648Y-16371408D02*
X16383172Y-16361884D01*
X16383172Y-16361884D02*
X16402220Y-16352360D01*
X16402220Y-16352360D02*
X16430791Y-16352360D01*
X16430791Y-16352360D02*
X16449839Y-16361884D01*
X16449839Y-16361884D02*
X16459362Y-16371408D01*
X16459362Y-16371408D02*
X16468886Y-16390456D01*
X16468886Y-16390456D02*
X16468886Y-16447598D01*
X16468886Y-16447598D02*
X16459362Y-16466646D01*
X16459362Y-16466646D02*
X16449839Y-16476170D01*
X16449839Y-16476170D02*
X16430791Y-16485694D01*
X16430791Y-16485694D02*
X16402220Y-16485694D01*
X16583172Y-16485694D02*
X16564124Y-16476170D01*
X16564124Y-16476170D02*
X16554601Y-16457122D01*
X16554601Y-16457122D02*
X16554601Y-16285694D01*
X16735553Y-16476170D02*
X16716505Y-16485694D01*
X16716505Y-16485694D02*
X16678410Y-16485694D01*
X16678410Y-16485694D02*
X16659362Y-16476170D01*
X16659362Y-16476170D02*
X16649839Y-16457122D01*
X16649839Y-16457122D02*
X16649839Y-16380932D01*
X16649839Y-16380932D02*
X16659362Y-16361884D01*
X16659362Y-16361884D02*
X16678410Y-16352360D01*
X16678410Y-16352360D02*
X16716505Y-16352360D01*
X16716505Y-16352360D02*
X16735553Y-16361884D01*
X16735553Y-16361884D02*
X16745077Y-16380932D01*
X16745077Y-16380932D02*
X16745077Y-16399979D01*
X16745077Y-16399979D02*
X16649839Y-16419027D01*
X16821267Y-16476170D02*
X16840315Y-16485694D01*
X16840315Y-16485694D02*
X16878410Y-16485694D01*
X16878410Y-16485694D02*
X16897458Y-16476170D01*
X16897458Y-16476170D02*
X16906982Y-16457122D01*
X16906982Y-16457122D02*
X16906982Y-16447598D01*
X16906982Y-16447598D02*
X16897458Y-16428551D01*
X16897458Y-16428551D02*
X16878410Y-16419027D01*
X16878410Y-16419027D02*
X16849839Y-16419027D01*
X16849839Y-16419027D02*
X16830791Y-16409503D01*
X16830791Y-16409503D02*
X16821267Y-16390456D01*
X16821267Y-16390456D02*
X16821267Y-16380932D01*
X16821267Y-16380932D02*
X16830791Y-16361884D01*
X16830791Y-16361884D02*
X16849839Y-16352360D01*
X16849839Y-16352360D02*
X16878410Y-16352360D01*
X16878410Y-16352360D02*
X16897458Y-16361884D01*
X16973648Y-16561884D02*
X16983172Y-16552360D01*
X16983172Y-16552360D02*
X17002220Y-16523789D01*
X17002220Y-16523789D02*
X17011744Y-16504741D01*
X17011744Y-16504741D02*
X17021267Y-16476170D01*
X17021267Y-16476170D02*
X17030791Y-16428551D01*
X17030791Y-16428551D02*
X17030791Y-16390456D01*
X17030791Y-16390456D02*
X17021267Y-16342837D01*
X17021267Y-16342837D02*
X17011744Y-16314265D01*
X17011744Y-16314265D02*
X17002220Y-16295218D01*
X17002220Y-16295218D02*
X16983172Y-16266646D01*
X16983172Y-16266646D02*
X16973648Y-16257122D01*
X17335553Y-16561884D02*
X17326029Y-16552360D01*
X17326029Y-16552360D02*
X17306982Y-16523789D01*
X17306982Y-16523789D02*
X17297458Y-16504741D01*
X17297458Y-16504741D02*
X17287934Y-16476170D01*
X17287934Y-16476170D02*
X17278410Y-16428551D01*
X17278410Y-16428551D02*
X17278410Y-16390456D01*
X17278410Y-16390456D02*
X17287934Y-16342837D01*
X17287934Y-16342837D02*
X17297458Y-16314265D01*
X17297458Y-16314265D02*
X17306982Y-16295218D01*
X17306982Y-16295218D02*
X17326029Y-16266646D01*
X17326029Y-16266646D02*
X17335553Y-16257122D01*
X17411744Y-16352360D02*
X17411744Y-16485694D01*
X17411744Y-16371408D02*
X17421267Y-16361884D01*
X17421267Y-16361884D02*
X17440315Y-16352360D01*
X17440315Y-16352360D02*
X17468886Y-16352360D01*
X17468886Y-16352360D02*
X17487934Y-16361884D01*
X17487934Y-16361884D02*
X17497458Y-16380932D01*
X17497458Y-16380932D02*
X17497458Y-16485694D01*
X17621267Y-16485694D02*
X17602220Y-16476170D01*
X17602220Y-16476170D02*
X17592696Y-16466646D01*
X17592696Y-16466646D02*
X17583172Y-16447598D01*
X17583172Y-16447598D02*
X17583172Y-16390456D01*
X17583172Y-16390456D02*
X17592696Y-16371408D01*
X17592696Y-16371408D02*
X17602220Y-16361884D01*
X17602220Y-16361884D02*
X17621267Y-16352360D01*
X17621267Y-16352360D02*
X17649839Y-16352360D01*
X17649839Y-16352360D02*
X17668886Y-16361884D01*
X17668886Y-16361884D02*
X17678410Y-16371408D01*
X17678410Y-16371408D02*
X17687934Y-16390456D01*
X17687934Y-16390456D02*
X17687934Y-16447598D01*
X17687934Y-16447598D02*
X17678410Y-16466646D01*
X17678410Y-16466646D02*
X17668886Y-16476170D01*
X17668886Y-16476170D02*
X17649839Y-16485694D01*
X17649839Y-16485694D02*
X17621267Y-16485694D01*
X17745077Y-16352360D02*
X17821267Y-16352360D01*
X17773648Y-16285694D02*
X17773648Y-16457122D01*
X17773648Y-16457122D02*
X17783172Y-16476170D01*
X17783172Y-16476170D02*
X17802220Y-16485694D01*
X17802220Y-16485694D02*
X17821267Y-16485694D01*
X18040315Y-16352360D02*
X18040315Y-16552360D01*
X18040315Y-16361884D02*
X18059363Y-16352360D01*
X18059363Y-16352360D02*
X18097458Y-16352360D01*
X18097458Y-16352360D02*
X18116506Y-16361884D01*
X18116506Y-16361884D02*
X18126029Y-16371408D01*
X18126029Y-16371408D02*
X18135553Y-16390456D01*
X18135553Y-16390456D02*
X18135553Y-16447598D01*
X18135553Y-16447598D02*
X18126029Y-16466646D01*
X18126029Y-16466646D02*
X18116506Y-16476170D01*
X18116506Y-16476170D02*
X18097458Y-16485694D01*
X18097458Y-16485694D02*
X18059363Y-16485694D01*
X18059363Y-16485694D02*
X18040315Y-16476170D01*
X18249839Y-16485694D02*
X18230791Y-16476170D01*
X18230791Y-16476170D02*
X18221267Y-16457122D01*
X18221267Y-16457122D02*
X18221267Y-16285694D01*
X18411744Y-16485694D02*
X18411744Y-16380932D01*
X18411744Y-16380932D02*
X18402220Y-16361884D01*
X18402220Y-16361884D02*
X18383172Y-16352360D01*
X18383172Y-16352360D02*
X18345077Y-16352360D01*
X18345077Y-16352360D02*
X18326029Y-16361884D01*
X18411744Y-16476170D02*
X18392696Y-16485694D01*
X18392696Y-16485694D02*
X18345077Y-16485694D01*
X18345077Y-16485694D02*
X18326029Y-16476170D01*
X18326029Y-16476170D02*
X18316506Y-16457122D01*
X18316506Y-16457122D02*
X18316506Y-16438075D01*
X18316506Y-16438075D02*
X18326029Y-16419027D01*
X18326029Y-16419027D02*
X18345077Y-16409503D01*
X18345077Y-16409503D02*
X18392696Y-16409503D01*
X18392696Y-16409503D02*
X18411744Y-16399979D01*
X18478410Y-16352360D02*
X18554601Y-16352360D01*
X18506982Y-16285694D02*
X18506982Y-16457122D01*
X18506982Y-16457122D02*
X18516506Y-16476170D01*
X18516506Y-16476170D02*
X18535553Y-16485694D01*
X18535553Y-16485694D02*
X18554601Y-16485694D01*
X18697458Y-16476170D02*
X18678410Y-16485694D01*
X18678410Y-16485694D02*
X18640315Y-16485694D01*
X18640315Y-16485694D02*
X18621267Y-16476170D01*
X18621267Y-16476170D02*
X18611744Y-16457122D01*
X18611744Y-16457122D02*
X18611744Y-16380932D01*
X18611744Y-16380932D02*
X18621267Y-16361884D01*
X18621267Y-16361884D02*
X18640315Y-16352360D01*
X18640315Y-16352360D02*
X18678410Y-16352360D01*
X18678410Y-16352360D02*
X18697458Y-16361884D01*
X18697458Y-16361884D02*
X18706982Y-16380932D01*
X18706982Y-16380932D02*
X18706982Y-16399979D01*
X18706982Y-16399979D02*
X18611744Y-16419027D01*
X18878410Y-16485694D02*
X18878410Y-16285694D01*
X18878410Y-16476170D02*
X18859363Y-16485694D01*
X18859363Y-16485694D02*
X18821267Y-16485694D01*
X18821267Y-16485694D02*
X18802220Y-16476170D01*
X18802220Y-16476170D02*
X18792696Y-16466646D01*
X18792696Y-16466646D02*
X18783172Y-16447598D01*
X18783172Y-16447598D02*
X18783172Y-16390456D01*
X18783172Y-16390456D02*
X18792696Y-16371408D01*
X18792696Y-16371408D02*
X18802220Y-16361884D01*
X18802220Y-16361884D02*
X18821267Y-16352360D01*
X18821267Y-16352360D02*
X18859363Y-16352360D01*
X18859363Y-16352360D02*
X18878410Y-16361884D01*
X18954601Y-16561884D02*
X18964125Y-16552360D01*
X18964125Y-16552360D02*
X18983172Y-16523789D01*
X18983172Y-16523789D02*
X18992696Y-16504741D01*
X18992696Y-16504741D02*
X19002220Y-16476170D01*
X19002220Y-16476170D02*
X19011744Y-16428551D01*
X19011744Y-16428551D02*
X19011744Y-16390456D01*
X19011744Y-16390456D02*
X19002220Y-16342837D01*
X19002220Y-16342837D02*
X18992696Y-16314265D01*
X18992696Y-16314265D02*
X18983172Y-16295218D01*
X18983172Y-16295218D02*
X18964125Y-16266646D01*
X18964125Y-16266646D02*
X18954601Y-16257122D01*
D10*
X12008109Y-16658210D02*
G75*
G03*
X12008109Y-16658210I-45000J0D01*
G01*
D11*
X12306981Y-16549694D02*
X12326029Y-16549694D01*
X12326029Y-16549694D02*
X12345076Y-16559218D01*
X12345076Y-16559218D02*
X12354600Y-16568741D01*
X12354600Y-16568741D02*
X12364124Y-16587789D01*
X12364124Y-16587789D02*
X12373648Y-16625884D01*
X12373648Y-16625884D02*
X12373648Y-16673503D01*
X12373648Y-16673503D02*
X12364124Y-16711598D01*
X12364124Y-16711598D02*
X12354600Y-16730646D01*
X12354600Y-16730646D02*
X12345076Y-16740170D01*
X12345076Y-16740170D02*
X12326029Y-16749694D01*
X12326029Y-16749694D02*
X12306981Y-16749694D01*
X12306981Y-16749694D02*
X12287933Y-16740170D01*
X12287933Y-16740170D02*
X12278410Y-16730646D01*
X12278410Y-16730646D02*
X12268886Y-16711598D01*
X12268886Y-16711598D02*
X12259362Y-16673503D01*
X12259362Y-16673503D02*
X12259362Y-16625884D01*
X12259362Y-16625884D02*
X12268886Y-16587789D01*
X12268886Y-16587789D02*
X12278410Y-16568741D01*
X12278410Y-16568741D02*
X12287933Y-16559218D01*
X12287933Y-16559218D02*
X12306981Y-16549694D01*
X12459362Y-16730646D02*
X12468886Y-16740170D01*
X12468886Y-16740170D02*
X12459362Y-16749694D01*
X12459362Y-16749694D02*
X12449838Y-16740170D01*
X12449838Y-16740170D02*
X12459362Y-16730646D01*
X12459362Y-16730646D02*
X12459362Y-16749694D01*
X12564124Y-16749694D02*
X12602219Y-16749694D01*
X12602219Y-16749694D02*
X12621267Y-16740170D01*
X12621267Y-16740170D02*
X12630791Y-16730646D01*
X12630791Y-16730646D02*
X12649838Y-16702075D01*
X12649838Y-16702075D02*
X12659362Y-16663979D01*
X12659362Y-16663979D02*
X12659362Y-16587789D01*
X12659362Y-16587789D02*
X12649838Y-16568741D01*
X12649838Y-16568741D02*
X12640314Y-16559218D01*
X12640314Y-16559218D02*
X12621267Y-16549694D01*
X12621267Y-16549694D02*
X12583172Y-16549694D01*
X12583172Y-16549694D02*
X12564124Y-16559218D01*
X12564124Y-16559218D02*
X12554600Y-16568741D01*
X12554600Y-16568741D02*
X12545076Y-16587789D01*
X12545076Y-16587789D02*
X12545076Y-16635408D01*
X12545076Y-16635408D02*
X12554600Y-16654456D01*
X12554600Y-16654456D02*
X12564124Y-16663979D01*
X12564124Y-16663979D02*
X12583172Y-16673503D01*
X12583172Y-16673503D02*
X12621267Y-16673503D01*
X12621267Y-16673503D02*
X12640314Y-16663979D01*
X12640314Y-16663979D02*
X12649838Y-16654456D01*
X12649838Y-16654456D02*
X12659362Y-16635408D01*
X12783172Y-16549694D02*
X12802219Y-16549694D01*
X12802219Y-16549694D02*
X12821267Y-16559218D01*
X12821267Y-16559218D02*
X12830791Y-16568741D01*
X12830791Y-16568741D02*
X12840314Y-16587789D01*
X12840314Y-16587789D02*
X12849838Y-16625884D01*
X12849838Y-16625884D02*
X12849838Y-16673503D01*
X12849838Y-16673503D02*
X12840314Y-16711598D01*
X12840314Y-16711598D02*
X12830791Y-16730646D01*
X12830791Y-16730646D02*
X12821267Y-16740170D01*
X12821267Y-16740170D02*
X12802219Y-16749694D01*
X12802219Y-16749694D02*
X12783172Y-16749694D01*
X12783172Y-16749694D02*
X12764124Y-16740170D01*
X12764124Y-16740170D02*
X12754600Y-16730646D01*
X12754600Y-16730646D02*
X12745076Y-16711598D01*
X12745076Y-16711598D02*
X12735553Y-16673503D01*
X12735553Y-16673503D02*
X12735553Y-16625884D01*
X12735553Y-16625884D02*
X12745076Y-16587789D01*
X12745076Y-16587789D02*
X12754600Y-16568741D01*
X12754600Y-16568741D02*
X12764124Y-16559218D01*
X12764124Y-16559218D02*
X12783172Y-16549694D01*
X12973648Y-16549694D02*
X12992695Y-16549694D01*
X12992695Y-16549694D02*
X13011743Y-16559218D01*
X13011743Y-16559218D02*
X13021267Y-16568741D01*
X13021267Y-16568741D02*
X13030791Y-16587789D01*
X13030791Y-16587789D02*
X13040314Y-16625884D01*
X13040314Y-16625884D02*
X13040314Y-16673503D01*
X13040314Y-16673503D02*
X13030791Y-16711598D01*
X13030791Y-16711598D02*
X13021267Y-16730646D01*
X13021267Y-16730646D02*
X13011743Y-16740170D01*
X13011743Y-16740170D02*
X12992695Y-16749694D01*
X12992695Y-16749694D02*
X12973648Y-16749694D01*
X12973648Y-16749694D02*
X12954600Y-16740170D01*
X12954600Y-16740170D02*
X12945076Y-16730646D01*
X12945076Y-16730646D02*
X12935553Y-16711598D01*
X12935553Y-16711598D02*
X12926029Y-16673503D01*
X12926029Y-16673503D02*
X12926029Y-16625884D01*
X12926029Y-16625884D02*
X12935553Y-16587789D01*
X12935553Y-16587789D02*
X12945076Y-16568741D01*
X12945076Y-16568741D02*
X12954600Y-16559218D01*
X12954600Y-16559218D02*
X12973648Y-16549694D01*
X13126029Y-16749694D02*
X13126029Y-16616360D01*
X13126029Y-16635408D02*
X13135553Y-16625884D01*
X13135553Y-16625884D02*
X13154600Y-16616360D01*
X13154600Y-16616360D02*
X13183172Y-16616360D01*
X13183172Y-16616360D02*
X13202219Y-16625884D01*
X13202219Y-16625884D02*
X13211743Y-16644932D01*
X13211743Y-16644932D02*
X13211743Y-16749694D01*
X13211743Y-16644932D02*
X13221267Y-16625884D01*
X13221267Y-16625884D02*
X13240314Y-16616360D01*
X13240314Y-16616360D02*
X13268886Y-16616360D01*
X13268886Y-16616360D02*
X13287934Y-16625884D01*
X13287934Y-16625884D02*
X13297457Y-16644932D01*
X13297457Y-16644932D02*
X13297457Y-16749694D01*
X13392695Y-16749694D02*
X13392695Y-16616360D01*
X13392695Y-16635408D02*
X13402219Y-16625884D01*
X13402219Y-16625884D02*
X13421267Y-16616360D01*
X13421267Y-16616360D02*
X13449838Y-16616360D01*
X13449838Y-16616360D02*
X13468886Y-16625884D01*
X13468886Y-16625884D02*
X13478410Y-16644932D01*
X13478410Y-16644932D02*
X13478410Y-16749694D01*
X13478410Y-16644932D02*
X13487934Y-16625884D01*
X13487934Y-16625884D02*
X13506981Y-16616360D01*
X13506981Y-16616360D02*
X13535553Y-16616360D01*
X13535553Y-16616360D02*
X13554600Y-16625884D01*
X13554600Y-16625884D02*
X13564124Y-16644932D01*
X13564124Y-16644932D02*
X13564124Y-16749694D01*
X13954600Y-16540170D02*
X13783172Y-16797313D01*
X14211743Y-16549694D02*
X14230791Y-16549694D01*
X14230791Y-16549694D02*
X14249838Y-16559218D01*
X14249838Y-16559218D02*
X14259362Y-16568741D01*
X14259362Y-16568741D02*
X14268886Y-16587789D01*
X14268886Y-16587789D02*
X14278410Y-16625884D01*
X14278410Y-16625884D02*
X14278410Y-16673503D01*
X14278410Y-16673503D02*
X14268886Y-16711598D01*
X14268886Y-16711598D02*
X14259362Y-16730646D01*
X14259362Y-16730646D02*
X14249838Y-16740170D01*
X14249838Y-16740170D02*
X14230791Y-16749694D01*
X14230791Y-16749694D02*
X14211743Y-16749694D01*
X14211743Y-16749694D02*
X14192696Y-16740170D01*
X14192696Y-16740170D02*
X14183172Y-16730646D01*
X14183172Y-16730646D02*
X14173648Y-16711598D01*
X14173648Y-16711598D02*
X14164124Y-16673503D01*
X14164124Y-16673503D02*
X14164124Y-16625884D01*
X14164124Y-16625884D02*
X14173648Y-16587789D01*
X14173648Y-16587789D02*
X14183172Y-16568741D01*
X14183172Y-16568741D02*
X14192696Y-16559218D01*
X14192696Y-16559218D02*
X14211743Y-16549694D01*
X14364124Y-16730646D02*
X14373648Y-16740170D01*
X14373648Y-16740170D02*
X14364124Y-16749694D01*
X14364124Y-16749694D02*
X14354600Y-16740170D01*
X14354600Y-16740170D02*
X14364124Y-16730646D01*
X14364124Y-16730646D02*
X14364124Y-16749694D01*
X14497457Y-16549694D02*
X14516505Y-16549694D01*
X14516505Y-16549694D02*
X14535553Y-16559218D01*
X14535553Y-16559218D02*
X14545077Y-16568741D01*
X14545077Y-16568741D02*
X14554600Y-16587789D01*
X14554600Y-16587789D02*
X14564124Y-16625884D01*
X14564124Y-16625884D02*
X14564124Y-16673503D01*
X14564124Y-16673503D02*
X14554600Y-16711598D01*
X14554600Y-16711598D02*
X14545077Y-16730646D01*
X14545077Y-16730646D02*
X14535553Y-16740170D01*
X14535553Y-16740170D02*
X14516505Y-16749694D01*
X14516505Y-16749694D02*
X14497457Y-16749694D01*
X14497457Y-16749694D02*
X14478410Y-16740170D01*
X14478410Y-16740170D02*
X14468886Y-16730646D01*
X14468886Y-16730646D02*
X14459362Y-16711598D01*
X14459362Y-16711598D02*
X14449838Y-16673503D01*
X14449838Y-16673503D02*
X14449838Y-16625884D01*
X14449838Y-16625884D02*
X14459362Y-16587789D01*
X14459362Y-16587789D02*
X14468886Y-16568741D01*
X14468886Y-16568741D02*
X14478410Y-16559218D01*
X14478410Y-16559218D02*
X14497457Y-16549694D01*
X14630791Y-16549694D02*
X14754600Y-16549694D01*
X14754600Y-16549694D02*
X14687934Y-16625884D01*
X14687934Y-16625884D02*
X14716505Y-16625884D01*
X14716505Y-16625884D02*
X14735553Y-16635408D01*
X14735553Y-16635408D02*
X14745077Y-16644932D01*
X14745077Y-16644932D02*
X14754600Y-16663979D01*
X14754600Y-16663979D02*
X14754600Y-16711598D01*
X14754600Y-16711598D02*
X14745077Y-16730646D01*
X14745077Y-16730646D02*
X14735553Y-16740170D01*
X14735553Y-16740170D02*
X14716505Y-16749694D01*
X14716505Y-16749694D02*
X14659362Y-16749694D01*
X14659362Y-16749694D02*
X14640315Y-16740170D01*
X14640315Y-16740170D02*
X14630791Y-16730646D01*
X14935553Y-16549694D02*
X14840315Y-16549694D01*
X14840315Y-16549694D02*
X14830791Y-16644932D01*
X14830791Y-16644932D02*
X14840315Y-16635408D01*
X14840315Y-16635408D02*
X14859362Y-16625884D01*
X14859362Y-16625884D02*
X14906981Y-16625884D01*
X14906981Y-16625884D02*
X14926029Y-16635408D01*
X14926029Y-16635408D02*
X14935553Y-16644932D01*
X14935553Y-16644932D02*
X14945077Y-16663979D01*
X14945077Y-16663979D02*
X14945077Y-16711598D01*
X14945077Y-16711598D02*
X14935553Y-16730646D01*
X14935553Y-16730646D02*
X14926029Y-16740170D01*
X14926029Y-16740170D02*
X14906981Y-16749694D01*
X14906981Y-16749694D02*
X14859362Y-16749694D01*
X14859362Y-16749694D02*
X14840315Y-16740170D01*
X14840315Y-16740170D02*
X14830791Y-16730646D01*
X15116505Y-16616360D02*
X15116505Y-16749694D01*
X15068886Y-16540170D02*
X15021267Y-16683027D01*
X15021267Y-16683027D02*
X15145077Y-16683027D01*
X15211743Y-16549694D02*
X15211743Y-16587789D01*
X15287934Y-16549694D02*
X15287934Y-16587789D01*
X15583172Y-16825884D02*
X15573648Y-16816360D01*
X15573648Y-16816360D02*
X15554600Y-16787789D01*
X15554600Y-16787789D02*
X15545077Y-16768741D01*
X15545077Y-16768741D02*
X15535553Y-16740170D01*
X15535553Y-16740170D02*
X15526029Y-16692551D01*
X15526029Y-16692551D02*
X15526029Y-16654456D01*
X15526029Y-16654456D02*
X15535553Y-16606837D01*
X15535553Y-16606837D02*
X15545077Y-16578265D01*
X15545077Y-16578265D02*
X15554600Y-16559218D01*
X15554600Y-16559218D02*
X15573648Y-16530646D01*
X15573648Y-16530646D02*
X15583172Y-16521122D01*
X15649839Y-16568741D02*
X15659362Y-16559218D01*
X15659362Y-16559218D02*
X15678410Y-16549694D01*
X15678410Y-16549694D02*
X15726029Y-16549694D01*
X15726029Y-16549694D02*
X15745077Y-16559218D01*
X15745077Y-16559218D02*
X15754600Y-16568741D01*
X15754600Y-16568741D02*
X15764124Y-16587789D01*
X15764124Y-16587789D02*
X15764124Y-16606837D01*
X15764124Y-16606837D02*
X15754600Y-16635408D01*
X15754600Y-16635408D02*
X15640315Y-16749694D01*
X15640315Y-16749694D02*
X15764124Y-16749694D01*
X16002220Y-16749694D02*
X16002220Y-16549694D01*
X16087934Y-16749694D02*
X16087934Y-16644932D01*
X16087934Y-16644932D02*
X16078410Y-16625884D01*
X16078410Y-16625884D02*
X16059362Y-16616360D01*
X16059362Y-16616360D02*
X16030791Y-16616360D01*
X16030791Y-16616360D02*
X16011743Y-16625884D01*
X16011743Y-16625884D02*
X16002220Y-16635408D01*
X16211743Y-16749694D02*
X16192696Y-16740170D01*
X16192696Y-16740170D02*
X16183172Y-16730646D01*
X16183172Y-16730646D02*
X16173648Y-16711598D01*
X16173648Y-16711598D02*
X16173648Y-16654456D01*
X16173648Y-16654456D02*
X16183172Y-16635408D01*
X16183172Y-16635408D02*
X16192696Y-16625884D01*
X16192696Y-16625884D02*
X16211743Y-16616360D01*
X16211743Y-16616360D02*
X16240315Y-16616360D01*
X16240315Y-16616360D02*
X16259362Y-16625884D01*
X16259362Y-16625884D02*
X16268886Y-16635408D01*
X16268886Y-16635408D02*
X16278410Y-16654456D01*
X16278410Y-16654456D02*
X16278410Y-16711598D01*
X16278410Y-16711598D02*
X16268886Y-16730646D01*
X16268886Y-16730646D02*
X16259362Y-16740170D01*
X16259362Y-16740170D02*
X16240315Y-16749694D01*
X16240315Y-16749694D02*
X16211743Y-16749694D01*
X16392696Y-16749694D02*
X16373648Y-16740170D01*
X16373648Y-16740170D02*
X16364124Y-16721122D01*
X16364124Y-16721122D02*
X16364124Y-16549694D01*
X16545077Y-16740170D02*
X16526029Y-16749694D01*
X16526029Y-16749694D02*
X16487934Y-16749694D01*
X16487934Y-16749694D02*
X16468886Y-16740170D01*
X16468886Y-16740170D02*
X16459362Y-16721122D01*
X16459362Y-16721122D02*
X16459362Y-16644932D01*
X16459362Y-16644932D02*
X16468886Y-16625884D01*
X16468886Y-16625884D02*
X16487934Y-16616360D01*
X16487934Y-16616360D02*
X16526029Y-16616360D01*
X16526029Y-16616360D02*
X16545077Y-16625884D01*
X16545077Y-16625884D02*
X16554601Y-16644932D01*
X16554601Y-16644932D02*
X16554601Y-16663979D01*
X16554601Y-16663979D02*
X16459362Y-16683027D01*
X16630791Y-16740170D02*
X16649839Y-16749694D01*
X16649839Y-16749694D02*
X16687934Y-16749694D01*
X16687934Y-16749694D02*
X16706982Y-16740170D01*
X16706982Y-16740170D02*
X16716505Y-16721122D01*
X16716505Y-16721122D02*
X16716505Y-16711598D01*
X16716505Y-16711598D02*
X16706982Y-16692551D01*
X16706982Y-16692551D02*
X16687934Y-16683027D01*
X16687934Y-16683027D02*
X16659362Y-16683027D01*
X16659362Y-16683027D02*
X16640315Y-16673503D01*
X16640315Y-16673503D02*
X16630791Y-16654456D01*
X16630791Y-16654456D02*
X16630791Y-16644932D01*
X16630791Y-16644932D02*
X16640315Y-16625884D01*
X16640315Y-16625884D02*
X16659362Y-16616360D01*
X16659362Y-16616360D02*
X16687934Y-16616360D01*
X16687934Y-16616360D02*
X16706982Y-16625884D01*
X16783172Y-16825884D02*
X16792696Y-16816360D01*
X16792696Y-16816360D02*
X16811744Y-16787789D01*
X16811744Y-16787789D02*
X16821267Y-16768741D01*
X16821267Y-16768741D02*
X16830791Y-16740170D01*
X16830791Y-16740170D02*
X16840315Y-16692551D01*
X16840315Y-16692551D02*
X16840315Y-16654456D01*
X16840315Y-16654456D02*
X16830791Y-16606837D01*
X16830791Y-16606837D02*
X16821267Y-16578265D01*
X16821267Y-16578265D02*
X16811744Y-16559218D01*
X16811744Y-16559218D02*
X16792696Y-16530646D01*
X16792696Y-16530646D02*
X16783172Y-16521122D01*
X17145077Y-16825884D02*
X17135553Y-16816360D01*
X17135553Y-16816360D02*
X17116505Y-16787789D01*
X17116505Y-16787789D02*
X17106982Y-16768741D01*
X17106982Y-16768741D02*
X17097458Y-16740170D01*
X17097458Y-16740170D02*
X17087934Y-16692551D01*
X17087934Y-16692551D02*
X17087934Y-16654456D01*
X17087934Y-16654456D02*
X17097458Y-16606837D01*
X17097458Y-16606837D02*
X17106982Y-16578265D01*
X17106982Y-16578265D02*
X17116505Y-16559218D01*
X17116505Y-16559218D02*
X17135553Y-16530646D01*
X17135553Y-16530646D02*
X17145077Y-16521122D01*
X17221267Y-16616360D02*
X17221267Y-16749694D01*
X17221267Y-16635408D02*
X17230791Y-16625884D01*
X17230791Y-16625884D02*
X17249839Y-16616360D01*
X17249839Y-16616360D02*
X17278410Y-16616360D01*
X17278410Y-16616360D02*
X17297458Y-16625884D01*
X17297458Y-16625884D02*
X17306982Y-16644932D01*
X17306982Y-16644932D02*
X17306982Y-16749694D01*
X17430791Y-16749694D02*
X17411744Y-16740170D01*
X17411744Y-16740170D02*
X17402220Y-16730646D01*
X17402220Y-16730646D02*
X17392696Y-16711598D01*
X17392696Y-16711598D02*
X17392696Y-16654456D01*
X17392696Y-16654456D02*
X17402220Y-16635408D01*
X17402220Y-16635408D02*
X17411744Y-16625884D01*
X17411744Y-16625884D02*
X17430791Y-16616360D01*
X17430791Y-16616360D02*
X17459363Y-16616360D01*
X17459363Y-16616360D02*
X17478410Y-16625884D01*
X17478410Y-16625884D02*
X17487934Y-16635408D01*
X17487934Y-16635408D02*
X17497458Y-16654456D01*
X17497458Y-16654456D02*
X17497458Y-16711598D01*
X17497458Y-16711598D02*
X17487934Y-16730646D01*
X17487934Y-16730646D02*
X17478410Y-16740170D01*
X17478410Y-16740170D02*
X17459363Y-16749694D01*
X17459363Y-16749694D02*
X17430791Y-16749694D01*
X17554601Y-16616360D02*
X17630791Y-16616360D01*
X17583172Y-16549694D02*
X17583172Y-16721122D01*
X17583172Y-16721122D02*
X17592696Y-16740170D01*
X17592696Y-16740170D02*
X17611744Y-16749694D01*
X17611744Y-16749694D02*
X17630791Y-16749694D01*
X17849839Y-16616360D02*
X17849839Y-16816360D01*
X17849839Y-16625884D02*
X17868886Y-16616360D01*
X17868886Y-16616360D02*
X17906982Y-16616360D01*
X17906982Y-16616360D02*
X17926029Y-16625884D01*
X17926029Y-16625884D02*
X17935553Y-16635408D01*
X17935553Y-16635408D02*
X17945077Y-16654456D01*
X17945077Y-16654456D02*
X17945077Y-16711598D01*
X17945077Y-16711598D02*
X17935553Y-16730646D01*
X17935553Y-16730646D02*
X17926029Y-16740170D01*
X17926029Y-16740170D02*
X17906982Y-16749694D01*
X17906982Y-16749694D02*
X17868886Y-16749694D01*
X17868886Y-16749694D02*
X17849839Y-16740170D01*
X18059363Y-16749694D02*
X18040315Y-16740170D01*
X18040315Y-16740170D02*
X18030791Y-16721122D01*
X18030791Y-16721122D02*
X18030791Y-16549694D01*
X18221267Y-16749694D02*
X18221267Y-16644932D01*
X18221267Y-16644932D02*
X18211744Y-16625884D01*
X18211744Y-16625884D02*
X18192696Y-16616360D01*
X18192696Y-16616360D02*
X18154601Y-16616360D01*
X18154601Y-16616360D02*
X18135553Y-16625884D01*
X18221267Y-16740170D02*
X18202220Y-16749694D01*
X18202220Y-16749694D02*
X18154601Y-16749694D01*
X18154601Y-16749694D02*
X18135553Y-16740170D01*
X18135553Y-16740170D02*
X18126029Y-16721122D01*
X18126029Y-16721122D02*
X18126029Y-16702075D01*
X18126029Y-16702075D02*
X18135553Y-16683027D01*
X18135553Y-16683027D02*
X18154601Y-16673503D01*
X18154601Y-16673503D02*
X18202220Y-16673503D01*
X18202220Y-16673503D02*
X18221267Y-16663979D01*
X18287934Y-16616360D02*
X18364125Y-16616360D01*
X18316506Y-16549694D02*
X18316506Y-16721122D01*
X18316506Y-16721122D02*
X18326029Y-16740170D01*
X18326029Y-16740170D02*
X18345077Y-16749694D01*
X18345077Y-16749694D02*
X18364125Y-16749694D01*
X18506982Y-16740170D02*
X18487934Y-16749694D01*
X18487934Y-16749694D02*
X18449839Y-16749694D01*
X18449839Y-16749694D02*
X18430791Y-16740170D01*
X18430791Y-16740170D02*
X18421267Y-16721122D01*
X18421267Y-16721122D02*
X18421267Y-16644932D01*
X18421267Y-16644932D02*
X18430791Y-16625884D01*
X18430791Y-16625884D02*
X18449839Y-16616360D01*
X18449839Y-16616360D02*
X18487934Y-16616360D01*
X18487934Y-16616360D02*
X18506982Y-16625884D01*
X18506982Y-16625884D02*
X18516506Y-16644932D01*
X18516506Y-16644932D02*
X18516506Y-16663979D01*
X18516506Y-16663979D02*
X18421267Y-16683027D01*
X18687934Y-16749694D02*
X18687934Y-16549694D01*
X18687934Y-16740170D02*
X18668887Y-16749694D01*
X18668887Y-16749694D02*
X18630791Y-16749694D01*
X18630791Y-16749694D02*
X18611744Y-16740170D01*
X18611744Y-16740170D02*
X18602220Y-16730646D01*
X18602220Y-16730646D02*
X18592696Y-16711598D01*
X18592696Y-16711598D02*
X18592696Y-16654456D01*
X18592696Y-16654456D02*
X18602220Y-16635408D01*
X18602220Y-16635408D02*
X18611744Y-16625884D01*
X18611744Y-16625884D02*
X18630791Y-16616360D01*
X18630791Y-16616360D02*
X18668887Y-16616360D01*
X18668887Y-16616360D02*
X18687934Y-16625884D01*
X18764125Y-16825884D02*
X18773648Y-16816360D01*
X18773648Y-16816360D02*
X18792696Y-16787789D01*
X18792696Y-16787789D02*
X18802220Y-16768741D01*
X18802220Y-16768741D02*
X18811744Y-16740170D01*
X18811744Y-16740170D02*
X18821267Y-16692551D01*
X18821267Y-16692551D02*
X18821267Y-16654456D01*
X18821267Y-16654456D02*
X18811744Y-16606837D01*
X18811744Y-16606837D02*
X18802220Y-16578265D01*
X18802220Y-16578265D02*
X18792696Y-16559218D01*
X18792696Y-16559218D02*
X18773648Y-16530646D01*
X18773648Y-16530646D02*
X18764125Y-16521122D01*
D12*
X11918109Y-16832210D02*
X11918109Y-17012210D01*
X11828109Y-16922210D02*
X12008109Y-16922210D01*
D11*
X12373648Y-17013694D02*
X12259362Y-17013694D01*
X12316505Y-17013694D02*
X12316505Y-16813694D01*
X12316505Y-16813694D02*
X12297457Y-16842265D01*
X12297457Y-16842265D02*
X12278410Y-16861313D01*
X12278410Y-16861313D02*
X12259362Y-16870837D01*
X12459362Y-16994646D02*
X12468886Y-17004170D01*
X12468886Y-17004170D02*
X12459362Y-17013694D01*
X12459362Y-17013694D02*
X12449838Y-17004170D01*
X12449838Y-17004170D02*
X12459362Y-16994646D01*
X12459362Y-16994646D02*
X12459362Y-17013694D01*
X12583172Y-16899408D02*
X12564124Y-16889884D01*
X12564124Y-16889884D02*
X12554600Y-16880360D01*
X12554600Y-16880360D02*
X12545076Y-16861313D01*
X12545076Y-16861313D02*
X12545076Y-16851789D01*
X12545076Y-16851789D02*
X12554600Y-16832741D01*
X12554600Y-16832741D02*
X12564124Y-16823218D01*
X12564124Y-16823218D02*
X12583172Y-16813694D01*
X12583172Y-16813694D02*
X12621267Y-16813694D01*
X12621267Y-16813694D02*
X12640314Y-16823218D01*
X12640314Y-16823218D02*
X12649838Y-16832741D01*
X12649838Y-16832741D02*
X12659362Y-16851789D01*
X12659362Y-16851789D02*
X12659362Y-16861313D01*
X12659362Y-16861313D02*
X12649838Y-16880360D01*
X12649838Y-16880360D02*
X12640314Y-16889884D01*
X12640314Y-16889884D02*
X12621267Y-16899408D01*
X12621267Y-16899408D02*
X12583172Y-16899408D01*
X12583172Y-16899408D02*
X12564124Y-16908932D01*
X12564124Y-16908932D02*
X12554600Y-16918456D01*
X12554600Y-16918456D02*
X12545076Y-16937503D01*
X12545076Y-16937503D02*
X12545076Y-16975599D01*
X12545076Y-16975599D02*
X12554600Y-16994646D01*
X12554600Y-16994646D02*
X12564124Y-17004170D01*
X12564124Y-17004170D02*
X12583172Y-17013694D01*
X12583172Y-17013694D02*
X12621267Y-17013694D01*
X12621267Y-17013694D02*
X12640314Y-17004170D01*
X12640314Y-17004170D02*
X12649838Y-16994646D01*
X12649838Y-16994646D02*
X12659362Y-16975599D01*
X12659362Y-16975599D02*
X12659362Y-16937503D01*
X12659362Y-16937503D02*
X12649838Y-16918456D01*
X12649838Y-16918456D02*
X12640314Y-16908932D01*
X12640314Y-16908932D02*
X12621267Y-16899408D01*
X12783172Y-16813694D02*
X12802219Y-16813694D01*
X12802219Y-16813694D02*
X12821267Y-16823218D01*
X12821267Y-16823218D02*
X12830791Y-16832741D01*
X12830791Y-16832741D02*
X12840314Y-16851789D01*
X12840314Y-16851789D02*
X12849838Y-16889884D01*
X12849838Y-16889884D02*
X12849838Y-16937503D01*
X12849838Y-16937503D02*
X12840314Y-16975599D01*
X12840314Y-16975599D02*
X12830791Y-16994646D01*
X12830791Y-16994646D02*
X12821267Y-17004170D01*
X12821267Y-17004170D02*
X12802219Y-17013694D01*
X12802219Y-17013694D02*
X12783172Y-17013694D01*
X12783172Y-17013694D02*
X12764124Y-17004170D01*
X12764124Y-17004170D02*
X12754600Y-16994646D01*
X12754600Y-16994646D02*
X12745076Y-16975599D01*
X12745076Y-16975599D02*
X12735553Y-16937503D01*
X12735553Y-16937503D02*
X12735553Y-16889884D01*
X12735553Y-16889884D02*
X12745076Y-16851789D01*
X12745076Y-16851789D02*
X12754600Y-16832741D01*
X12754600Y-16832741D02*
X12764124Y-16823218D01*
X12764124Y-16823218D02*
X12783172Y-16813694D01*
X12973648Y-16813694D02*
X12992695Y-16813694D01*
X12992695Y-16813694D02*
X13011743Y-16823218D01*
X13011743Y-16823218D02*
X13021267Y-16832741D01*
X13021267Y-16832741D02*
X13030791Y-16851789D01*
X13030791Y-16851789D02*
X13040314Y-16889884D01*
X13040314Y-16889884D02*
X13040314Y-16937503D01*
X13040314Y-16937503D02*
X13030791Y-16975599D01*
X13030791Y-16975599D02*
X13021267Y-16994646D01*
X13021267Y-16994646D02*
X13011743Y-17004170D01*
X13011743Y-17004170D02*
X12992695Y-17013694D01*
X12992695Y-17013694D02*
X12973648Y-17013694D01*
X12973648Y-17013694D02*
X12954600Y-17004170D01*
X12954600Y-17004170D02*
X12945076Y-16994646D01*
X12945076Y-16994646D02*
X12935553Y-16975599D01*
X12935553Y-16975599D02*
X12926029Y-16937503D01*
X12926029Y-16937503D02*
X12926029Y-16889884D01*
X12926029Y-16889884D02*
X12935553Y-16851789D01*
X12935553Y-16851789D02*
X12945076Y-16832741D01*
X12945076Y-16832741D02*
X12954600Y-16823218D01*
X12954600Y-16823218D02*
X12973648Y-16813694D01*
X13126029Y-17013694D02*
X13126029Y-16880360D01*
X13126029Y-16899408D02*
X13135553Y-16889884D01*
X13135553Y-16889884D02*
X13154600Y-16880360D01*
X13154600Y-16880360D02*
X13183172Y-16880360D01*
X13183172Y-16880360D02*
X13202219Y-16889884D01*
X13202219Y-16889884D02*
X13211743Y-16908932D01*
X13211743Y-16908932D02*
X13211743Y-17013694D01*
X13211743Y-16908932D02*
X13221267Y-16889884D01*
X13221267Y-16889884D02*
X13240314Y-16880360D01*
X13240314Y-16880360D02*
X13268886Y-16880360D01*
X13268886Y-16880360D02*
X13287934Y-16889884D01*
X13287934Y-16889884D02*
X13297457Y-16908932D01*
X13297457Y-16908932D02*
X13297457Y-17013694D01*
X13392695Y-17013694D02*
X13392695Y-16880360D01*
X13392695Y-16899408D02*
X13402219Y-16889884D01*
X13402219Y-16889884D02*
X13421267Y-16880360D01*
X13421267Y-16880360D02*
X13449838Y-16880360D01*
X13449838Y-16880360D02*
X13468886Y-16889884D01*
X13468886Y-16889884D02*
X13478410Y-16908932D01*
X13478410Y-16908932D02*
X13478410Y-17013694D01*
X13478410Y-16908932D02*
X13487934Y-16889884D01*
X13487934Y-16889884D02*
X13506981Y-16880360D01*
X13506981Y-16880360D02*
X13535553Y-16880360D01*
X13535553Y-16880360D02*
X13554600Y-16889884D01*
X13554600Y-16889884D02*
X13564124Y-16908932D01*
X13564124Y-16908932D02*
X13564124Y-17013694D01*
X13954600Y-16804170D02*
X13783172Y-17061313D01*
X14211743Y-16813694D02*
X14230791Y-16813694D01*
X14230791Y-16813694D02*
X14249838Y-16823218D01*
X14249838Y-16823218D02*
X14259362Y-16832741D01*
X14259362Y-16832741D02*
X14268886Y-16851789D01*
X14268886Y-16851789D02*
X14278410Y-16889884D01*
X14278410Y-16889884D02*
X14278410Y-16937503D01*
X14278410Y-16937503D02*
X14268886Y-16975599D01*
X14268886Y-16975599D02*
X14259362Y-16994646D01*
X14259362Y-16994646D02*
X14249838Y-17004170D01*
X14249838Y-17004170D02*
X14230791Y-17013694D01*
X14230791Y-17013694D02*
X14211743Y-17013694D01*
X14211743Y-17013694D02*
X14192696Y-17004170D01*
X14192696Y-17004170D02*
X14183172Y-16994646D01*
X14183172Y-16994646D02*
X14173648Y-16975599D01*
X14173648Y-16975599D02*
X14164124Y-16937503D01*
X14164124Y-16937503D02*
X14164124Y-16889884D01*
X14164124Y-16889884D02*
X14173648Y-16851789D01*
X14173648Y-16851789D02*
X14183172Y-16832741D01*
X14183172Y-16832741D02*
X14192696Y-16823218D01*
X14192696Y-16823218D02*
X14211743Y-16813694D01*
X14364124Y-16994646D02*
X14373648Y-17004170D01*
X14373648Y-17004170D02*
X14364124Y-17013694D01*
X14364124Y-17013694D02*
X14354600Y-17004170D01*
X14354600Y-17004170D02*
X14364124Y-16994646D01*
X14364124Y-16994646D02*
X14364124Y-17013694D01*
X14497457Y-16813694D02*
X14516505Y-16813694D01*
X14516505Y-16813694D02*
X14535553Y-16823218D01*
X14535553Y-16823218D02*
X14545077Y-16832741D01*
X14545077Y-16832741D02*
X14554600Y-16851789D01*
X14554600Y-16851789D02*
X14564124Y-16889884D01*
X14564124Y-16889884D02*
X14564124Y-16937503D01*
X14564124Y-16937503D02*
X14554600Y-16975599D01*
X14554600Y-16975599D02*
X14545077Y-16994646D01*
X14545077Y-16994646D02*
X14535553Y-17004170D01*
X14535553Y-17004170D02*
X14516505Y-17013694D01*
X14516505Y-17013694D02*
X14497457Y-17013694D01*
X14497457Y-17013694D02*
X14478410Y-17004170D01*
X14478410Y-17004170D02*
X14468886Y-16994646D01*
X14468886Y-16994646D02*
X14459362Y-16975599D01*
X14459362Y-16975599D02*
X14449838Y-16937503D01*
X14449838Y-16937503D02*
X14449838Y-16889884D01*
X14449838Y-16889884D02*
X14459362Y-16851789D01*
X14459362Y-16851789D02*
X14468886Y-16832741D01*
X14468886Y-16832741D02*
X14478410Y-16823218D01*
X14478410Y-16823218D02*
X14497457Y-16813694D01*
X14630791Y-16813694D02*
X14764124Y-16813694D01*
X14764124Y-16813694D02*
X14678410Y-17013694D01*
X14878410Y-16813694D02*
X14897458Y-16813694D01*
X14897458Y-16813694D02*
X14916505Y-16823218D01*
X14916505Y-16823218D02*
X14926029Y-16832741D01*
X14926029Y-16832741D02*
X14935553Y-16851789D01*
X14935553Y-16851789D02*
X14945077Y-16889884D01*
X14945077Y-16889884D02*
X14945077Y-16937503D01*
X14945077Y-16937503D02*
X14935553Y-16975599D01*
X14935553Y-16975599D02*
X14926029Y-16994646D01*
X14926029Y-16994646D02*
X14916505Y-17004170D01*
X14916505Y-17004170D02*
X14897458Y-17013694D01*
X14897458Y-17013694D02*
X14878410Y-17013694D01*
X14878410Y-17013694D02*
X14859362Y-17004170D01*
X14859362Y-17004170D02*
X14849838Y-16994646D01*
X14849838Y-16994646D02*
X14840315Y-16975599D01*
X14840315Y-16975599D02*
X14830791Y-16937503D01*
X14830791Y-16937503D02*
X14830791Y-16889884D01*
X14830791Y-16889884D02*
X14840315Y-16851789D01*
X14840315Y-16851789D02*
X14849838Y-16832741D01*
X14849838Y-16832741D02*
X14859362Y-16823218D01*
X14859362Y-16823218D02*
X14878410Y-16813694D01*
X15040315Y-17013694D02*
X15078410Y-17013694D01*
X15078410Y-17013694D02*
X15097458Y-17004170D01*
X15097458Y-17004170D02*
X15106981Y-16994646D01*
X15106981Y-16994646D02*
X15126029Y-16966075D01*
X15126029Y-16966075D02*
X15135553Y-16927980D01*
X15135553Y-16927980D02*
X15135553Y-16851789D01*
X15135553Y-16851789D02*
X15126029Y-16832741D01*
X15126029Y-16832741D02*
X15116505Y-16823218D01*
X15116505Y-16823218D02*
X15097458Y-16813694D01*
X15097458Y-16813694D02*
X15059362Y-16813694D01*
X15059362Y-16813694D02*
X15040315Y-16823218D01*
X15040315Y-16823218D02*
X15030791Y-16832741D01*
X15030791Y-16832741D02*
X15021267Y-16851789D01*
X15021267Y-16851789D02*
X15021267Y-16899408D01*
X15021267Y-16899408D02*
X15030791Y-16918456D01*
X15030791Y-16918456D02*
X15040315Y-16927980D01*
X15040315Y-16927980D02*
X15059362Y-16937503D01*
X15059362Y-16937503D02*
X15097458Y-16937503D01*
X15097458Y-16937503D02*
X15116505Y-16927980D01*
X15116505Y-16927980D02*
X15126029Y-16918456D01*
X15126029Y-16918456D02*
X15135553Y-16899408D01*
X15211743Y-16813694D02*
X15211743Y-16851789D01*
X15287934Y-16813694D02*
X15287934Y-16851789D01*
X15583172Y-17089884D02*
X15573648Y-17080360D01*
X15573648Y-17080360D02*
X15554600Y-17051789D01*
X15554600Y-17051789D02*
X15545077Y-17032741D01*
X15545077Y-17032741D02*
X15535553Y-17004170D01*
X15535553Y-17004170D02*
X15526029Y-16956551D01*
X15526029Y-16956551D02*
X15526029Y-16918456D01*
X15526029Y-16918456D02*
X15535553Y-16870837D01*
X15535553Y-16870837D02*
X15545077Y-16842265D01*
X15545077Y-16842265D02*
X15554600Y-16823218D01*
X15554600Y-16823218D02*
X15573648Y-16794646D01*
X15573648Y-16794646D02*
X15583172Y-16785122D01*
X15764124Y-17013694D02*
X15649839Y-17013694D01*
X15706981Y-17013694D02*
X15706981Y-16813694D01*
X15706981Y-16813694D02*
X15687934Y-16842265D01*
X15687934Y-16842265D02*
X15668886Y-16861313D01*
X15668886Y-16861313D02*
X15649839Y-16870837D01*
X15935553Y-16813694D02*
X15897458Y-16813694D01*
X15897458Y-16813694D02*
X15878410Y-16823218D01*
X15878410Y-16823218D02*
X15868886Y-16832741D01*
X15868886Y-16832741D02*
X15849839Y-16861313D01*
X15849839Y-16861313D02*
X15840315Y-16899408D01*
X15840315Y-16899408D02*
X15840315Y-16975599D01*
X15840315Y-16975599D02*
X15849839Y-16994646D01*
X15849839Y-16994646D02*
X15859362Y-17004170D01*
X15859362Y-17004170D02*
X15878410Y-17013694D01*
X15878410Y-17013694D02*
X15916505Y-17013694D01*
X15916505Y-17013694D02*
X15935553Y-17004170D01*
X15935553Y-17004170D02*
X15945077Y-16994646D01*
X15945077Y-16994646D02*
X15954600Y-16975599D01*
X15954600Y-16975599D02*
X15954600Y-16927980D01*
X15954600Y-16927980D02*
X15945077Y-16908932D01*
X15945077Y-16908932D02*
X15935553Y-16899408D01*
X15935553Y-16899408D02*
X15916505Y-16889884D01*
X15916505Y-16889884D02*
X15878410Y-16889884D01*
X15878410Y-16889884D02*
X15859362Y-16899408D01*
X15859362Y-16899408D02*
X15849839Y-16908932D01*
X15849839Y-16908932D02*
X15840315Y-16927980D01*
X16192696Y-17013694D02*
X16192696Y-16813694D01*
X16278410Y-17013694D02*
X16278410Y-16908932D01*
X16278410Y-16908932D02*
X16268886Y-16889884D01*
X16268886Y-16889884D02*
X16249839Y-16880360D01*
X16249839Y-16880360D02*
X16221267Y-16880360D01*
X16221267Y-16880360D02*
X16202220Y-16889884D01*
X16202220Y-16889884D02*
X16192696Y-16899408D01*
X16402220Y-17013694D02*
X16383172Y-17004170D01*
X16383172Y-17004170D02*
X16373648Y-16994646D01*
X16373648Y-16994646D02*
X16364124Y-16975599D01*
X16364124Y-16975599D02*
X16364124Y-16918456D01*
X16364124Y-16918456D02*
X16373648Y-16899408D01*
X16373648Y-16899408D02*
X16383172Y-16889884D01*
X16383172Y-16889884D02*
X16402220Y-16880360D01*
X16402220Y-16880360D02*
X16430791Y-16880360D01*
X16430791Y-16880360D02*
X16449839Y-16889884D01*
X16449839Y-16889884D02*
X16459362Y-16899408D01*
X16459362Y-16899408D02*
X16468886Y-16918456D01*
X16468886Y-16918456D02*
X16468886Y-16975599D01*
X16468886Y-16975599D02*
X16459362Y-16994646D01*
X16459362Y-16994646D02*
X16449839Y-17004170D01*
X16449839Y-17004170D02*
X16430791Y-17013694D01*
X16430791Y-17013694D02*
X16402220Y-17013694D01*
X16583172Y-17013694D02*
X16564124Y-17004170D01*
X16564124Y-17004170D02*
X16554601Y-16985122D01*
X16554601Y-16985122D02*
X16554601Y-16813694D01*
X16735553Y-17004170D02*
X16716505Y-17013694D01*
X16716505Y-17013694D02*
X16678410Y-17013694D01*
X16678410Y-17013694D02*
X16659362Y-17004170D01*
X16659362Y-17004170D02*
X16649839Y-16985122D01*
X16649839Y-16985122D02*
X16649839Y-16908932D01*
X16649839Y-16908932D02*
X16659362Y-16889884D01*
X16659362Y-16889884D02*
X16678410Y-16880360D01*
X16678410Y-16880360D02*
X16716505Y-16880360D01*
X16716505Y-16880360D02*
X16735553Y-16889884D01*
X16735553Y-16889884D02*
X16745077Y-16908932D01*
X16745077Y-16908932D02*
X16745077Y-16927980D01*
X16745077Y-16927980D02*
X16649839Y-16947027D01*
X16821267Y-17004170D02*
X16840315Y-17013694D01*
X16840315Y-17013694D02*
X16878410Y-17013694D01*
X16878410Y-17013694D02*
X16897458Y-17004170D01*
X16897458Y-17004170D02*
X16906982Y-16985122D01*
X16906982Y-16985122D02*
X16906982Y-16975599D01*
X16906982Y-16975599D02*
X16897458Y-16956551D01*
X16897458Y-16956551D02*
X16878410Y-16947027D01*
X16878410Y-16947027D02*
X16849839Y-16947027D01*
X16849839Y-16947027D02*
X16830791Y-16937503D01*
X16830791Y-16937503D02*
X16821267Y-16918456D01*
X16821267Y-16918456D02*
X16821267Y-16908932D01*
X16821267Y-16908932D02*
X16830791Y-16889884D01*
X16830791Y-16889884D02*
X16849839Y-16880360D01*
X16849839Y-16880360D02*
X16878410Y-16880360D01*
X16878410Y-16880360D02*
X16897458Y-16889884D01*
X16973648Y-17089884D02*
X16983172Y-17080360D01*
X16983172Y-17080360D02*
X17002220Y-17051789D01*
X17002220Y-17051789D02*
X17011744Y-17032741D01*
X17011744Y-17032741D02*
X17021267Y-17004170D01*
X17021267Y-17004170D02*
X17030791Y-16956551D01*
X17030791Y-16956551D02*
X17030791Y-16918456D01*
X17030791Y-16918456D02*
X17021267Y-16870837D01*
X17021267Y-16870837D02*
X17011744Y-16842265D01*
X17011744Y-16842265D02*
X17002220Y-16823218D01*
X17002220Y-16823218D02*
X16983172Y-16794646D01*
X16983172Y-16794646D02*
X16973648Y-16785122D01*
X17335553Y-17089884D02*
X17326029Y-17080360D01*
X17326029Y-17080360D02*
X17306982Y-17051789D01*
X17306982Y-17051789D02*
X17297458Y-17032741D01*
X17297458Y-17032741D02*
X17287934Y-17004170D01*
X17287934Y-17004170D02*
X17278410Y-16956551D01*
X17278410Y-16956551D02*
X17278410Y-16918456D01*
X17278410Y-16918456D02*
X17287934Y-16870837D01*
X17287934Y-16870837D02*
X17297458Y-16842265D01*
X17297458Y-16842265D02*
X17306982Y-16823218D01*
X17306982Y-16823218D02*
X17326029Y-16794646D01*
X17326029Y-16794646D02*
X17335553Y-16785122D01*
X17411744Y-16880360D02*
X17411744Y-17013694D01*
X17411744Y-16899408D02*
X17421267Y-16889884D01*
X17421267Y-16889884D02*
X17440315Y-16880360D01*
X17440315Y-16880360D02*
X17468886Y-16880360D01*
X17468886Y-16880360D02*
X17487934Y-16889884D01*
X17487934Y-16889884D02*
X17497458Y-16908932D01*
X17497458Y-16908932D02*
X17497458Y-17013694D01*
X17621267Y-17013694D02*
X17602220Y-17004170D01*
X17602220Y-17004170D02*
X17592696Y-16994646D01*
X17592696Y-16994646D02*
X17583172Y-16975599D01*
X17583172Y-16975599D02*
X17583172Y-16918456D01*
X17583172Y-16918456D02*
X17592696Y-16899408D01*
X17592696Y-16899408D02*
X17602220Y-16889884D01*
X17602220Y-16889884D02*
X17621267Y-16880360D01*
X17621267Y-16880360D02*
X17649839Y-16880360D01*
X17649839Y-16880360D02*
X17668886Y-16889884D01*
X17668886Y-16889884D02*
X17678410Y-16899408D01*
X17678410Y-16899408D02*
X17687934Y-16918456D01*
X17687934Y-16918456D02*
X17687934Y-16975599D01*
X17687934Y-16975599D02*
X17678410Y-16994646D01*
X17678410Y-16994646D02*
X17668886Y-17004170D01*
X17668886Y-17004170D02*
X17649839Y-17013694D01*
X17649839Y-17013694D02*
X17621267Y-17013694D01*
X17745077Y-16880360D02*
X17821267Y-16880360D01*
X17773648Y-16813694D02*
X17773648Y-16985122D01*
X17773648Y-16985122D02*
X17783172Y-17004170D01*
X17783172Y-17004170D02*
X17802220Y-17013694D01*
X17802220Y-17013694D02*
X17821267Y-17013694D01*
X18040315Y-16880360D02*
X18040315Y-17080360D01*
X18040315Y-16889884D02*
X18059363Y-16880360D01*
X18059363Y-16880360D02*
X18097458Y-16880360D01*
X18097458Y-16880360D02*
X18116506Y-16889884D01*
X18116506Y-16889884D02*
X18126029Y-16899408D01*
X18126029Y-16899408D02*
X18135553Y-16918456D01*
X18135553Y-16918456D02*
X18135553Y-16975599D01*
X18135553Y-16975599D02*
X18126029Y-16994646D01*
X18126029Y-16994646D02*
X18116506Y-17004170D01*
X18116506Y-17004170D02*
X18097458Y-17013694D01*
X18097458Y-17013694D02*
X18059363Y-17013694D01*
X18059363Y-17013694D02*
X18040315Y-17004170D01*
X18249839Y-17013694D02*
X18230791Y-17004170D01*
X18230791Y-17004170D02*
X18221267Y-16985122D01*
X18221267Y-16985122D02*
X18221267Y-16813694D01*
X18411744Y-17013694D02*
X18411744Y-16908932D01*
X18411744Y-16908932D02*
X18402220Y-16889884D01*
X18402220Y-16889884D02*
X18383172Y-16880360D01*
X18383172Y-16880360D02*
X18345077Y-16880360D01*
X18345077Y-16880360D02*
X18326029Y-16889884D01*
X18411744Y-17004170D02*
X18392696Y-17013694D01*
X18392696Y-17013694D02*
X18345077Y-17013694D01*
X18345077Y-17013694D02*
X18326029Y-17004170D01*
X18326029Y-17004170D02*
X18316506Y-16985122D01*
X18316506Y-16985122D02*
X18316506Y-16966075D01*
X18316506Y-16966075D02*
X18326029Y-16947027D01*
X18326029Y-16947027D02*
X18345077Y-16937503D01*
X18345077Y-16937503D02*
X18392696Y-16937503D01*
X18392696Y-16937503D02*
X18411744Y-16927980D01*
X18478410Y-16880360D02*
X18554601Y-16880360D01*
X18506982Y-16813694D02*
X18506982Y-16985122D01*
X18506982Y-16985122D02*
X18516506Y-17004170D01*
X18516506Y-17004170D02*
X18535553Y-17013694D01*
X18535553Y-17013694D02*
X18554601Y-17013694D01*
X18697458Y-17004170D02*
X18678410Y-17013694D01*
X18678410Y-17013694D02*
X18640315Y-17013694D01*
X18640315Y-17013694D02*
X18621267Y-17004170D01*
X18621267Y-17004170D02*
X18611744Y-16985122D01*
X18611744Y-16985122D02*
X18611744Y-16908932D01*
X18611744Y-16908932D02*
X18621267Y-16889884D01*
X18621267Y-16889884D02*
X18640315Y-16880360D01*
X18640315Y-16880360D02*
X18678410Y-16880360D01*
X18678410Y-16880360D02*
X18697458Y-16889884D01*
X18697458Y-16889884D02*
X18706982Y-16908932D01*
X18706982Y-16908932D02*
X18706982Y-16927980D01*
X18706982Y-16927980D02*
X18611744Y-16947027D01*
X18878410Y-17013694D02*
X18878410Y-16813694D01*
X18878410Y-17004170D02*
X18859363Y-17013694D01*
X18859363Y-17013694D02*
X18821267Y-17013694D01*
X18821267Y-17013694D02*
X18802220Y-17004170D01*
X18802220Y-17004170D02*
X18792696Y-16994646D01*
X18792696Y-16994646D02*
X18783172Y-16975599D01*
X18783172Y-16975599D02*
X18783172Y-16918456D01*
X18783172Y-16918456D02*
X18792696Y-16899408D01*
X18792696Y-16899408D02*
X18802220Y-16889884D01*
X18802220Y-16889884D02*
X18821267Y-16880360D01*
X18821267Y-16880360D02*
X18859363Y-16880360D01*
X18859363Y-16880360D02*
X18878410Y-16889884D01*
X18954601Y-17089884D02*
X18964125Y-17080360D01*
X18964125Y-17080360D02*
X18983172Y-17051789D01*
X18983172Y-17051789D02*
X18992696Y-17032741D01*
X18992696Y-17032741D02*
X19002220Y-17004170D01*
X19002220Y-17004170D02*
X19011744Y-16956551D01*
X19011744Y-16956551D02*
X19011744Y-16918456D01*
X19011744Y-16918456D02*
X19002220Y-16870837D01*
X19002220Y-16870837D02*
X18992696Y-16842265D01*
X18992696Y-16842265D02*
X18983172Y-16823218D01*
X18983172Y-16823218D02*
X18964125Y-16794646D01*
X18964125Y-16794646D02*
X18954601Y-16785122D01*
M02*
