M48
; DRILL file {KiCad 7.0.9-29-ge2d8d53a10} date 
; FORMAT={-:-/ absolute / inch / decimal}
; #@! TF.CreationDate,2023-11-20T00:12:12+01:00
; #@! TF.GenerationSoftware,Kicad,Pcbnew,7.0.9-29-ge2d8d53a10
; #@! TF.FileFunction,NonPlated,1,2,NPTH
FMAT,2
INCH
; #@! TA.AperFunction,NonPlated,NPTH,ComponentDrill
T1C0.0197
; #@! TA.AperFunction,NonPlated,NPTH,ComponentDrill
T2C0.0354
; #@! TA.AperFunction,NonPlated,NPTH,ComponentDrill
T3C0.0709
%
G90
G05
T1
X8.0913Y-2.1908
X8.1209Y-2.1908
X8.1504Y-2.1908
X8.1799Y-2.1908
X8.2094Y-2.1908
X8.239Y-2.1908
X8.2685Y-2.1908
X8.298Y-2.1908
X8.3276Y-2.1908
X8.3571Y-2.1908
X8.3866Y-2.1908
X8.5532Y-2.1908
X8.5828Y-2.1908
X8.6123Y-2.1908
X8.6418Y-2.1908
X8.6713Y-2.1908
X8.7009Y-2.1908
X8.7304Y-2.1908
X8.7599Y-2.1908
X8.7894Y-2.1908
X8.819Y-2.1908
X8.8485Y-2.1908
T2
X8.6506Y-2.3815
X8.7687Y-2.3815
T3
X5.2175Y-5.5968
X5.5718Y-5.5968
X5.7175Y-5.5968
X6.0718Y-5.5968
X6.2175Y-5.5968
X6.5718Y-5.5968
X6.7175Y-5.5968
X7.0718Y-5.5968
X7.2175Y-5.5968
X7.5718Y-5.5968
X7.7175Y-5.5968
X8.0718Y-5.5968
X8.2175Y-5.5968
X8.5718Y-5.5968
X8.7175Y-5.5968
X9.0718Y-5.5968
T0
M30
