M48
; DRILL file {KiCad 7.0.9-29-ge2d8d53a10} date 
; FORMAT={-:-/ absolute / inch / decimal}
; #@! TF.CreationDate,2023-11-20T00:12:12+01:00
; #@! TF.GenerationSoftware,Kicad,Pcbnew,7.0.9-29-ge2d8d53a10
; #@! TF.FileFunction,Plated,1,2,PTH
FMAT,2
INCH
; #@! TA.AperFunction,Plated,PTH,ComponentDrill
T1C0.0130
; #@! TA.AperFunction,Plated,PTH,ViaDrill
T2C0.0157
; #@! TA.AperFunction,Plated,PTH,ComponentDrill
T3C0.0197
; #@! TA.AperFunction,Plated,PTH,ComponentDrill
T4C0.0276
; #@! TA.AperFunction,Plated,PTH,ComponentDrill
T5C0.0300
; #@! TA.AperFunction,Plated,PTH,ComponentDrill
T6C0.0394
; #@! TA.AperFunction,Plated,PTH,ComponentDrill
T7C0.0433
; #@! TA.AperFunction,Plated,PTH,ComponentDrill
T8C0.0551
; #@! TA.AperFunction,Plated,PTH,ComponentDrill
T9C0.0551
; #@! TA.AperFunction,Plated,PTH,ComponentDrill
T10C0.0591
; #@! TA.AperFunction,Plated,PTH,ComponentDrill
T11C0.0787
; #@! TA.AperFunction,Plated,PTH,ComponentDrill
T12C0.0866
; #@! TA.AperFunction,Plated,PTH,ComponentDrill
T13C0.1260
%
G90
G05
T1
X8.244Y-3.2688
X8.244Y-3.32
X8.244Y-3.3712
X8.2952Y-3.2688
X8.2952Y-3.32
X8.2952Y-3.3712
T2
X5.248Y-3.6024
X5.3246Y-5.0968
X5.4446Y-4.4968
X5.4446Y-4.6768
X5.4606Y-3.6024
X5.5246Y-4.4868
X5.5433Y-3.7165
X5.5446Y-4.6868
X5.5446Y-5.1668
X5.5446Y-4.8768
X5.5446Y-5.2768
X5.5551Y-3.6496
X5.5846Y-4.6868
X5.5866Y-2.6299
X5.5946Y-3.7768
X5.5946Y-3.8168
X5.5946Y-3.8568
X5.5979Y-3.9268
X5.5979Y-3.9834
X5.6096Y-4.8818
X5.63Y-3.56
X5.6346Y-4.6868
X5.6446Y-5.1768
X5.6846Y-4.6868
X5.6846Y-4.9168
X5.7146Y-3.9868
X5.7328Y-4.8583
X5.7346Y-4.6868
X5.7546Y-3.8468
X5.7729Y-4.2018
X5.7946Y-4.4968
X5.7946Y-4.9668
X5.8046Y-5.2368
X5.8214Y-4.1936
X5.8229Y-4.0268
X5.8238Y-4.5568
X5.8246Y-3.8468
X5.83Y-4.6868
X5.8311Y-3.7104
X5.8346Y-3.9868
X5.8502Y-4.2365
X5.8546Y-4.4868
X5.8702Y-4.1806
X5.8746Y-4.4468
X5.8921Y-4.6138
X5.8976Y-3.5591
X5.9046Y-5.1968
X5.9059Y-4.8352
X5.9146Y-3.8668
X5.9146Y-5.4729
X5.9213Y-3.6181
X5.9345Y-4.8067
X5.9437Y-3.7059
X5.9646Y-4.8868
X5.9729Y-4.2468
X5.9746Y-4.6068
X5.9846Y-4.3068
X6.0146Y-4.1068
X6.0146Y-4.2468
X6.0246Y-4.4168
X6.0349Y-3.7869
X6.0356Y-4.3575
X6.0472Y-3.4872
X6.0546Y-4.1068
X6.0546Y-4.2668
X6.0646Y-4.3068
X6.0727Y-4.4968
X6.0729Y-4.0018
X6.0846Y-4.1668
X6.1092Y-4.4232
X6.1146Y-5.0468
X6.1146Y-5.0968
X6.1146Y-5.1468
X6.115Y-4.9971
X6.1299Y-3.6929
X6.1446Y-4.9468
X6.1693Y-3.6614
X6.2148Y-3.577
X6.2246Y-4.3868
X6.2532Y-4.2783
X6.2746Y-4.3368
X6.2846Y-5.4183
X6.2946Y-4.5568
X6.3146Y-4.3768
X6.3346Y-5.1868
X6.3746Y-4.9468
X6.4348Y-4.827
X6.4784Y-4.7183
X6.6746Y-5.0268
X6.7246Y-4.2368
X6.7362Y-3.4134
X6.752Y-3.6642
X6.7746Y-5.0268
X6.8746Y-4.0868
X6.8946Y-5.2868
X6.9173Y-3.7756
X6.9528Y-3.5669
X6.9921Y-3.2598
X7.0546Y-4.2068
X7.0866Y-3.5827
X7.0945Y-3.3854
X7.1946Y-3.8868
X7.1988Y-3.374
X7.2244Y-3.815
X7.2346Y-3.9268
X7.239Y-4.474
X7.261Y-4.607
X7.3071Y-3.2126
X7.311Y-5.1969
X7.4146Y-4.4068
X7.4146Y-4.5668
X7.43Y-4.67
X7.4946Y-4.4068
X7.4946Y-4.5668
X7.5146Y-4.0468
X7.5946Y-4.5468
X7.6132Y-4.6057
X7.6146Y-4.0468
X7.67Y-4.54
X7.7546Y-4.5068
X7.7746Y-4.8468
X7.8346Y-4.5668
X7.84Y-4.7115
X7.87Y-4.85
X7.8846Y-4.7168
X7.89Y-5.28
X7.9246Y-4.7468
X7.9252Y-3.2717
X7.9252Y-3.311
X7.9291Y-3.4173
X8.03Y-4.78
X8.085Y-3.3
X8.085Y-3.345
X8.15Y-4.74
X8.1578Y-1.912
X8.2109Y-2.0208
X8.2746Y-4.565
X8.3209Y-1.9008
X8.3746Y-5.2968
X8.5Y-4.77
X8.51Y-4.63
X8.6171Y-1.912
X8.6709Y-2.0208
X8.7139Y-5.228
X8.7809Y-1.9008
X8.89Y-2.3774
T3
X4.8151Y-1.937
X4.8151Y-5.3602
X4.8428Y-1.8702
X4.8428Y-2.0038
X4.8428Y-5.2934
X4.8428Y-5.427
X4.9096Y-1.8425
X4.9096Y-2.0315
X4.9096Y-5.2657
X4.9096Y-5.4547
X4.9764Y-1.8702
X4.9764Y-2.0038
X4.9764Y-5.2934
X4.9764Y-5.427
X5.0041Y-1.937
X5.0041Y-5.3602
X6.7246Y-5.1468
X6.8246Y-5.1468
X7.4606Y-5.1417
X9.2677Y-1.937
X9.2678Y-5.3602
X9.2954Y-1.8702
X9.2954Y-2.0038
X9.2955Y-5.2934
X9.2955Y-5.427
X9.3622Y-1.8425
X9.3622Y-2.0315
X9.3623Y-5.2657
X9.3623Y-5.4547
X9.429Y-1.8702
X9.429Y-2.0038
X9.4291Y-5.2934
X9.4291Y-5.427
X9.4567Y-1.937
X9.4568Y-5.3602
T4
X5.6Y-4.2068
X6.1546Y-4.2668
X6.2546Y-3.8068
T5
X6.9516Y-2.47
X7.05Y-2.47
X7.1484Y-2.47
X7.3616Y-2.47
X7.46Y-2.47
X7.5584Y-2.47
X7.77Y-2.47
X7.8684Y-2.47
X7.9669Y-2.47
T6
X4.9173Y-2.274
X4.9173Y-2.374
X4.9173Y-2.474
X4.9173Y-2.574
X4.9173Y-2.674
X4.9173Y-2.774
X5.7223Y-4.3016
X5.7223Y-4.4016
X5.8223Y-4.3016
X5.8223Y-4.4016
X5.9223Y-4.3016
X5.9223Y-4.4016
X6.2246Y-4.8968
X6.2246Y-4.9968
X6.3246Y-4.8968
X6.3246Y-4.9968
X6.4246Y-4.8968
X6.4246Y-4.9968
X6.5246Y-4.8968
X6.5246Y-4.9968
X6.6246Y-4.8968
X6.6246Y-4.9968
X6.7246Y-4.8968
X6.7246Y-4.9968
X6.8246Y-4.8968
X6.8246Y-4.9968
X6.9246Y-4.8968
X6.9246Y-4.9968
X7.0246Y-4.8968
X7.0246Y-4.9968
X7.1246Y-4.8968
X7.1246Y-4.9968
X7.2246Y-4.8968
X7.2246Y-4.9968
X7.3246Y-4.8968
X7.3246Y-4.9968
X7.4246Y-4.8968
X7.4246Y-4.9968
X7.5246Y-4.8968
X7.5246Y-4.9968
X7.6246Y-4.8968
X7.6246Y-4.9968
X7.6362Y-5.1654
X7.7246Y-4.8968
X7.7246Y-4.9968
X7.7362Y-5.1654
X7.8246Y-4.8968
X7.8246Y-4.9968
X7.9246Y-4.8968
X7.9246Y-4.9968
X8.0246Y-4.8968
X8.0246Y-4.9968
X8.1246Y-4.8968
X8.1246Y-4.9968
X8.1409Y-2.1267
X8.1614Y-2.4291
X8.2409Y-2.1267
X8.32Y-2.4291
X8.3409Y-2.1267
X8.5996Y-2.1267
X8.6996Y-2.1267
X8.7996Y-2.1267
X9.0757Y-2.26
X9.0757Y-2.36
X9.0757Y-2.46
T7
X5.278Y-2.2846
X5.4552Y-2.2846
X5.8Y-2.48
X5.9Y-2.48
X6.0Y-2.48
X6.42Y-2.48
X6.52Y-2.48
X6.62Y-2.48
T8
X5.2166Y-2.3846
X5.5166Y-2.3846
X8.6946Y-3.715
X8.6946Y-3.815
X8.6946Y-3.915
X8.6946Y-4.125
X8.6946Y-4.225
X8.6946Y-4.325
X8.6946Y-4.9468
X8.6946Y-5.0468
X8.6946Y-5.1468
X8.695Y-4.535
X8.695Y-4.635
X8.695Y-4.735
X8.8946Y-3.715
X8.8946Y-3.815
X8.8946Y-3.915
X8.8946Y-4.125
X8.8946Y-4.225
X8.8946Y-4.325
X8.8946Y-4.9468
X8.8946Y-5.0468
X8.8946Y-5.1468
X8.895Y-4.535
X8.895Y-4.635
X8.895Y-4.735
T9
X5.2946Y-5.3508
X5.2946Y-5.8429
X5.4946Y-5.3508
X5.4946Y-5.8429
X5.7946Y-5.3508
X5.7946Y-5.8429
X5.9946Y-5.3508
X5.9946Y-5.8429
X6.2946Y-5.3508
X6.2946Y-5.8429
X6.4946Y-5.3508
X6.4946Y-5.8429
X6.7946Y-5.3508
X6.7946Y-5.8429
X6.9946Y-5.3508
X6.9946Y-5.8429
X7.2946Y-5.3508
X7.2946Y-5.8429
X7.4946Y-5.3508
X7.4946Y-5.8429
X7.7946Y-5.3508
X7.7946Y-5.8429
X7.9946Y-5.3508
X7.9946Y-5.8429
X8.2946Y-5.3508
X8.2946Y-5.8429
X8.4946Y-5.3508
X8.4946Y-5.8429
X8.7946Y-5.3508
X8.7946Y-5.8429
X8.9946Y-5.3508
X8.9946Y-5.8429
T10
X8.6446Y-2.7
X8.6446Y-2.9
X8.645Y-3.21
X8.645Y-3.41
X8.9446Y-2.7
X8.9446Y-2.9
X8.945Y-3.21
X8.945Y-3.41
T12
X8.2409Y-1.8308
X8.7009Y-1.8308
T13
X4.9096Y-1.937
X4.9096Y-5.3602
X9.3622Y-1.937
X9.3623Y-5.3602
T11
G00X5.7031Y-2.6158
M15
G01X5.7031Y-2.604
M16
G05
G00X6.0969Y-2.6158
M15
G01X6.0969Y-2.604
M16
G05
G00X6.3231Y-2.6158
M15
G01X6.3231Y-2.604
M16
G05
G00X6.7169Y-2.6158
M15
G01X6.7169Y-2.604
M16
G05
T0
M30
