%TF.GenerationSoftware,KiCad,Pcbnew,7.0.9-29-ge2d8d53a10*%
%TF.CreationDate,2023-11-19T17:16:07+01:00*%
%TF.ProjectId,scan-controller-kicad,7363616e-2d63-46f6-9e74-726f6c6c6572,rev?*%
%TF.SameCoordinates,Original*%
%TF.FileFunction,Paste,Top*%
%TF.FilePolarity,Positive*%
%FSLAX46Y46*%
G04 Gerber Fmt 4.6, Leading zero omitted, Abs format (unit mm)*
G04 Created by KiCad (PCBNEW 7.0.9-29-ge2d8d53a10) date 2023-11-19 17:16:07*
%MOMM*%
%LPD*%
G01*
G04 APERTURE LIST*
G04 Aperture macros list*
%AMRoundRect*
0 Rectangle with rounded corners*
0 $1 Rounding radius*
0 $2 $3 $4 $5 $6 $7 $8 $9 X,Y pos of 4 corners*
0 Add a 4 corners polygon primitive as box body*
4,1,4,$2,$3,$4,$5,$6,$7,$8,$9,$2,$3,0*
0 Add four circle primitives for the rounded corners*
1,1,$1+$1,$2,$3*
1,1,$1+$1,$4,$5*
1,1,$1+$1,$6,$7*
1,1,$1+$1,$8,$9*
0 Add four rect primitives between the rounded corners*
20,1,$1+$1,$2,$3,$4,$5,0*
20,1,$1+$1,$4,$5,$6,$7,0*
20,1,$1+$1,$6,$7,$8,$9,0*
20,1,$1+$1,$8,$9,$2,$3,0*%
%AMFreePoly0*
4,1,9,3.862500,-0.866500,0.737500,-0.866500,0.737500,-0.450000,-0.737500,-0.450000,-0.737500,0.450000,0.737500,0.450000,0.737500,0.866500,3.862500,0.866500,3.862500,-0.866500,3.862500,-0.866500,$1*%
G04 Aperture macros list end*
%ADD10R,1.000000X1.400000*%
%ADD11R,1.000000X1.000000*%
%ADD12R,1.200000X0.700000*%
%ADD13R,2.100000X1.800000*%
%ADD14RoundRect,0.250000X0.250000X0.475000X-0.250000X0.475000X-0.250000X-0.475000X0.250000X-0.475000X0*%
%ADD15RoundRect,0.250000X-1.000000X-0.650000X1.000000X-0.650000X1.000000X0.650000X-1.000000X0.650000X0*%
%ADD16R,1.000000X0.750000*%
%ADD17RoundRect,0.250000X0.475000X-0.250000X0.475000X0.250000X-0.475000X0.250000X-0.475000X-0.250000X0*%
%ADD18RoundRect,0.250000X1.425000X-0.362500X1.425000X0.362500X-1.425000X0.362500X-1.425000X-0.362500X0*%
%ADD19RoundRect,0.250000X0.450000X-0.262500X0.450000X0.262500X-0.450000X0.262500X-0.450000X-0.262500X0*%
%ADD20RoundRect,0.250000X-0.262500X-0.450000X0.262500X-0.450000X0.262500X0.450000X-0.262500X0.450000X0*%
%ADD21RoundRect,0.243750X0.243750X0.456250X-0.243750X0.456250X-0.243750X-0.456250X0.243750X-0.456250X0*%
%ADD22RoundRect,0.150000X-0.825000X-0.150000X0.825000X-0.150000X0.825000X0.150000X-0.825000X0.150000X0*%
%ADD23R,1.300000X0.900000*%
%ADD24FreePoly0,0.000000*%
%ADD25RoundRect,0.250000X-0.250000X-0.475000X0.250000X-0.475000X0.250000X0.475000X-0.250000X0.475000X0*%
%ADD26RoundRect,0.250000X0.262500X0.450000X-0.262500X0.450000X-0.262500X-0.450000X0.262500X-0.450000X0*%
%ADD27RoundRect,0.150000X-0.587500X-0.150000X0.587500X-0.150000X0.587500X0.150000X-0.587500X0.150000X0*%
%ADD28RoundRect,0.250000X-0.325000X-0.650000X0.325000X-0.650000X0.325000X0.650000X-0.325000X0.650000X0*%
%ADD29RoundRect,0.243750X-0.243750X-0.456250X0.243750X-0.456250X0.243750X0.456250X-0.243750X0.456250X0*%
%ADD30RoundRect,0.250000X-0.300000X0.300000X-0.300000X-0.300000X0.300000X-0.300000X0.300000X0.300000X0*%
%ADD31RoundRect,0.150000X0.587500X0.150000X-0.587500X0.150000X-0.587500X-0.150000X0.587500X-0.150000X0*%
%ADD32RoundRect,0.135000X-0.185000X0.135000X-0.185000X-0.135000X0.185000X-0.135000X0.185000X0.135000X0*%
%ADD33RoundRect,0.243750X-0.456250X0.243750X-0.456250X-0.243750X0.456250X-0.243750X0.456250X0.243750X0*%
%ADD34RoundRect,0.250000X1.500000X0.550000X-1.500000X0.550000X-1.500000X-0.550000X1.500000X-0.550000X0*%
%ADD35RoundRect,0.250000X-0.475000X0.250000X-0.475000X-0.250000X0.475000X-0.250000X0.475000X0.250000X0*%
%ADD36RoundRect,0.150000X0.150000X-0.825000X0.150000X0.825000X-0.150000X0.825000X-0.150000X-0.825000X0*%
%ADD37R,1.600000X5.000000*%
%ADD38R,3.250000X4.500000*%
%ADD39RoundRect,0.150000X0.150000X-0.512500X0.150000X0.512500X-0.150000X0.512500X-0.150000X-0.512500X0*%
%ADD40R,2.200000X0.500000*%
%ADD41R,2.400000X3.100000*%
%ADD42RoundRect,0.150000X0.150000X-0.587500X0.150000X0.587500X-0.150000X0.587500X-0.150000X-0.587500X0*%
%ADD43R,2.400000X2.000000*%
%ADD44R,0.550000X1.600000*%
%ADD45R,1.600000X0.550000*%
%ADD46RoundRect,0.250000X-0.450000X0.262500X-0.450000X-0.262500X0.450000X-0.262500X0.450000X0.262500X0*%
%ADD47RoundRect,0.250000X-0.300000X2.050000X-0.300000X-2.050000X0.300000X-2.050000X0.300000X2.050000X0*%
%ADD48RoundRect,0.250000X-2.375000X2.025000X-2.375000X-2.025000X2.375000X-2.025000X2.375000X2.025000X0*%
G04 APERTURE END LIST*
D10*
%TO.C,SW11*%
X218974000Y-62509000D03*
X220474000Y-62509000D03*
X223474000Y-62509000D03*
D11*
X217424000Y-59389000D03*
X217424000Y-61589000D03*
X225024000Y-59389000D03*
X225024000Y-61589000D03*
%TD*%
D12*
%TO.C,U4*%
X222970000Y-49513300D03*
X218970000Y-49513300D03*
X218970000Y-51437100D03*
X222970000Y-51437100D03*
%TD*%
%TO.C,U3*%
X211318000Y-49513300D03*
X207318000Y-49513300D03*
X207318000Y-51437100D03*
X211318000Y-51437100D03*
%TD*%
D13*
%TO.C,D1*%
X205073000Y-68443000D03*
X205073000Y-73543000D03*
X213773000Y-73543000D03*
X213773000Y-68443000D03*
%TD*%
D14*
%TO.C,C12*%
X135311593Y-115619763D03*
X137211593Y-115619763D03*
%TD*%
D15*
%TO.C,D5*%
X172551593Y-96693763D03*
X168551593Y-96693763D03*
%TD*%
D16*
%TO.C,SW1*%
X138900000Y-93875000D03*
X132900000Y-93875000D03*
X138900000Y-90125000D03*
X132900000Y-90125000D03*
%TD*%
D17*
%TO.C,C8*%
X136007593Y-96759763D03*
X136007593Y-98659763D03*
%TD*%
D18*
%TO.C,R38*%
X190363593Y-100843263D03*
X190363593Y-106768263D03*
%TD*%
D19*
%TO.C,R42*%
X215392000Y-59726500D03*
X215392000Y-61551500D03*
%TD*%
D20*
%TO.C,R35*%
X177560093Y-106345763D03*
X175735093Y-106345763D03*
%TD*%
%TO.C,R12*%
X201436093Y-133269763D03*
X199611093Y-133269763D03*
%TD*%
D21*
%TO.C,D7*%
X197554093Y-107361763D03*
X199429093Y-107361763D03*
%TD*%
D22*
%TO.C,Q7*%
X164781000Y-77597000D03*
X164781000Y-78867000D03*
X164781000Y-80137000D03*
X164781000Y-81407000D03*
X159831000Y-81407000D03*
X159831000Y-80137000D03*
X159831000Y-78867000D03*
X159831000Y-77597000D03*
%TD*%
D23*
%TO.C,U6*%
X171141593Y-85493763D03*
D24*
X171229093Y-83993763D03*
D23*
X171141593Y-82493763D03*
%TD*%
D20*
%TO.C,R11*%
X188736093Y-133269763D03*
X186911093Y-133269763D03*
%TD*%
D25*
%TO.C,C19*%
X167437593Y-99741763D03*
X165537593Y-99741763D03*
%TD*%
D20*
%TO.C,R1*%
X183792500Y-118283763D03*
X181967500Y-118283763D03*
%TD*%
D14*
%TO.C,C14*%
X150297593Y-118791763D03*
X152197593Y-118791763D03*
%TD*%
D26*
%TO.C,R32*%
X157941000Y-87884000D03*
X159766000Y-87884000D03*
%TD*%
D20*
%TO.C,R16*%
X156433093Y-95296763D03*
X154608093Y-95296763D03*
%TD*%
D21*
%TO.C,D8*%
X193490093Y-107361763D03*
X195365093Y-107361763D03*
%TD*%
D20*
%TO.C,R9*%
X163336093Y-133269763D03*
X161511093Y-133269763D03*
%TD*%
D25*
%TO.C,C20*%
X182950000Y-88000000D03*
X181050000Y-88000000D03*
%TD*%
D27*
%TO.C,Q2*%
X192571093Y-113904763D03*
X190696093Y-114854763D03*
X190696093Y-112954763D03*
%TD*%
D28*
%TO.C,C2*%
X212412593Y-124125763D03*
X209462593Y-124125763D03*
%TD*%
D29*
%TO.C,D6*%
X137961093Y-133269763D03*
X136086093Y-133269763D03*
%TD*%
D26*
%TO.C,R31*%
X157941000Y-84328000D03*
X159766000Y-84328000D03*
%TD*%
D20*
%TO.C,R7*%
X137936093Y-130729763D03*
X136111093Y-130729763D03*
%TD*%
D30*
%TO.C,D4*%
X215900000Y-119002000D03*
X215900000Y-116202000D03*
%TD*%
D20*
%TO.C,R25*%
X137936093Y-128189763D03*
X136111093Y-128189763D03*
%TD*%
%TO.C,R14*%
X222400500Y-133523763D03*
X220575500Y-133523763D03*
%TD*%
%TO.C,R15*%
X137936093Y-122855763D03*
X136111093Y-122855763D03*
%TD*%
D31*
%TO.C,Q4*%
X196096093Y-112066263D03*
X197971093Y-111116263D03*
X197971093Y-113016263D03*
%TD*%
D27*
%TO.C,Q6*%
X213203000Y-119568000D03*
X211328000Y-120518000D03*
X211328000Y-118618000D03*
%TD*%
D32*
%TO.C,R19*%
X212366000Y-48536000D03*
X212366000Y-47516000D03*
%TD*%
D26*
%TO.C,R37*%
X184371093Y-104821763D03*
X186196093Y-104821763D03*
%TD*%
D20*
%TO.C,R10*%
X176036093Y-133269763D03*
X174211093Y-133269763D03*
%TD*%
D19*
%TO.C,R3*%
X182362593Y-109309263D03*
X182362593Y-111134263D03*
%TD*%
%TO.C,R4*%
X133500000Y-96787500D03*
X133500000Y-98612500D03*
%TD*%
D20*
%TO.C,R40*%
X195340093Y-104821763D03*
X193515093Y-104821763D03*
%TD*%
D25*
%TO.C,C17*%
X171501593Y-78405763D03*
X169601593Y-78405763D03*
%TD*%
%TO.C,C3*%
X211887593Y-126919763D03*
X209987593Y-126919763D03*
%TD*%
D26*
%TO.C,R18*%
X229465500Y-133523763D03*
X231290500Y-133523763D03*
%TD*%
D33*
%TO.C,D2*%
X130100000Y-59037500D03*
X130100000Y-57162500D03*
%TD*%
D32*
%TO.C,R22*%
X217954000Y-48536000D03*
X217954000Y-47516000D03*
%TD*%
D34*
%TO.C,C15*%
X206967593Y-94407763D03*
X212367593Y-94407763D03*
%TD*%
D25*
%TO.C,C24*%
X177597593Y-102789763D03*
X175697593Y-102789763D03*
%TD*%
D14*
%TO.C,C22*%
X201950000Y-97300000D03*
X203850000Y-97300000D03*
%TD*%
D17*
%TO.C,C9*%
X156790593Y-98791763D03*
X156790593Y-100691763D03*
%TD*%
D26*
%TO.C,R23*%
X136111093Y-125395763D03*
X137936093Y-125395763D03*
%TD*%
D35*
%TO.C,C6*%
X156790593Y-104821763D03*
X156790593Y-102921763D03*
%TD*%
D36*
%TO.C,U2*%
X139309593Y-115619763D03*
X140579593Y-115619763D03*
X141849593Y-115619763D03*
X143119593Y-115619763D03*
X144389593Y-115619763D03*
X145659593Y-115619763D03*
X146929593Y-115619763D03*
X146929593Y-120569763D03*
X145659593Y-120569763D03*
X144389593Y-120569763D03*
X143119593Y-120569763D03*
X141849593Y-120569763D03*
X140579593Y-120569763D03*
X139309593Y-120569763D03*
%TD*%
D17*
%TO.C,C4*%
X135200593Y-101331763D03*
X135200593Y-103231763D03*
%TD*%
D20*
%TO.C,R36*%
X182132093Y-104821763D03*
X180307093Y-104821763D03*
%TD*%
D37*
%TO.C,C23*%
X207508593Y-112399763D03*
X207508593Y-100799763D03*
%TD*%
D26*
%TO.C,R29*%
X211295093Y-115489763D03*
X213120093Y-115489763D03*
%TD*%
D38*
%TO.C,L1*%
X199700000Y-91100000D03*
X188100000Y-91100000D03*
%TD*%
D39*
%TO.C,Q3*%
X196083593Y-116008763D03*
X197033593Y-116008763D03*
X197983593Y-116008763D03*
X197983593Y-118283763D03*
X197033593Y-118283763D03*
X196083593Y-118283763D03*
%TD*%
D20*
%TO.C,R26*%
X148096093Y-125141763D03*
X146271093Y-125141763D03*
%TD*%
D40*
%TO.C,U5*%
X212923593Y-82423000D03*
X212923593Y-83693000D03*
X212923593Y-84963000D03*
X212923593Y-86233000D03*
X207173593Y-86233000D03*
X207173593Y-84963000D03*
X207173593Y-83693000D03*
X207173593Y-82423000D03*
D41*
X210048593Y-84328000D03*
%TD*%
D20*
%TO.C,R6*%
X187856500Y-118283763D03*
X186031500Y-118283763D03*
%TD*%
D37*
%TO.C,C18*%
X179568593Y-80014763D03*
X179568593Y-68414763D03*
%TD*%
D42*
%TO.C,U8*%
X174900000Y-89962500D03*
X175850000Y-91837500D03*
X173950000Y-91837500D03*
%TD*%
D20*
%TO.C,R39*%
X199404093Y-104821763D03*
X197579093Y-104821763D03*
%TD*%
%TO.C,R13*%
X214136093Y-133269763D03*
X212311093Y-133269763D03*
%TD*%
D22*
%TO.C,U9*%
X185726593Y-98344763D03*
X185726593Y-99614763D03*
X185726593Y-100884763D03*
X185726593Y-102154763D03*
X180776593Y-102154763D03*
X180776593Y-100884763D03*
X180776593Y-99614763D03*
X180776593Y-98344763D03*
%TD*%
D20*
%TO.C,R8*%
X150636093Y-133269763D03*
X148811093Y-133269763D03*
%TD*%
D17*
%TO.C,C5*%
X135200593Y-105141763D03*
X135200593Y-107041763D03*
%TD*%
D20*
%TO.C,R34*%
X177560093Y-99233763D03*
X175735093Y-99233763D03*
%TD*%
D43*
%TO.C,Y1*%
X139010593Y-106036763D03*
X139010593Y-102336763D03*
%TD*%
D44*
%TO.C,U1*%
X145075593Y-95786763D03*
X145875593Y-95786763D03*
X146675593Y-95786763D03*
X147475593Y-95786763D03*
X148275593Y-95786763D03*
X149075593Y-95786763D03*
X149875593Y-95786763D03*
X150675593Y-95786763D03*
D45*
X152125593Y-97236763D03*
X152125593Y-98036763D03*
X152125593Y-98836763D03*
X152125593Y-99636763D03*
X152125593Y-100436763D03*
X152125593Y-101236763D03*
X152125593Y-102036763D03*
X152125593Y-102836763D03*
D44*
X150675593Y-104286763D03*
X149875593Y-104286763D03*
X149075593Y-104286763D03*
X148275593Y-104286763D03*
X147475593Y-104286763D03*
X146675593Y-104286763D03*
X145875593Y-104286763D03*
X145075593Y-104286763D03*
D45*
X143625593Y-102836763D03*
X143625593Y-102036763D03*
X143625593Y-101236763D03*
X143625593Y-100436763D03*
X143625593Y-99636763D03*
X143625593Y-98836763D03*
X143625593Y-98036763D03*
X143625593Y-97236763D03*
%TD*%
D37*
%TO.C,C1*%
X195443593Y-68414763D03*
X195443593Y-80014763D03*
%TD*%
D19*
%TO.C,R2*%
X187521093Y-112992263D03*
X187521093Y-114817263D03*
%TD*%
D14*
%TO.C,C11*%
X189413593Y-109901763D03*
X191313593Y-109901763D03*
%TD*%
D20*
%TO.C,R30*%
X209056093Y-89454763D03*
X207231093Y-89454763D03*
%TD*%
D26*
%TO.C,R24*%
X146271093Y-128951763D03*
X148096093Y-128951763D03*
%TD*%
D17*
%TO.C,C7*%
X138547593Y-96759763D03*
X138547593Y-98659763D03*
%TD*%
D32*
%TO.C,R21*%
X206270000Y-48536000D03*
X206270000Y-47516000D03*
%TD*%
D20*
%TO.C,R33*%
X182812500Y-84300000D03*
X180987500Y-84300000D03*
%TD*%
D27*
%TO.C,Q1*%
X187110093Y-110221763D03*
X185235093Y-111171763D03*
X185235093Y-109271763D03*
%TD*%
D17*
%TO.C,C10*%
X132700000Y-101350000D03*
X132700000Y-103250000D03*
%TD*%
D46*
%TO.C,R17*%
X130100000Y-64612500D03*
X130100000Y-62787500D03*
%TD*%
D42*
%TO.C,Q5*%
X152517593Y-123696263D03*
X153467593Y-125571263D03*
X151567593Y-125571263D03*
%TD*%
D47*
%TO.C,U7*%
X165627593Y-104283763D03*
X167327593Y-104283763D03*
D48*
X166252593Y-115858763D03*
X171802593Y-115858763D03*
X166252593Y-111008763D03*
X171802593Y-111008763D03*
D47*
X169027593Y-104283763D03*
X170727593Y-104283763D03*
X172427593Y-104283763D03*
%TD*%
D25*
%TO.C,C13*%
X152922093Y-128851763D03*
X151022093Y-128851763D03*
%TD*%
D46*
%TO.C,R41*%
X227076000Y-61551500D03*
X227076000Y-59726500D03*
%TD*%
D26*
%TO.C,R28*%
X150335093Y-115489763D03*
X152160093Y-115489763D03*
%TD*%
D20*
%TO.C,R27*%
X142724593Y-125141763D03*
X140899593Y-125141763D03*
%TD*%
D32*
%TO.C,R20*%
X224050000Y-48536000D03*
X224050000Y-47516000D03*
%TD*%
D25*
%TO.C,C16*%
X216002393Y-89581763D03*
X214102393Y-89581763D03*
%TD*%
D29*
%TO.C,D3*%
X226861093Y-133523763D03*
X224986093Y-133523763D03*
%TD*%
D25*
%TO.C,C21*%
X182950000Y-91700000D03*
X181050000Y-91700000D03*
%TD*%
D26*
%TO.C,R5*%
X191332593Y-118283763D03*
X193157593Y-118283763D03*
%TD*%
M02*
